<svg width="331" height="55" viewBox="0 0 331 55" fill="none" xmlns="http://www.w3.org/2000/svg">
<path fill-rule="evenodd" clip-rule="evenodd" d="M117.256 0.583323C118.372 0.52852 119.475 0.611853 120.566 0.833323C121.377 1.15029 121.901 1.73362 122.139 2.58332C123.009 7.81659 120.94 9.56659 115.932 7.83332C114.963 6.90784 114.522 5.76896 114.608 4.41666C114.56 2.45074 115.443 1.17296 117.256 0.583323Z" fill="white"/>
<path fill-rule="evenodd" clip-rule="evenodd" d="M17.4604 0.749988C22.3834 0.158031 26.9623 1.13025 31.1969 3.66665C34.8359 6.30192 36.5461 9.88526 36.3274 14.4167C34.0104 14.4167 31.6934 14.4167 29.3764 14.4167C29.2541 11.376 27.7646 9.34824 24.9079 8.33332C22.2439 7.55964 19.5406 7.39297 16.7984 7.83332C15.6995 8.08099 14.6513 8.46989 13.6539 8.99999C11.9563 10.4342 11.5426 12.1842 12.4127 14.25C13.247 15.366 14.3227 16.1716 15.6399 16.6667C20.2801 17.9235 24.9141 19.2012 29.5419 20.5C35.9713 23.0888 38.1502 27.7278 36.0792 34.4167C35.131 36.3715 33.7243 37.8993 31.8589 39C27.2711 41.3282 22.4165 42.1615 17.2949 41.5C12.33 41.153 8.2753 39.0697 5.13068 35.25C3.64257 32.9783 2.95298 30.4783 3.06193 27.75C5.48927 27.75 7.91659 27.75 10.3439 27.75C10.7085 30.8708 12.3635 33.0097 15.3089 34.1667C18.66 35.2977 22.0251 35.3532 25.4044 34.3333C28.5385 33.1082 29.4488 30.9692 28.1352 27.9167C26.5611 26.4433 24.713 25.471 22.5909 25C18.6522 24.1473 14.7905 23.0363 11.0059 21.6667C4.97147 18.983 2.95788 14.4552 4.96518 8.08332C6.33511 5.21165 8.51418 3.23944 11.5024 2.16665C13.4635 1.48913 15.4495 1.01691 17.4604 0.749988Z" fill="white"/>
<path fill-rule="evenodd" clip-rule="evenodd" d="M218.709 0.749985C223.767 0.172023 228.457 1.1998 232.776 3.83332C236.666 6.72777 239.037 10.5889 239.893 15.4167C237.41 15.6389 234.928 15.6389 232.445 15.4167C231.476 11.4118 228.993 8.93957 224.998 7.99999C221.188 7.10815 217.547 7.55259 214.075 9.33332C210.955 11.5319 209.217 14.5597 208.862 18.4167C208.517 21.6055 208.848 24.7165 209.855 27.75C211.586 31.8247 214.647 34.1303 219.04 34.6667C222.769 35.1608 226.188 34.383 229.301 32.3333C231.09 30.785 232.194 28.8405 232.611 26.5C235.093 26.4167 237.576 26.3888 240.058 26.4167C237.861 36.5162 231.6 41.5717 221.274 41.5833C215.079 41.6907 209.893 39.4685 205.717 34.9167C202.788 30.9527 201.381 26.4805 201.497 21.5C201.398 16.2003 202.914 11.4503 206.048 7.24999C209.477 3.50912 213.698 1.34245 218.709 0.749985Z" fill="white"/>
<path fill-rule="evenodd" clip-rule="evenodd" d="M73.0684 1.41666C75.4405 1.41666 77.8127 1.41666 80.1849 1.41666C80.1849 14.5833 80.1849 27.75 80.1849 40.9167C77.8127 40.9167 75.4405 40.9167 73.0684 40.9167C73.0684 27.75 73.0684 14.5833 73.0684 1.41666Z" fill="white"/>
<path fill-rule="evenodd" clip-rule="evenodd" d="M244.029 1.41666C246.346 1.41666 248.663 1.41666 250.98 1.41666C250.98 14.5833 250.98 27.75 250.98 40.9167C248.663 40.9167 246.346 40.9167 244.029 40.9167C244.029 27.75 244.029 14.5833 244.029 1.41666Z" fill="white"/>
<path fill-rule="evenodd" clip-rule="evenodd" d="M286.398 1.41666C288.881 1.41666 291.363 1.41666 293.846 1.41666C293.818 6.97249 293.846 12.528 293.929 18.0833C296.446 13.1629 300.446 11.1907 305.927 12.1667C310.581 13.0193 313.478 15.7693 314.616 20.4167C315.462 24.2277 315.573 28.061 314.947 31.9167C313.805 38.3448 309.999 41.5672 303.528 41.5833C299.183 41.6192 295.983 39.7303 293.929 35.9167C293.49 37.5197 293.076 39.1308 292.687 40.75C290.594 40.9165 288.497 40.972 286.398 40.9167C286.398 27.75 286.398 14.5833 286.398 1.41666ZM299.307 18.5833C305.302 18.0637 308.281 20.8415 308.244 26.9167C308.142 33.9383 304.721 36.5772 297.983 34.8333C296.198 33.937 295.013 32.5203 294.425 30.5833C293.791 27.7728 293.902 24.995 294.756 22.25C295.714 20.3108 297.232 19.0887 299.307 18.5833Z" fill="white"/>
<path fill-rule="evenodd" clip-rule="evenodd" d="M51.7188 12.0833C63.6658 11.3645 69.3204 17.0312 68.6826 29.0833C68.2064 34.86 65.3102 38.7767 59.9938 40.8333C55.9323 41.9198 51.9052 41.8087 47.9123 40.5C43.1837 38.3453 40.5633 34.6508 40.0511 29.4167C39.5148 25.4163 40.1768 21.6385 42.0371 18.0833C44.3347 14.5784 47.562 12.5784 51.7188 12.0833ZM52.7118 17.75C54.9648 17.4393 57.061 17.856 59.0008 19C59.9137 19.8108 60.6034 20.783 61.0696 21.9167C62.0626 25.0278 62.0626 28.1388 61.0696 31.25C59.8283 34.2237 57.5941 35.6127 54.3668 35.4167C50.8645 35.5255 48.5751 33.9143 47.4986 30.5833C46.5398 27.142 46.8155 23.8087 48.3261 20.5833C49.3854 18.9855 50.8473 18.0412 52.7118 17.75Z" fill="white"/>
<path fill-rule="evenodd" clip-rule="evenodd" d="M81.6742 12.0833C84.0318 12.0294 86.3764 12.085 88.708 12.25C91.3234 19.7627 93.9714 27.2627 96.652 34.75C99.1345 27.25 101.617 19.75 104.099 12.25C106.486 12.0849 108.886 12.0294 111.299 12.0833C111.326 12.5864 111.298 13.0864 111.216 13.5833C107.989 22.6388 104.761 31.6945 101.534 40.75C98.1691 40.9722 94.8039 40.9722 91.4387 40.75C88.1953 31.7008 84.968 22.6452 81.757 13.5833C81.6746 13.0864 81.6469 12.5864 81.6742 12.0833Z" fill="white"/>
<path fill-rule="evenodd" clip-rule="evenodd" d="M114.939 12.0833C117.367 12.0833 119.794 12.0833 122.221 12.0833C122.221 21.6945 122.221 31.3055 122.221 40.9167C119.794 40.9167 117.367 40.9167 114.939 40.9167C114.939 31.3055 114.939 21.6945 114.939 12.0833Z" fill="white"/>
<path fill-rule="evenodd" clip-rule="evenodd" d="M126.525 12.0833C128.622 12.0833 130.718 12.0833 132.814 12.0833C133.119 14.1463 133.478 16.2019 133.89 18.25C135.252 14.8783 137.707 12.8505 141.255 12.1667C148.592 11.1782 152.702 14.3727 153.585 21.75C153.817 28.1358 153.9 34.5247 153.833 40.9167C151.461 40.9167 149.089 40.9167 146.716 40.9167C146.744 35.6387 146.716 30.3608 146.634 25.0833C146.394 19.841 143.718 17.7022 138.607 18.6667C136.395 19.415 134.989 20.9428 134.387 23.25C134.241 23.7982 134.13 24.3538 134.056 24.9167C133.973 30.2497 133.945 35.583 133.973 40.9167C131.49 40.9167 129.008 40.9167 126.525 40.9167C126.525 31.3055 126.525 21.6945 126.525 12.0833Z" fill="white"/>
<path fill-rule="evenodd" clip-rule="evenodd" d="M166.079 12.0833C169.503 11.536 172.591 12.286 175.347 14.3333C176.373 15.3694 177.172 16.5639 177.747 17.9167C177.829 15.973 177.858 14.0286 177.829 12.0833C180.367 12.0833 182.905 12.0833 185.442 12.0833C185.471 22.9168 185.442 33.7502 185.36 44.5833C185.434 47.5853 184.413 50.113 182.298 52.1667C180.671 53.1322 178.905 53.6322 177.002 53.6667C173.141 53.75 169.28 53.7778 165.417 53.75C165.417 51.4167 165.417 49.0833 165.417 46.75C169.609 46.75 173.803 46.75 177.995 46.75C178.023 43.1385 177.995 39.5273 177.912 35.9167C175.38 40.2888 171.602 42.1498 166.575 41.5C162.121 41.015 159.115 38.654 157.556 34.4167C156.125 29.362 156.125 24.3065 157.556 19.25C159.073 15.2486 161.914 12.8597 166.079 12.0833ZM169.058 18.5833C171.166 18.316 173.152 18.6772 175.016 19.6667C176.403 20.82 177.259 22.2922 177.581 24.0833C178.026 26.573 177.861 29.0175 177.085 31.4167C175.445 34.6455 172.823 35.951 169.223 35.3333C166.261 34.9058 164.468 33.2113 163.845 30.25C163.036 26.8942 163.477 23.7275 165.169 20.75C166.226 19.565 167.524 18.8428 169.058 18.5833Z" fill="white"/>
<path fill-rule="evenodd" clip-rule="evenodd" d="M255.118 12.0833C257.489 12.0833 259.862 12.0833 262.234 12.0833C262.206 17.8058 262.234 23.528 262.317 29.25C262.866 33.8498 265.432 35.7665 270.013 35C272.229 34.4907 273.635 33.1295 274.233 30.9167C274.463 30.0398 274.628 29.151 274.729 28.25C274.812 22.8613 274.84 17.4725 274.812 12.0833C277.295 12.0833 279.777 12.0833 282.26 12.0833C282.26 21.6945 282.26 31.3055 282.26 40.9167C280.217 40.9445 278.177 40.9167 276.136 40.8333C275.711 39.0923 275.297 37.3423 274.895 35.5833C272.611 40.2475 268.887 42.2197 263.724 41.5C260.157 41.1085 257.701 39.2475 256.359 35.9167C255.859 34.5123 255.528 33.0678 255.366 31.5833C255.131 25.0865 255.048 18.5865 255.118 12.0833Z" fill="white"/>
<path fill-rule="evenodd" clip-rule="evenodd" d="M321.649 32.25C326.129 31.7897 327.921 33.7897 327.028 38.25C326.419 40.1703 325.095 41.0593 323.056 40.9167C320.138 40.9232 318.731 39.4508 318.835 36.5C318.65 34.2827 319.587 32.866 321.649 32.25Z" fill="#F93D31"/>
</svg>
