<?xml version="1.0" standalone="no"?>
<!DOCTYPE svg PUBLIC "-//W3C//DTD SVG 1.1//EN" "http://www.w3.org/Graphics/SVG/1.1/DTD/svg11.dtd" >
<svg xmlns="http://www.w3.org/2000/svg" xmlns:xlink="http://www.w3.org/1999/xlink" version="1.1">
<metadata>
Created by FontForge 20230101 at Fri May  1 19:19:20 2020
 By Unknown
Copyright (c) 2020 by Giang Nguyen &#38; Behalf Studio. All rights reserved.
</metadata>
<defs>
<font id="Barber-Complete" horiz-adv-x="1670" >
  <font-face 
    font-family="Barber Complete"
    font-weight="700"
    font-stretch="normal"
    units-per-em="2000"
    panose-1="0 0 8 0 0 0 0 0 0 0"
    ascent="1500"
    descent="-500"
    cap-height="1180"
    bbox="-1376 -510 2866 1873"
    underline-thickness="50"
    underline-position="-100"
    unicode-range="U+0020-2260"
  />
<missing-glyph horiz-adv-x="1360" 
d="M1120 1180l150 -120v-1220h-880l-150 120v1220h880zM250 1170v-1200h860v1200h-860zM280 0v1140h800v-1140h-800zM408 1012v-884h544v884h-544zM438 158v824h484v-824h-484zM448 972v-804h464v804h-464zM805 454l34 -34l-180 -180l-34 34zM735 244l100 100l34 -34
l-100 -100z" />
    <glyph glyph-name=".notdef" horiz-adv-x="1360" 
d="M1120 1180l150 -120v-1220h-880l-150 120v1220h880zM250 1170v-1200h860v1200h-860zM280 0v1140h800v-1140h-800zM408 1012v-884h544v884h-544zM438 158v824h484v-824h-484zM448 972v-804h464v804h-464zM805 454l34 -34l-180 -180l-34 34zM735 244l100 100l34 -34
l-100 -100z" />
    <glyph glyph-name=".null" horiz-adv-x="0" 
 />
    <glyph glyph-name="nonmarkingreturn" horiz-adv-x="666" 
 />
    <glyph glyph-name="space" unicode=" " horiz-adv-x="700" 
 />
    <glyph glyph-name="exclam" unicode="!" horiz-adv-x="900" 
d="M953 1060l-207 -723l122 -97v-400h-536l-150 120v400h188l-50 40l-223 780h706zM110 1170l218 -760h244l218 760h-680zM550 440h-200l-200 700h600zM192 350v-380h516v380h-516zM222 0v320h456v-320h-456z" />
    <glyph glyph-name="quotedbl" unicode="&#x22;" horiz-adv-x="1380" 
d="M1292 1180l150 -120l-161 -596h-262l-150 120l-88 325l-120 -445h-262l-150 120l-161 596h584l46 -37l-10 37h584zM101 1170l156 -576h246l156 576h-558zM721 1170l156 -576h246l156 576h-558zM480 624h-200l-140 516h480zM1100 624h-200l-140 516h480z" />
    <glyph glyph-name="numbersign" unicode="#" horiz-adv-x="1525" 
d="M1515 530h-295l-9 -40h117l150 -120v-208h-335l-67 -322h-212l-134 107l-22 -107h-212l-150 120l42 202h-78l-150 120v208h296l9 40h-118l-150 120v208h336l67 322h212l134 -107l22 107h212l150 -120l-42 -202h77l150 -120v-208zM1318 480h-294l38 180h293v188h-254
l67 322h-192l-67 -322h-176l67 322h-192l-67 -322h-334v-188h295l-38 -180h-294v-188h255l-67 -322h192l67 322h176l-67 -322h192l67 322h333v188zM1037 690l-50 -240h301v-128h-328l-67 -322h-130l67 322h-238l-67 -322h-130l67 322h-262v128h289l50 240h-302v128h329
l67 322h130l-67 -322h238l67 322h130l-67 -322h261v-128h-288zM619 450h238l50 240h-238zM694 660h176l-38 -180h-176z" />
    <glyph glyph-name="dollar" unicode="$" horiz-adv-x="1721" 
d="M1720 804v-57l-252 -88l136 -109q116 -92 116 -248v-206q0 -102 -72 -174q-84 -82 -217 -82h-317v-150h-208l-150 120v30h-165q-119 0 -199 64l-150 120q-92 74 -92 192v57l252 88l-134 107q-118 95 -118 250v206q0 111 82 183.5t207 72.5h317v150h208l150 -120v-30h165
q115 0 196 -62l150 -120q95 -77 95 -194zM160 216q0 -106 79.5 -176t201.5 -70h325v-150h188v150h327q121 0 200 70t79 176v206q0 137 -96.5 226.5t-244.5 89.5h-48l389 136v50q0 106 -79.5 176t-201.5 70h-325v150h-188v-150h-327q-121 0 -200 -70t-79 -176v-206
q0 -137 96.5 -226.5t244.5 -89.5h48l-389 -136v-50zM796 0h-355q-109 0 -180 61t-71 155v30l446 156v-64q0 -34 23.5 -53t67.5 -19h265q44 0 67.5 19t23.5 53v22q0 34 -23.5 53t-67.5 19h-491q-135 0 -223 81t-88 205v206q0 94 70 155t179 61h357v150h128v-150h355
q109 0 180 -61t71 -155v-30l-446 -156v64q0 34 -23.5 53t-67.5 19h-265q-44 0 -67.5 -19t-23.5 -53v-22q0 -34 23.5 -53t67.5 -19h491q135 0 223 -81t88 -205v-206q0 -94 -70.5 -155t-178.5 -61h-357v-150h-128v150zM728 844h265q61 0 61 -42v-64h-326q-61 0 -61 42v22
q0 42 61 42zM992 296h-265q-61 0 -61 42v64h326q61 0 61 -42v-22q0 -42 -61 -42z" />
    <glyph glyph-name="percent" unicode="%" horiz-adv-x="1980" 
d="M1975 446q65 -52 65 -144v-274q0 -88 -60 -140q-54 -48 -147 -48h-343q-87 0 -142 44l-150 120q-63 50 -63 144v115l-316 -423h-259l-150 120l337 452h-302q-87 0 -142 44l-150 120q-63 52 -63 144v274q0 87 55.5 137.5t149.5 50.5h343q89 0 142 -43l150 -120
q65 -52 65 -145v-131l327 437h259l150 -120l-336 -450h288q87 0 142 -44zM100 720q0 -82 52.5 -130t142.5 -48h343q91 0 144 48t53 130v274q0 82 -53 130t-144 48h-343q-90 0 -142.5 -48t-52.5 -130v-274zM1327 1170l-897 -1200h234l897 1200h-234zM638 572h-343
q-78 0 -121.5 39t-43.5 109v274q0 70 43.5 109t121.5 39h343q79 0 123 -39t44 -109v-274q0 -70 -44 -109t-123 -39zM1342 1140h159l-852 -1140h-159zM373 911v-109q0 -21 14 -33.5t37 -12.5h85q24 0 38 12.5t14 33.5v109q0 22 -14 35t-38 13h-85q-23 0 -37 -13t-14 -35z
M424 786q-21 0 -21 16v109q0 18 21 18h85q22 0 22 -18v-109q0 -16 -22 -16h-85zM1145 148q0 -82 52.5 -130t142.5 -48h343q91 0 144 48t53 130v274q0 82 -53 130t-144 48h-343q-90 0 -142.5 -48t-52.5 -130v-274zM1683 0h-343q-78 0 -121.5 39t-43.5 109v274q0 70 43.5 109
t121.5 39h343q79 0 123 -39t44 -109v-274q0 -70 -44 -109t-123 -39zM1418 339v-109q0 -21 14 -34t37 -13h85q24 0 38.5 13t14.5 34v109q0 22 -14.5 35t-38.5 13h-85q-23 0 -37 -13t-14 -35zM1469 214q-21 0 -21 16v109q0 18 21 18h85q22 0 22 -18v-109q0 -16 -22 -16h-85z
" />
    <glyph glyph-name="ampersand" unicode="&#x26;" horiz-adv-x="1660" 
d="M1580 710l150 -120v-280h-190v-214q0 -114 -87 -187q-82 -69 -204 -69h-638q-140 0 -234 77l-150 120q-117 96 -117 249v46q0 177 141 255q-81 73 -81 191v76q0 141 99.5 233.5t251.5 92.5h578q146 0 229 -93q-14 16 -28 27l150 -120q90 -74 90 -190v-94h40zM120 286
q0 -137 96.5 -226.5t244.5 -89.5h638q122 0 201.5 70t79.5 176v224h190v260h-576l386 135v89q0 106 -79.5 176t-201.5 70h-578q-148 0 -244.5 -89.5t-96.5 -226.5v-76q0 -121 89 -193q-149 -73 -149 -253v-46zM1099 0h-638q-135 0 -223 81t-88 205v46q0 190 185 247
q-125 61 -125 199v76q0 124 88 205t223 81h578q109 0 180 -61t71 -155v-68l-446 -156v82q0 34 -23.5 53t-67.5 19h-96q-44 0 -67.5 -19t-23.5 -53v-40q0 -34 23.5 -53t67.5 -19h823v-200h-190v-254q0 -94 -71 -155t-180 -61zM1373 1016zM1390 930q-1 45 -17 85
q16 -40 17 -85zM1390 929v1v-1zM1390 928v1v-1zM1390 928zM1390 927zM1390 926zM1390 925zM717 824h96q61 0 61 -42v-82h-157q-61 0 -61 42v40q0 42 61 42zM596 398v-40q0 -34 23.5 -53t67.5 -19h126q44 0 67.5 19t23.5 53v112h-217q-44 0 -67.5 -19t-23.5 -53zM687 316
q-61 0 -61 42v40q0 42 61 42h187v-82q0 -42 -61 -42h-126z" />
    <glyph glyph-name="quotesingle" unicode="'" horiz-adv-x="760" 
d="M672 1180l150 -120l-161 -596h-262l-150 120l-161 596h584zM101 1170l156 -576h246l156 576h-558zM480 624h-200l-140 516h480z" />
    <glyph glyph-name="parenleft" unicode="(" horiz-adv-x="698" 
d="M630 1153q-62 -63 -62 -206v-994q0 -80 19 -133q20 -2 31 -2h40l150 -120v-208h-40q-163 0 -265 81l-150 120q-143 117 -143 382v994q0 225 104.5 344t303.5 119h40l150 -120v-208h-40q-90 0 -138 -49zM618 -192q-210 0 -210 265v994q0 265 210 265h30v188h-30
q-194 0 -296 -116t-102 -337v-994q0 -221 102 -337t296 -116h30v188h-30zM378 73q0 -146 61 -220.5t179 -74.5v-128q-181 0 -274.5 107t-93.5 316v994q0 209 93.5 316t274.5 107v-128q-118 0 -179 -74.5t-61 -220.5v-994z" />
    <glyph glyph-name="parenright" unicode=")" horiz-adv-x="698" 
d="M494 1329q144 -115 144 -382v-994q0 -246 -124 -364q-104 -99 -284 -99h-40l-150 120v208h40q200 0 200 255v994q0 80 -19 133q-20 2 -31 2h-40l-150 120v208h40q163 0 264 -81zM50 -192v-188h30q194 0 296 116t102 337v994q0 221 -102 337t-296 116h-30v-188h30
q210 0 210 -265v-994q0 -265 -210 -265h-30zM448 73q0 -209 -93.5 -316t-274.5 -107v128q118 0 179 74.5t61 220.5v994q0 146 -61 220.5t-179 74.5v128q181 0 274.5 -107t93.5 -316v-994z" />
    <glyph glyph-name="asterisk" unicode="*" horiz-adv-x="780" 
d="M825 846l-96 -55l96 -77l-85 -148l-115 66v-132h-170l-96 77l-19 -11l-150 120l-85 148l96 55l-96 77l85 148l115 -66v132h170l96 -77l19 11l150 -120zM119 830l75 -130l121 70v-140h150v140l121 -70l75 130l-121 70l121 70l-75 130l-121 -70v140h-150v-140l-121 70
l-75 -130l121 -70zM345 822l-140 -81l-45 78l140 81l-140 81l45 78l140 -81v162h90v-162l140 81l45 -78l-140 -81l140 -81l-45 -78l-140 81v-162h-90v162z" />
    <glyph glyph-name="plus" unicode="+" horiz-adv-x="1120" 
d="M1000 674l150 -120v-208h-336v-336h-208l-150 120v216h-186l-150 120v208h336v336h208l150 -120v-216h186zM130 664v-188h336v-336h188v336h336v188h-336v336h-188v-336h-336zM496 170v336h-336v128h336v336h128v-336h336v-128h-336v-336h-128z" />
    <glyph glyph-name="comma" unicode="," horiz-adv-x="776" 
d="M656 360l150 -120v-389l-536 -183l-150 120v572h536zM130 350v-548l516 176v372h-516zM160 -156v476h456v-320z" />
    <glyph glyph-name="hyphen" unicode="-" horiz-adv-x="760" 
d="M640 648l150 -120v-208h-520l-150 120v208h520zM130 638v-188h500v188h-500zM160 480v128h440v-128h-440z" />
    <glyph glyph-name="period" unicode="." horiz-adv-x="776" 
d="M646 360l150 -120v-400h-536l-150 120v400h536zM120 350v-380h516v380h-516zM150 0v320h456v-320h-456z" />
    <glyph glyph-name="slash" unicode="/" horiz-adv-x="714" 
d="M693 1396l150 -120l-472 -1707l-200 55l-150 120l473 1707zM501 1439l-468 -1688l181 -50l467 1688zM522 1402l122 -34l-451 -1630l-123 34z" />
    <glyph glyph-name="zero" unicode="0" horiz-adv-x="1780" 
d="M1633 983q117 -95 117 -249v-568q0 -126 -82 -216q-102 -110 -269 -110h-718q-140 0 -236 79l-150 120q-115 94 -115 247v568q0 141 99.5 233.5t251.5 92.5h718q136 0 234 -77zM190 286q0 -137 96.5 -226.5t244.5 -89.5h718q148 0 244.5 89.5t96.5 226.5v568
q0 137 -96.5 226.5t-244.5 89.5h-718q-148 0 -244.5 -89.5t-96.5 -226.5v-568zM1249 0h-718q-135 0 -223 81t-88 205v568q0 124 88 205t223 81h718q135 0 223 -81t88 -205v-568q0 -124 -88 -205t-223 -81zM666 738v-338q0 -37 26 -60.5t67 -23.5h260q41 0 68 23.5t27 60.5
v338q0 37 -27 61.5t-68 24.5h-260q-41 0 -67 -24.5t-26 -61.5zM759 346q-28 0 -45.5 15t-17.5 39v338q0 25 17.5 40.5t45.5 15.5h260q29 0 47 -15.5t18 -40.5v-338q0 -24 -18 -39t-47 -15h-260zM1074 400v264h-165q-25 0 -38 -12q-15 -13 -15 -34v-262h163q25 0 40 12t15 32
z" />
    <glyph glyph-name="one" unicode="1" horiz-adv-x="1080" 
d="M870 1180l150 -120v-1220h-536l-150 120v700h-84l-150 120v400h770zM110 1170v-380h234v-820h516v1200h-750zM374 0v820h-234v320h690v-1140h-456z" />
    <glyph glyph-name="two" unicode="2" 
d="M1618 465q-57 -74 -164 -125h76l150 -120v-380h-1390l-150 120v242q0 131 71 230t196 141l48 16l-165 58l-150 120v157q0 111 83 183.5t208 72.5h810q119 0 197 -64l150 -120q92 -74 92 -192v-164q0 -98 -62 -175zM1520 330h-607l315 109q141 49 216.5 132.5t75.5 188.5
v164q0 106 -79 176t-200 70h-810q-122 0 -201.5 -70t-79.5 -176v-150l431 -151l-171 -59q-121 -42 -190.5 -138.5t-69.5 -223.5v-232h1370v360zM1218 468l-486 -168h758v-300h-1310v202q0 116 62.5 204.5t177.5 128.5l563 195q23 8 37 24.5t14 32.5v15q0 34 -23.5 53
t-67.5 19h-226q-44 0 -67.5 -19t-23.5 -53v-163l-446 156v129q0 94 71 155t180 61h810q109 0 179 -61t70 -155v-164q0 -95 -70.5 -170.5t-201.5 -121.5zM1004 787q0 -19 -31 -29l-317 -109v153q0 42 61 42h226q61 0 61 -42v-15z" />
    <glyph glyph-name="three" unicode="3" horiz-adv-x="1600" 
d="M1517 456q123 -79 123 -244v-46q0 -127 -82 -215q-103 -111 -269 -111h-778q-118 0 -200 65l-150 120q-91 73 -91 191v137l526 184l78 -62v103l-454 159l-150 120v67q0 111 83 183.5t208 72.5l758 -1q135 0 228 -76l150 -120q113 -92 113 -250v-75q0 -130 -93 -202z
M80 216q0 -106 79.5 -176t201.5 -70h778q148 0 244.5 89.5t96.5 226.5v46q0 168 -131 243q101 68 101 203v75q0 139 -93 227.5t-238 88.5l-758 1q-122 0 -201.5 -70t-79.5 -176v-60l506 -177v95q0 42 61 42h236q61 0 61 -42v-30q0 -42 -61 -42h-199v-280h229q61 0 61 -42
v-30q0 -42 -61 -42h-266q-61 0 -61 42v165l-506 -177v-130zM1139 0h-778q-109 0 -180 61t-71 155v109l446 156v-123q0 -34 23.5 -53t67.5 -19h266q44 0 67.5 19t23.5 53v30q0 34 -23.5 53t-67.5 19h-199v220h169q44 0 67.5 19t23.5 53v30q0 34 -23.5 53t-67.5 19h-236
q-44 0 -67.5 -19t-23.5 -53v-53l-446 156v39q0 94 71 155t180 61l758 -1q134 0 217.5 -80.5t83.5 -205.5v-75q0 -148 -139 -204q169 -60 169 -242v-46q0 -124 -88 -205t-223 -81z" />
    <glyph glyph-name="four" unicode="4" horiz-adv-x="1710" 
d="M1600 694l150 -120v-400h-228v-334h-536l-150 120v214h-536l-150 120v886h536l150 -120h536l188 -120v-246h40zM160 1170v-866h686v-334h516v334h228v380h-228v366h-516v-366h-170v486h-516zM876 0v334h-686v806h456v-486h230v366h456v-366h228v-320h-228v-334h-456z" />
    <glyph glyph-name="five" unicode="5" horiz-adv-x="1740" 
d="M1659 548q91 -73 91 -191v-261q0 -102 -72 -174q-84 -82 -217 -82h-840q-118 0 -200 65l-150 120q-91 73 -91 191v64l103 36l-103 82v782h1370l150 -120v-365h-233q23 -12 42 -27zM190 216q0 -106 79.5 -176t201.5 -70h840q121 0 200 70t79 176v261q0 106 -79.5 176
t-201.5 70h-612v102h843v345h-1350v-762h386l-386 -135v-57zM1311 0h-840q-109 0 -180 61t-71 155v36l446 156v-71q0 -34 23.5 -53t67.5 -19h265q44 0 67.5 19t23.5 53v29q0 34 -23.5 53t-67.5 19h-802v702h1290v-285h-843v-162h642q109 0 180 -61t71 -155v-261
q0 -94 -70.5 -155t-178.5 -61zM1022 295h-265q-61 0 -61 42v71h326q61 0 61 -42v-29q0 -42 -61 -42z" />
    <glyph glyph-name="six" unicode="6" horiz-adv-x="1750" 
d="M1750 804v-45l-222 -78l130 -104q92 -74 92 -191v-290q0 -102 -72 -174q-84 -82 -217 -82h-840q-119 0 -199 64l-150 120q-92 74 -92 192v708q0 111 82.5 183.5t206.5 72.5h840q115 0 196 -62l150 -120q95 -77 95 -194zM190 216q0 -106 79.5 -176t201.5 -70h840
q121 0 200 70t79 176v290q0 106 -79 175.5t-200 69.5h-107l386 135v38q0 106 -79.5 176t-201.5 70h-840q-121 0 -200 -70t-79 -176v-708zM1311 0h-840q-109 0 -180 61t-71 155v708q0 94 70.5 155t178.5 61h840q109 0 180 -61t71 -155v-17l-446 -156v51q0 34 -23.5 53
t-67.5 19h-265q-44 0 -67.5 -19t-23.5 -53v-109q54 28 132 28h512q108 0 178.5 -60.5t70.5 -154.5v-290q0 -94 -70.5 -155t-178.5 -61zM758 844h265q61 0 61 -42v-51h-285q-55 0 -102 -14v65q0 42 61 42zM758 455q-44 0 -67.5 -19t-23.5 -53v-45q0 -34 23.5 -53t67.5 -19
h264q44 0 67.5 19t23.5 53v45q0 34 -23.5 53t-67.5 19h-264zM758 296q-61 0 -61 42v45q0 42 61 42h264q61 0 61 -42v-45q0 -42 -61 -42h-264z" />
    <glyph glyph-name="seven" unicode="7" horiz-adv-x="1545" 
d="M1465 1180l150 -120v-461l-357 -382q-21 -23 -34.5 -57.5t-13.5 -64.5v-255h-563l-150 120v245q0 91 34.5 177t98.5 153h-420l-150 120v525h1405zM507 205v-235h543v245q0 32 14 68t37 61l354 379v447h-1385v-505h490v155h368l-284 -285q-65 -66 -101 -152.5t-36 -177.5z
M1425 735l-346 -371q-26 -28 -42.5 -70t-16.5 -79v-215h-483v205q0 179 128 309l335 336h-470v-155h-430v445h1325v-405zM720 690v-65l65 65h-65z" />
    <glyph glyph-name="eight" unicode="8" horiz-adv-x="1660" 
d="M1559 467q141 -78 141 -255v-46q0 -126 -82 -216q-102 -110 -269 -110h-738q-136 0 -234 77l-150 120q-117 96 -117 249v46q0 177 141 255q-81 73 -81 191v76q0 141 99.5 233.5t251.5 92.5h618q140 0 234 -77l150 -120q117 -95 117 -249v-76q0 -118 -81 -191zM120 286
q0 -137 96.5 -226.5t244.5 -89.5h738q148 0 244.5 89.5t96.5 226.5v46q0 180 -149 253q89 72 89 193v76q0 137 -96.5 226.5t-244.5 89.5h-618q-148 0 -244.5 -89.5t-96.5 -226.5v-76q0 -121 89 -193q-149 -73 -149 -253v-46zM1199 0h-738q-135 0 -223 81t-88 205v46
q0 190 185 247q-125 61 -125 199v76q0 124 88 205t223 81h618q135 0 223 -81t88 -205v-76q0 -138 -125 -199q185 -57 185 -247v-46q0 -124 -88 -205t-223 -81zM656 788v-16q0 -34 23.5 -53t67.5 -19h166q44 0 67.5 19t23.5 53v16q0 34 -23.5 53t-67.5 19h-166
q-44 0 -67.5 -19t-23.5 -53zM747 730q-61 0 -61 42v16q0 42 61 42h166q61 0 61 -42v-16q0 -42 -61 -42h-166zM596 368v-16q0 -34 23.5 -53t67.5 -19h286q44 0 67.5 19t23.5 53v16q0 34 -23.5 53t-67.5 19h-286q-44 0 -67.5 -19t-23.5 -53zM687 310q-61 0 -61 42v16
q0 42 61 42h286q61 0 61 -42v-16q0 -42 -61 -42h-286z" />
    <glyph glyph-name="nine" unicode="9" horiz-adv-x="1750" 
d="M1627 996q93 -74 93 -192v-708q0 -102 -72 -174q-84 -82 -217 -82h-840q-118 0 -200 65l-150 120q-91 75 -91 191v45l222 78l-128 102q-94 75 -94 193v290q0 111 82.5 183.5t206.5 72.5h840q116 0 198 -64zM160 216q0 -106 79.5 -176t201.5 -70h840q121 0 200 70t79 176
v708q0 106 -79.5 176t-201.5 70h-840q-121 0 -200 -70t-79 -176v-290q0 -106 79 -175.5t200 -69.5h107l-386 -135v-38zM1281 0h-840q-109 0 -180 61t-71 155v17l446 156v-51q0 -34 23.5 -53t67.5 -19h265q44 0 67.5 19t23.5 53v109q-54 -28 -132 -28h-512
q-108 0 -178.5 60.5t-70.5 154.5v290q0 94 70.5 155t178.5 61h840q109 0 180 -61t71 -155v-708q0 -94 -70.5 -155t-178.5 -61zM992 685q44 0 67.5 19t23.5 53v45q0 34 -23.5 53t-67.5 19h-264q-44 0 -67.5 -19t-23.5 -53v-45q0 -34 23.5 -53t67.5 -19h264zM992 844
q61 0 61 -42v-45q0 -42 -61 -42h-264q-61 0 -61 42v45q0 42 61 42h264zM992 296h-265q-61 0 -61 42v51h285q55 0 102 14v-65q0 -42 -61 -42z" />
    <glyph glyph-name="colon" unicode=":" horiz-adv-x="776" 
d="M656 920l150 -120v-400h-536l-150 120v400h536zM130 910v-380h516v380h-516zM160 560v320h456v-320h-456zM120 360h536l150 -120v-400h-536l-150 120v400zM130 350v-380h516v380h-516zM160 0v320h456v-320h-456z" />
    <glyph glyph-name="semicolon" unicode=";" horiz-adv-x="776" 
d="M796 400h-536l-150 120v400h536l150 -120v-400zM120 910v-380h516v380h-516zM150 560v320h456v-320h-456zM656 360l150 -120v-389l-536 -183l-150 120v572h536zM130 350v-548l516 176v372h-516zM160 -156v476h456v-320z" />
    <glyph glyph-name="less" unicode="&#x3c;" horiz-adv-x="850" 
d="M860 850v-237l-288 -161l138 -77l150 -120v-237l-590 330l-150 120v172l590 330zM700 369l-331 185l331 185v214l-570 -319v-160l570 -319v214zM670 756l-362 -202l362 -202v-146l-510 285v126l510 285v-146z" />
    <glyph glyph-name="equal" unicode="=" horiz-adv-x="1240" 
d="M1250 708v-208h-125l125 -100v-208h-960l-150 120v208h125l-125 100v208h960zM150 818v-188h940v188h-940zM180 660v128h880v-128h-880zM150 510v-188h940v188h-940zM180 352v128h880v-128h-880z" />
    <glyph glyph-name="greater" unicode="&#x3e;" horiz-adv-x="850" 
d="M730 640l150 -120v-172l-590 -330l-150 120v237l288 161l-138 77l-150 120v237zM150 369v-214l570 319v160l-570 319v-214l331 -185zM180 756v146l510 -285v-126l-510 -285v146l362 202z" />
    <glyph glyph-name="question" unicode="?" horiz-adv-x="1380" 
d="M1356 998q94 -75 94 -194v-198q0 -147 -107 -240q-99 -86 -244 -86h-51l50 -40v-400h-536l-150 120v400h50l-50 40v266l-202 71l-150 120v67q0 111 83 183.5t208 72.5h660q114 0 195 -62zM70 924v-60l352 -123v-331h527q148 0 244.5 89.5t96.5 226.5v198q0 106 -79 176
t-200 70h-660q-122 0 -201.5 -70t-79.5 -176zM546 792v-63l-446 156v39q0 94 71 155t180 61h660q109 0 179 -61t70 -155v-198q0 -124 -88 -205t-223 -81h-497v258h270q44 0 67.5 19t23.5 53v22q0 34 -23.5 53t-67.5 19h-85q-44 0 -67.5 -19t-23.5 -53zM783 770
q0 -42 -61 -42h-146v64q0 42 61 42h85q61 0 61 -42v-22zM422 350v-380h516v380h-516zM452 0v320h456v-320h-456z" />
    <glyph glyph-name="at" unicode="@" horiz-adv-x="2264" 
d="M1990 10l-150 120v846q0 56 -24 106q-48 14 -102 14h-870q-121 0 -197 -64q-79 -66 -79 -176v-812q0 -58 23 -106q48 -14 103 -14h1354l150 -120v-208h-1354q-190 0 -323 106l-150 120q-77 62 -119 150t-42 192v812q0 194 137.5 321t346.5 127h870q190 0 323 -106
l150 -120q76 -61 118.5 -149t42.5 -193v-846h-208zM1564 1226q128 0 207 -69t79 -181v-836h188v836q0 190 -134.5 314t-339.5 124h-870q-205 0 -339.5 -124t-134.5 -314v-812q0 -190 134.5 -314t339.5 -124h1344v188h-1344q-128 0 -207 69t-79 181v812q0 112 79 181t207 69
h870zM1880 170v806q0 123 -88 201.5t-228 78.5h-870q-140 0 -228 -78.5t-88 -201.5v-812q0 -123 88 -201.5t228 -78.5h1314v-128h-1314q-193 0 -318.5 115t-125.5 293v812q0 178 125.5 293t318.5 115h870q193 0 318.5 -115t125.5 -293v-806h-128zM1271 1010h363l150 -120
v-880h-226l-83 66q-93 -66 -224 -66h-229q-102 0 -170 54l-150 120q-78 62 -78 169v434q0 99 69 161t179 62h229q95 0 170 -35v35zM634 353q0 -95 66 -154t172 -59h229q147 0 239 81l72 -81h212v860h-343v-41q-77 41 -180 41h-229q-106 0 -172 -59t-66 -154v-434zM1101 170
h-229q-94 0 -151 50.5t-57 132.5v434q0 82 57 132.5t151 50.5h229q127 0 210 -66v66h283v-800h-168l-85 94q-85 -94 -240 -94zM988 663v-186q0 -28 18.5 -45.5t49.5 -17.5h148q32 0 51 17.5t19 45.5v186q0 28 -19 45.5t-51 17.5h-148q-31 0 -49.5 -17.5t-18.5 -45.5z
M1056 444q-38 0 -38 33v186q0 33 38 33h148q40 0 40 -33v-186q0 -33 -40 -33h-148zM1234 477v89h-28q-14 0 -21 -6t-7 -17v-89h26q30 0 30 23z" />
    <glyph glyph-name="A" unicode="A" 
d="M1340 1060l479 -1220h-536l-150 120l-25 70h-313l-68 -190h-536l-150 120l479 1220h670zM1072 160l68 -190h514l-471 1200h-656l-471 -1200h514l68 190h434zM1161 0l-68 190h-476l-68 -190h-449l447 1140h616l447 -1140h-449zM716 470h277l-139 388zM759 500l95 268
l96 -268h-191z" />
    <glyph glyph-name="A" unicode="a" 
d="M1340 1060l479 -1220h-536l-150 120l-25 70h-313l-68 -190h-536l-150 120l479 1220h670zM1072 160l68 -190h514l-471 1200h-656l-471 -1200h514l68 190h434zM1161 0l-68 190h-476l-68 -190h-449l447 1140h616l447 -1140h-449zM716 470h277l-139 388zM759 500l95 268
l96 -268h-191z" />
    <glyph glyph-name="A" unicode="a" 
d="M1340 1060l479 -1220h-536l-150 120l-25 70h-313l-68 -190h-536l-150 120l479 1220h670zM1072 160l68 -190h514l-471 1200h-656l-471 -1200h514l68 190h434zM1161 0l-68 190h-476l-68 -190h-449l447 1140h616l447 -1140h-449zM716 470h277l-139 388zM759 500l95 268
l96 -268h-191z" />
    <glyph glyph-name="B" unicode="B" horiz-adv-x="1760" 
d="M1659 467q141 -78 141 -255v-46q0 -126 -82 -216q-102 -110 -269 -110h-1089l-150 120v1220h1029q138 0 234 -77l150 -120q117 -95 117 -249v-76q0 -118 -81 -191zM220 1170v-1200h1079q148 0 244.5 89.5t96.5 226.5v46q0 180 -149 253q89 72 89 193v76
q0 137 -96.5 226.5t-244.5 89.5h-1019zM1610 286q0 -128 -87.5 -207t-223.5 -79h-1049v1140h989q135 0 223 -81t88 -205v-76q0 -138 -125 -199q185 -57 185 -247v-46zM1013 860h-317v-160h317q44 0 67.5 19t23.5 53v16q0 34 -23.5 53t-67.5 19zM1013 730h-287v100h287
q61 0 61 -42v-16q0 -42 -61 -42zM1164 352v16q0 34 -23.5 53t-67.5 19h-377v-160h377q44 0 67.5 19t23.5 53zM1073 410q61 0 61 -42v-16q0 -42 -61 -42h-347v100h347z" />
    <glyph glyph-name="B" unicode="b" horiz-adv-x="1760" 
d="M1659 467q141 -78 141 -255v-46q0 -126 -82 -216q-102 -110 -269 -110h-1089l-150 120v1220h1029q138 0 234 -77l150 -120q117 -95 117 -249v-76q0 -118 -81 -191zM220 1170v-1200h1079q148 0 244.5 89.5t96.5 226.5v46q0 180 -149 253q89 72 89 193v76
q0 137 -96.5 226.5t-244.5 89.5h-1019zM1610 286q0 -128 -87.5 -207t-223.5 -79h-1049v1140h989q135 0 223 -81t88 -205v-76q0 -138 -125 -199q185 -57 185 -247v-46zM1013 860h-317v-160h317q44 0 67.5 19t23.5 53v16q0 34 -23.5 53t-67.5 19zM1013 730h-287v100h287
q61 0 61 -42v-16q0 -42 -61 -42zM1164 352v16q0 34 -23.5 53t-67.5 19h-377v-160h377q44 0 67.5 19t23.5 53zM1073 410q61 0 61 -42v-16q0 -42 -61 -42h-347v100h347z" />
    <glyph glyph-name="B" unicode="b" horiz-adv-x="1760" 
d="M1659 467q141 -78 141 -255v-46q0 -126 -82 -216q-102 -110 -269 -110h-1089l-150 120v1220h1029q138 0 234 -77l150 -120q117 -95 117 -249v-76q0 -118 -81 -191zM220 1170v-1200h1079q148 0 244.5 89.5t96.5 226.5v46q0 180 -149 253q89 72 89 193v76
q0 137 -96.5 226.5t-244.5 89.5h-1019zM1610 286q0 -128 -87.5 -207t-223.5 -79h-1049v1140h989q135 0 223 -81t88 -205v-76q0 -138 -125 -199q185 -57 185 -247v-46zM1013 860h-317v-160h317q44 0 67.5 19t23.5 53v16q0 34 -23.5 53t-67.5 19zM1013 730h-287v100h287
q61 0 61 -42v-16q0 -42 -61 -42zM1164 352v16q0 34 -23.5 53t-67.5 19h-377v-160h377q44 0 67.5 19t23.5 53zM1073 410q61 0 61 -42v-16q0 -42 -61 -42h-347v100h347z" />
    <glyph glyph-name="C" unicode="C" horiz-adv-x="1680" 
d="M871 652q-15 -13 -15 -34v-262h135q24 0 38.5 12t14.5 32v96l526 -184l150 -120v-96q0 -104 -73 -174q-84 -82 -218 -82h-810q-118 0 -199 65l-150 120q-90 74 -90 189v710q0 111 82.5 183.5t206.5 72.5h810q118 0 200 -65l150 -120q91 -73 91 -191v-56l-526 -184
l-125 100h-160q-25 0 -38 -12zM991 346h-232q-28 0 -45.5 15t-17.5 39v338q0 25 17.5 40.5t45.5 15.5h232q28 0 45.5 -15t17.5 -39v-42l506 177v49q0 106 -79.5 176t-201.5 70h-810q-121 0 -200 -70t-79 -176v-710q0 -105 79 -174.5t200 -69.5h810q122 0 201.5 70t79.5 176
v89l-506 177v-82q0 -24 -17.5 -39t-45.5 -15zM666 400q0 -37 26 -60.5t67 -23.5h232q41 0 67 23.5t26 60.5v40l446 -156v-68q0 -94 -71 -155t-180 -61h-810q-108 0 -178.5 60.5t-70.5 153.5v710q0 94 70.5 155t178.5 61h810q109 0 180 -61t71 -155v-28l-446 -156
q0 37 -26 60.5t-67 23.5h-232q-41 0 -67 -24.5t-26 -61.5v-338z" />
    <glyph glyph-name="C" unicode="c" horiz-adv-x="1680" 
d="M871 652q-15 -13 -15 -34v-262h135q24 0 38.5 12t14.5 32v96l526 -184l150 -120v-96q0 -104 -73 -174q-84 -82 -218 -82h-810q-118 0 -199 65l-150 120q-90 74 -90 189v710q0 111 82.5 183.5t206.5 72.5h810q118 0 200 -65l150 -120q91 -73 91 -191v-56l-526 -184
l-125 100h-160q-25 0 -38 -12zM991 346h-232q-28 0 -45.5 15t-17.5 39v338q0 25 17.5 40.5t45.5 15.5h232q28 0 45.5 -15t17.5 -39v-42l506 177v49q0 106 -79.5 176t-201.5 70h-810q-121 0 -200 -70t-79 -176v-710q0 -105 79 -174.5t200 -69.5h810q122 0 201.5 70t79.5 176
v89l-506 177v-82q0 -24 -17.5 -39t-45.5 -15zM666 400q0 -37 26 -60.5t67 -23.5h232q41 0 67 23.5t26 60.5v40l446 -156v-68q0 -94 -71 -155t-180 -61h-810q-108 0 -178.5 60.5t-70.5 153.5v710q0 94 70.5 155t178.5 61h810q109 0 180 -61t71 -155v-28l-446 -156
q0 37 -26 60.5t-67 23.5h-232q-41 0 -67 -24.5t-26 -61.5v-338z" />
    <glyph glyph-name="C" unicode="c" horiz-adv-x="1680" 
d="M871 652q-15 -13 -15 -34v-262h135q24 0 38.5 12t14.5 32v96l526 -184l150 -120v-96q0 -104 -73 -174q-84 -82 -218 -82h-810q-118 0 -199 65l-150 120q-90 74 -90 189v710q0 111 82.5 183.5t206.5 72.5h810q118 0 200 -65l150 -120q91 -73 91 -191v-56l-526 -184
l-125 100h-160q-25 0 -38 -12zM991 346h-232q-28 0 -45.5 15t-17.5 39v338q0 25 17.5 40.5t45.5 15.5h232q28 0 45.5 -15t17.5 -39v-42l506 177v49q0 106 -79.5 176t-201.5 70h-810q-121 0 -200 -70t-79 -176v-710q0 -105 79 -174.5t200 -69.5h810q122 0 201.5 70t79.5 176
v89l-506 177v-82q0 -24 -17.5 -39t-45.5 -15zM666 400q0 -37 26 -60.5t67 -23.5h232q41 0 67 23.5t26 60.5v40l446 -156v-68q0 -94 -71 -155t-180 -61h-810q-108 0 -178.5 60.5t-70.5 153.5v710q0 94 70.5 155t178.5 61h810q109 0 180 -61t71 -155v-28l-446 -156
q0 37 -26 60.5t-67 23.5h-232q-41 0 -67 -24.5t-26 -61.5v-338z" />
    <glyph glyph-name="D" unicode="D" horiz-adv-x="1810" 
d="M1664 982q116 -92 116 -248v-570q0 -127 -82 -215q-101 -109 -269 -109h-1069l-150 120v1220h1069q138 0 235 -78zM220 1170v-1200h1059q148 0 244.5 89t96.5 225v570q0 137 -96.5 226.5t-244.5 89.5h-1059zM1590 284q0 -124 -88 -204t-223 -80h-1029v1140h1029
q135 0 223 -81t88 -205v-570zM1144 399v338q0 37 -27 61.5t-68 24.5l-343 2v-510h343q41 0 68 23.5t27 60.5zM1049 793q29 0 47 -15.5t18 -40.5v-338q0 -24 -18 -39t-47 -15h-313v450zM1104 399v264l-208 2v-310h153q25 0 40 12t15 32z" />
    <glyph glyph-name="D" unicode="d" horiz-adv-x="1810" 
d="M1664 982q116 -92 116 -248v-570q0 -127 -82 -215q-101 -109 -269 -109h-1069l-150 120v1220h1069q138 0 235 -78zM220 1170v-1200h1059q148 0 244.5 89t96.5 225v570q0 137 -96.5 226.5t-244.5 89.5h-1059zM1590 284q0 -124 -88 -204t-223 -80h-1029v1140h1029
q135 0 223 -81t88 -205v-570zM1144 399v338q0 37 -27 61.5t-68 24.5l-343 2v-510h343q41 0 68 23.5t27 60.5zM1049 793q29 0 47 -15.5t18 -40.5v-338q0 -24 -18 -39t-47 -15h-313v450zM1104 399v264l-208 2v-310h153q25 0 40 12t15 32z" />
    <glyph glyph-name="D" unicode="d" horiz-adv-x="1810" 
d="M1664 982q116 -92 116 -248v-570q0 -127 -82 -215q-101 -109 -269 -109h-1069l-150 120v1220h1069q138 0 235 -78zM220 1170v-1200h1059q148 0 244.5 89t96.5 225v570q0 137 -96.5 226.5t-244.5 89.5h-1059zM1590 284q0 -124 -88 -204t-223 -80h-1029v1140h1029
q135 0 223 -81t88 -205v-570zM1144 399v338q0 37 -27 61.5t-68 24.5l-343 2v-510h343q41 0 68 23.5t27 60.5zM1049 793q29 0 47 -15.5t18 -40.5v-338q0 -24 -18 -39t-47 -15h-313v450zM1104 399v264l-208 2v-310h153q25 0 40 12t15 32z" />
    <glyph glyph-name="E" unicode="E" horiz-adv-x="1690" 
d="M1700 1060v-375h-355l75 -60v-290h130l150 -120v-375h-1340l-150 120v1220h1340zM1540 325h-804v80h524v330h-524v80h804v355h-1320v-1200h1320v355zM706 435v-140h804v-295h-1260v1140h1260v-295h-804v-140h524v-270h-524z" />
    <glyph glyph-name="E" unicode="e" horiz-adv-x="1690" 
d="M1700 1060v-375h-355l75 -60v-290h130l150 -120v-375h-1340l-150 120v1220h1340zM1540 325h-804v80h524v330h-524v80h804v355h-1320v-1200h1320v355zM706 435v-140h804v-295h-1260v1140h1260v-295h-804v-140h524v-270h-524z" />
    <glyph glyph-name="E" unicode="e" horiz-adv-x="1690" 
d="M1700 1060v-375h-355l75 -60v-290h130l150 -120v-375h-1340l-150 120v1220h1340zM1540 325h-804v80h524v330h-524v80h804v355h-1320v-1200h1320v355zM706 435v-140h804v-295h-1260v1140h1260v-295h-804v-140h524v-270h-524z" />
    <glyph glyph-name="F" unicode="F" horiz-adv-x="1620" 
d="M1680 1060v-400h-368l98 -78v-360h-514v-382h-536l-150 120v1220h1320zM220 1170v-1200h516v382h514v340h-514v98h784v380h-1300zM1220 662v-280h-514v-382h-456v1140h1240v-320h-784v-158h514z" />
    <glyph glyph-name="F" unicode="f" horiz-adv-x="1620" 
d="M1680 1060v-400h-368l98 -78v-360h-514v-382h-536l-150 120v1220h1320zM220 1170v-1200h516v382h514v340h-514v98h784v380h-1300zM1220 662v-280h-514v-382h-456v1140h1240v-320h-784v-158h514z" />
    <glyph glyph-name="F" unicode="f" horiz-adv-x="1620" 
d="M1680 1060v-400h-368l98 -78v-360h-514v-382h-536l-150 120v1220h1320zM220 1170v-1200h516v382h514v340h-514v98h784v380h-1300zM1220 662v-280h-514v-382h-456v1140h1240v-320h-784v-158h514z" />
    <glyph glyph-name="G" unicode="G" horiz-adv-x="1770" 
d="M1750 804v-56l-332 -116h182l150 -120v-418q0 -105 -76 -176q-83 -78 -215 -78h-840q-115 0 -202 69l-150 120q-87 72 -87 185v710q0 111 82.5 183.5t206.5 72.5h840q120 0 200 -65l150 -120q91 -73 91 -191zM1590 622h-668l-102 -188h264v-34q0 -24 -18 -39t-47 -15
h-260q-28 0 -45.5 15t-17.5 39v338q0 25 17.5 40.5t45.5 15.5h262q28 0 45.5 -15t17.5 -39v-42l506 177v49q0 106 -79.5 176t-201.5 70h-840q-121 0 -200 -70t-79 -176v-710q0 -105 79 -174.5t200 -69.5h840q122 0 201.5 69t79.5 175v408zM1114 464h-244l70 128h620v-378
q0 -93 -71 -153.5t-180 -60.5h-840q-108 0 -178.5 60.5t-70.5 153.5v710q0 94 70.5 155t178.5 61h840q109 0 180 -61t71 -155v-28l-446 -156q0 37 -26 60.5t-67 23.5h-262q-41 0 -67 -24.5t-26 -61.5v-338q0 -37 26 -60.5t67 -23.5h260q41 0 68 23.5t27 60.5v64zM916 632
h223l-40 32h-190q-25 0 -38 -12q-15 -13 -15 -34v-96zM856 382v-26h32z" />
    <glyph glyph-name="G" unicode="g" horiz-adv-x="1770" 
d="M1750 804v-56l-332 -116h182l150 -120v-418q0 -105 -76 -176q-83 -78 -215 -78h-840q-115 0 -202 69l-150 120q-87 72 -87 185v710q0 111 82.5 183.5t206.5 72.5h840q120 0 200 -65l150 -120q91 -73 91 -191zM1590 622h-668l-102 -188h264v-34q0 -24 -18 -39t-47 -15
h-260q-28 0 -45.5 15t-17.5 39v338q0 25 17.5 40.5t45.5 15.5h262q28 0 45.5 -15t17.5 -39v-42l506 177v49q0 106 -79.5 176t-201.5 70h-840q-121 0 -200 -70t-79 -176v-710q0 -105 79 -174.5t200 -69.5h840q122 0 201.5 69t79.5 175v408zM1114 464h-244l70 128h620v-378
q0 -93 -71 -153.5t-180 -60.5h-840q-108 0 -178.5 60.5t-70.5 153.5v710q0 94 70.5 155t178.5 61h840q109 0 180 -61t71 -155v-28l-446 -156q0 37 -26 60.5t-67 23.5h-262q-41 0 -67 -24.5t-26 -61.5v-338q0 -37 26 -60.5t67 -23.5h260q41 0 68 23.5t27 60.5v64zM916 632
h223l-40 32h-190q-25 0 -38 -12q-15 -13 -15 -34v-96zM856 382v-26h32z" />
    <glyph glyph-name="G" unicode="g" horiz-adv-x="1770" 
d="M1750 804v-56l-332 -116h182l150 -120v-418q0 -105 -76 -176q-83 -78 -215 -78h-840q-115 0 -202 69l-150 120q-87 72 -87 185v710q0 111 82.5 183.5t206.5 72.5h840q120 0 200 -65l150 -120q91 -73 91 -191zM1590 622h-668l-102 -188h264v-34q0 -24 -18 -39t-47 -15
h-260q-28 0 -45.5 15t-17.5 39v338q0 25 17.5 40.5t45.5 15.5h262q28 0 45.5 -15t17.5 -39v-42l506 177v49q0 106 -79.5 176t-201.5 70h-840q-121 0 -200 -70t-79 -176v-710q0 -105 79 -174.5t200 -69.5h840q122 0 201.5 69t79.5 175v408zM1114 464h-244l70 128h620v-378
q0 -93 -71 -153.5t-180 -60.5h-840q-108 0 -178.5 60.5t-70.5 153.5v710q0 94 70.5 155t178.5 61h840q109 0 180 -61t71 -155v-28l-446 -156q0 37 -26 60.5t-67 23.5h-262q-41 0 -67 -24.5t-26 -61.5v-338q0 -37 26 -60.5t67 -23.5h260q41 0 68 23.5t27 60.5v64zM916 632
h223l-40 32h-190q-25 0 -38 -12q-15 -13 -15 -34v-96zM856 382v-26h32z" />
    <glyph glyph-name="H" unicode="H" horiz-adv-x="1840" 
d="M1630 1180l150 -120v-1220h-536l-150 120v379h-198v-499h-536l-150 120v1220h536l150 -120v-201h198v321h536zM220 1170v-1200h516v499h368v-499h516v1200h-516v-321h-368v321h-516zM1134 499h-428v-499h-456v1140h456v-321h428v321h456v-1140h-456v499z" />
    <glyph glyph-name="H" unicode="h" horiz-adv-x="1840" 
d="M1630 1180l150 -120v-1220h-536l-150 120v379h-198v-499h-536l-150 120v1220h536l150 -120v-201h198v321h536zM220 1170v-1200h516v499h368v-499h516v1200h-516v-321h-368v321h-516zM1134 499h-428v-499h-456v1140h456v-321h428v321h456v-1140h-456v499z" />
    <glyph glyph-name="H" unicode="h" horiz-adv-x="1840" 
d="M1630 1180l150 -120v-1220h-536l-150 120v379h-198v-499h-536l-150 120v1220h536l150 -120v-201h198v321h536zM220 1170v-1200h516v499h368v-499h516v1200h-516v-321h-368v321h-516zM1134 499h-428v-499h-456v1140h456v-321h428v321h456v-1140h-456v499z" />
    <glyph glyph-name="I" unicode="I" horiz-adv-x="956" 
d="M746 1180l150 -120v-1220h-536l-150 120v1220h536zM220 1170v-1200h516v1200h-516zM250 0v1140h456v-1140h-456z" />
    <glyph glyph-name="I" unicode="i" horiz-adv-x="956" 
d="M746 1180l150 -120v-1220h-536l-150 120v1220h536zM220 1170v-1200h516v1200h-516zM250 0v1140h456v-1140h-456z" />
    <glyph glyph-name="I" unicode="i" horiz-adv-x="956" 
d="M746 1180l150 -120v-1220h-536l-150 120v1220h536zM220 1170v-1200h516v1200h-516zM250 0v1140h456v-1140h-456z" />
    <glyph glyph-name="J" unicode="J" horiz-adv-x="1565" 
d="M1370 1180l150 -120v-966q0 -105 -74 -174q-83 -80 -217 -80h-780q-118 0 -199 65l-150 120q-90 72 -90 189v168l526 184l150 -120v-90h103q25 0 40 12t15 32v780h526zM20 214q0 -105 79 -174.5t200 -69.5h780q122 0 201.5 69t79.5 175v956h-506v-770q0 -24 -18 -39
t-47 -15h-198q-28 0 -46.5 15.5t-18.5 38.5v152l-506 -177v-161zM1079 0h-780q-108 0 -178.5 60.5t-70.5 153.5v140l446 156v-110q0 -37 27 -60.5t68 -23.5h198q41 0 68 23.5t27 60.5v740h446v-926q0 -93 -71 -153.5t-180 -60.5z" />
    <glyph glyph-name="J" unicode="j" horiz-adv-x="1565" 
d="M1370 1180l150 -120v-966q0 -105 -74 -174q-83 -80 -217 -80h-780q-118 0 -199 65l-150 120q-90 72 -90 189v168l526 184l150 -120v-90h103q25 0 40 12t15 32v780h526zM20 214q0 -105 79 -174.5t200 -69.5h780q122 0 201.5 69t79.5 175v956h-506v-770q0 -24 -18 -39
t-47 -15h-198q-28 0 -46.5 15.5t-18.5 38.5v152l-506 -177v-161zM1079 0h-780q-108 0 -178.5 60.5t-70.5 153.5v140l446 156v-110q0 -37 27 -60.5t68 -23.5h198q41 0 68 23.5t27 60.5v740h446v-926q0 -93 -71 -153.5t-180 -60.5z" />
    <glyph glyph-name="J" unicode="j" horiz-adv-x="1565" 
d="M1370 1180l150 -120v-966q0 -105 -74 -174q-83 -80 -217 -80h-780q-118 0 -199 65l-150 120q-90 72 -90 189v168l526 184l150 -120v-90h103q25 0 40 12t15 32v780h526zM20 214q0 -105 79 -174.5t200 -69.5h780q122 0 201.5 69t79.5 175v956h-506v-770q0 -24 -18 -39
t-47 -15h-198q-28 0 -46.5 15.5t-18.5 38.5v152l-506 -177v-161zM1079 0h-780q-108 0 -178.5 60.5t-70.5 153.5v140l446 156v-110q0 -37 27 -60.5t68 -23.5h198q41 0 68 23.5t27 60.5v740h446v-926q0 -93 -71 -153.5t-180 -60.5z" />
    <glyph glyph-name="K" unicode="K" horiz-adv-x="1718" 
d="M1363 519l510 -679h-608l-150 120l-219 294v-414h-536l-150 120v1220h536l150 -120v-90l159 210h603l150 -120zM812 384l308 -414h583l-503 669l437 531h-577l-324 -427v427h-516v-1200h516v414h76zM1643 0h-508l-308 414h-121v-414h-456v1140h456v-485l369 485h498
l-411 -500z" />
    <glyph glyph-name="K" unicode="k" horiz-adv-x="1718" 
d="M1363 519l510 -679h-608l-150 120l-219 294v-414h-536l-150 120v1220h536l150 -120v-90l159 210h603l150 -120zM812 384l308 -414h583l-503 669l437 531h-577l-324 -427v427h-516v-1200h516v414h76zM1643 0h-508l-308 414h-121v-414h-456v1140h456v-485l369 485h498
l-411 -500z" />
    <glyph glyph-name="K" unicode="k" horiz-adv-x="1718" 
d="M1363 519l510 -679h-608l-150 120l-219 294v-414h-536l-150 120v1220h536l150 -120v-90l159 210h603l150 -120zM812 384l308 -414h583l-503 669l437 531h-577l-324 -427v427h-516v-1200h516v414h76zM1643 0h-508l-308 414h-121v-414h-456v1140h456v-485l369 485h498
l-411 -500z" />
    <glyph glyph-name="L" unicode="L" horiz-adv-x="1530" 
d="M1530 360l150 -120v-400h-1320l-150 120v1220h536l150 -120v-700h634zM220 1170v-1200h1300v380h-784v820h-516zM706 1140v-820h784v-320h-1240v1140h456z" />
    <glyph glyph-name="L" unicode="l" horiz-adv-x="1530" 
d="M1530 360l150 -120v-400h-1320l-150 120v1220h536l150 -120v-700h634zM220 1170v-1200h1300v380h-784v820h-516zM706 1140v-820h784v-320h-1240v1140h456z" />
    <glyph glyph-name="L" unicode="l" horiz-adv-x="1530" 
d="M1530 360l150 -120v-400h-1320l-150 120v1220h536l150 -120v-700h634zM220 1170v-1200h1300v380h-784v820h-516zM706 1140v-820h784v-320h-1240v1140h456z" />
    <glyph glyph-name="M" unicode="M" horiz-adv-x="1940" 
d="M1730 1180l150 -120v-1220h-495l-150 120v247l-115 -170l-150 120l-115 170v-487h-495l-150 120v1220h547l150 -120l100 -156l176 276h547zM695 583l275 -408l275 408v-613h475v1200h-532l-218 -343l-218 343h-532v-1200h475v613zM1275 680l-305 -452l-305 452v-680h-415
v1140h485l235 -369l235 369h485v-1140h-415v680z" />
    <glyph glyph-name="M" unicode="m" horiz-adv-x="1940" 
d="M1730 1180l150 -120v-1220h-495l-150 120v247l-115 -170l-150 120l-115 170v-487h-495l-150 120v1220h547l150 -120l100 -156l176 276h547zM695 583l275 -408l275 408v-613h475v1200h-532l-218 -343l-218 343h-532v-1200h475v613zM1275 680l-305 -452l-305 452v-680h-415
v1140h485l235 -369l235 369h485v-1140h-415v680z" />
    <glyph glyph-name="M" unicode="m" horiz-adv-x="1940" 
d="M1730 1180l150 -120v-1220h-495l-150 120v247l-115 -170l-150 120l-115 170v-487h-495l-150 120v1220h547l150 -120l100 -156l176 276h547zM695 583l275 -408l275 408v-613h475v1200h-532l-218 -343l-218 343h-532v-1200h475v613zM1275 680l-305 -452l-305 452v-680h-415
v1140h485l235 -369l235 369h485v-1140h-415v680z" />
    <glyph glyph-name="N" unicode="N" horiz-adv-x="1840" 
d="M1630 1180l150 -120v-1220h-558l-150 120l-216 328v-448h-496l-150 120v1220h558l150 -120l217 -334v454h495zM696 549l381 -579h543v1200h-475v-589l-382 589h-543v-1200h476v579zM1590 0h-496l-428 650v-650h-416v1140h496l429 -660v660h415v-1140z" />
    <glyph glyph-name="N" unicode="n" horiz-adv-x="1840" 
d="M1630 1180l150 -120v-1220h-558l-150 120l-216 328v-448h-496l-150 120v1220h558l150 -120l217 -334v454h495zM696 549l381 -579h543v1200h-475v-589l-382 589h-543v-1200h476v579zM1590 0h-496l-428 650v-650h-416v1140h496l429 -660v660h415v-1140z" />
    <glyph glyph-name="N" unicode="n" horiz-adv-x="1840" 
d="M1630 1180l150 -120v-1220h-558l-150 120l-216 328v-448h-496l-150 120v1220h558l150 -120l217 -334v454h495zM696 549l381 -579h543v1200h-475v-589l-382 589h-543v-1200h476v579zM1590 0h-496l-428 650v-650h-416v1140h496l429 -660v660h415v-1140z" />
    <glyph glyph-name="O" unicode="O" horiz-adv-x="1780" 
d="M1659 995q91 -73 91 -191v-710q0 -105 -74 -174q-83 -80 -217 -80h-840q-118 0 -200 66l-150 120q-89 72 -89 188v710q0 111 82.5 183.5t206.5 72.5h840q118 0 200 -65zM190 214q0 -105 79 -174.5t200 -69.5h840q122 0 201.5 69t79.5 175v710q0 106 -79.5 176t-201.5 70
h-840q-121 0 -200 -70t-79 -176v-710zM1309 0h-840q-108 0 -178.5 60.5t-70.5 153.5v710q0 94 70.5 155t178.5 61h840q109 0 180 -61t71 -155v-710q0 -93 -71 -153.5t-180 -60.5zM666 738v-338q0 -37 26 -60.5t67 -23.5h260q41 0 68 23.5t27 60.5v338q0 37 -27 61.5
t-68 24.5h-260q-41 0 -67 -24.5t-26 -61.5zM759 346q-28 0 -45.5 15t-17.5 39v338q0 25 17.5 40.5t45.5 15.5h260q29 0 47 -15.5t18 -40.5v-338q0 -24 -18 -39t-47 -15h-260zM1074 400v264h-165q-25 0 -38 -12q-15 -13 -15 -34v-262h163q25 0 40 12t15 32z" />
    <glyph glyph-name="O" unicode="o" horiz-adv-x="1780" 
d="M1659 995q91 -73 91 -191v-710q0 -105 -74 -174q-83 -80 -217 -80h-840q-118 0 -200 66l-150 120q-89 72 -89 188v710q0 111 82.5 183.5t206.5 72.5h840q118 0 200 -65zM190 214q0 -105 79 -174.5t200 -69.5h840q122 0 201.5 69t79.5 175v710q0 106 -79.5 176t-201.5 70
h-840q-121 0 -200 -70t-79 -176v-710zM1309 0h-840q-108 0 -178.5 60.5t-70.5 153.5v710q0 94 70.5 155t178.5 61h840q109 0 180 -61t71 -155v-710q0 -93 -71 -153.5t-180 -60.5zM666 738v-338q0 -37 26 -60.5t67 -23.5h260q41 0 68 23.5t27 60.5v338q0 37 -27 61.5
t-68 24.5h-260q-41 0 -67 -24.5t-26 -61.5zM759 346q-28 0 -45.5 15t-17.5 39v338q0 25 17.5 40.5t45.5 15.5h260q29 0 47 -15.5t18 -40.5v-338q0 -24 -18 -39t-47 -15h-260zM1074 400v264h-165q-25 0 -38 -12q-15 -13 -15 -34v-262h163q25 0 40 12t15 32z" />
    <glyph glyph-name="O" unicode="o" horiz-adv-x="1780" 
d="M1659 995q91 -73 91 -191v-710q0 -105 -74 -174q-83 -80 -217 -80h-840q-118 0 -200 66l-150 120q-89 72 -89 188v710q0 111 82.5 183.5t206.5 72.5h840q118 0 200 -65zM190 214q0 -105 79 -174.5t200 -69.5h840q122 0 201.5 69t79.5 175v710q0 106 -79.5 176t-201.5 70
h-840q-121 0 -200 -70t-79 -176v-710zM1309 0h-840q-108 0 -178.5 60.5t-70.5 153.5v710q0 94 70.5 155t178.5 61h840q109 0 180 -61t71 -155v-710q0 -93 -71 -153.5t-180 -60.5zM666 738v-338q0 -37 26 -60.5t67 -23.5h260q41 0 68 23.5t27 60.5v338q0 37 -27 61.5
t-68 24.5h-260q-41 0 -67 -24.5t-26 -61.5zM759 346q-28 0 -45.5 15t-17.5 39v338q0 25 17.5 40.5t45.5 15.5h260q29 0 47 -15.5t18 -40.5v-338q0 -24 -18 -39t-47 -15h-260zM1074 400v264h-165q-25 0 -38 -12q-15 -13 -15 -34v-262h163q25 0 40 12t15 32z" />
    <glyph glyph-name="P" unicode="P" horiz-adv-x="1690" 
d="M1661 984q119 -95 119 -250v-233q0 -126 -82 -216q-102 -110 -269 -110h-533v-335h-536l-150 120v1220h1069q139 0 233 -77l-1 1zM220 1170v-1200h516v335h543q148 0 244.5 89.5t96.5 226.5v233q0 137 -96.5 226.5t-244.5 89.5h-1059zM1279 335h-573v-335h-456v1140h1029
q135 0 223 -81t88 -205v-233q0 -124 -88 -205t-223 -81zM1630 860zM1630 859zM1630 858zM1630 856v1v-1zM1630 855v1v-1zM1058 830h-352v-185h352q44 0 67.5 19t23.5 53v41q0 34 -23.5 53t-67.5 19zM1058 675h-322v125h322q61 0 61 -42v-41q0 -42 -61 -42z" />
    <glyph glyph-name="P" unicode="p" horiz-adv-x="1690" 
d="M1661 984q119 -95 119 -250v-233q0 -126 -82 -216q-102 -110 -269 -110h-533v-335h-536l-150 120v1220h1069q139 0 233 -77l-1 1zM220 1170v-1200h516v335h543q148 0 244.5 89.5t96.5 226.5v233q0 137 -96.5 226.5t-244.5 89.5h-1059zM1279 335h-573v-335h-456v1140h1029
q135 0 223 -81t88 -205v-233q0 -124 -88 -205t-223 -81zM1630 860zM1630 859zM1630 858zM1630 856v1v-1zM1630 855v1v-1zM1058 830h-352v-185h352q44 0 67.5 19t23.5 53v41q0 34 -23.5 53t-67.5 19zM1058 675h-322v125h322q61 0 61 -42v-41q0 -42 -61 -42z" />
    <glyph glyph-name="P" unicode="p" horiz-adv-x="1690" 
d="M1661 984q119 -95 119 -250v-233q0 -126 -82 -216q-102 -110 -269 -110h-533v-335h-536l-150 120v1220h1069q139 0 233 -77l-1 1zM220 1170v-1200h516v335h543q148 0 244.5 89.5t96.5 226.5v233q0 137 -96.5 226.5t-244.5 89.5h-1059zM1279 335h-573v-335h-456v1140h1029
q135 0 223 -81t88 -205v-233q0 -124 -88 -205t-223 -81zM1630 860zM1630 859zM1630 858zM1630 856v1v-1zM1630 855v1v-1zM1058 830h-352v-185h352q44 0 67.5 19t23.5 53v41q0 34 -23.5 53t-67.5 19zM1058 675h-322v125h322q61 0 61 -42v-41q0 -42 -61 -42z" />
    <glyph glyph-name="Q" unicode="Q" horiz-adv-x="1780" 
d="M1750 94q0 -105 -74 -174q-21 -21 -52 -39l126 -101v-208h-780l-150 120v148h-201q-118 0 -200 66l-150 120q-89 72 -89 188v710q0 111 82.5 183.5t206.5 72.5h840q120 0 200 -65l150 -120q91 -73 91 -191v-710zM190 214q0 -105 79 -174.5t200 -69.5h840q122 0 201.5 69
t79.5 175v710q0 106 -79.5 176t-201.5 70h-840q-121 0 -200 -70t-79 -176v-710zM1309 0h-840q-108 0 -178.5 60.5t-70.5 153.5v710q0 94 70.5 155t178.5 61h840q109 0 180 -61t71 -155v-710q0 -93 -71 -153.5t-180 -60.5zM666 738v-338q0 -37 26 -60.5t67 -23.5h260
q41 0 68 23.5t27 60.5v338q0 37 -27 61.5t-68 24.5h-260q-41 0 -67 -24.5t-26 -61.5zM759 346q-28 0 -45.5 15t-17.5 39v338q0 25 17.5 40.5t45.5 15.5h260q29 0 47 -15.5t18 -40.5v-338q0 -24 -18 -39t-47 -15h-260zM1074 400v264h-165q-25 0 -38 -12q-15 -13 -15 -34v-262
h163q25 0 40 12t15 32zM1600 214q0 -102 -74 -174q74 69 74 174zM1590 -110h-760v-188h760v188zM1560 -140v-128h-700v128h700z" />
    <glyph glyph-name="Q" unicode="q" horiz-adv-x="1780" 
d="M1750 94q0 -105 -74 -174q-21 -21 -52 -39l126 -101v-208h-780l-150 120v148h-201q-118 0 -200 66l-150 120q-89 72 -89 188v710q0 111 82.5 183.5t206.5 72.5h840q120 0 200 -65l150 -120q91 -73 91 -191v-710zM190 214q0 -105 79 -174.5t200 -69.5h840q122 0 201.5 69
t79.5 175v710q0 106 -79.5 176t-201.5 70h-840q-121 0 -200 -70t-79 -176v-710zM1309 0h-840q-108 0 -178.5 60.5t-70.5 153.5v710q0 94 70.5 155t178.5 61h840q109 0 180 -61t71 -155v-710q0 -93 -71 -153.5t-180 -60.5zM666 738v-338q0 -37 26 -60.5t67 -23.5h260
q41 0 68 23.5t27 60.5v338q0 37 -27 61.5t-68 24.5h-260q-41 0 -67 -24.5t-26 -61.5zM759 346q-28 0 -45.5 15t-17.5 39v338q0 25 17.5 40.5t45.5 15.5h260q29 0 47 -15.5t18 -40.5v-338q0 -24 -18 -39t-47 -15h-260zM1074 400v264h-165q-25 0 -38 -12q-15 -13 -15 -34v-262
h163q25 0 40 12t15 32zM1600 214q0 -102 -74 -174q74 69 74 174zM1590 -110h-760v-188h760v188zM1560 -140v-128h-700v128h700z" />
    <glyph glyph-name="Q" unicode="q" horiz-adv-x="1780" 
d="M1750 94q0 -105 -74 -174q-21 -21 -52 -39l126 -101v-208h-780l-150 120v148h-201q-118 0 -200 66l-150 120q-89 72 -89 188v710q0 111 82.5 183.5t206.5 72.5h840q120 0 200 -65l150 -120q91 -73 91 -191v-710zM190 214q0 -105 79 -174.5t200 -69.5h840q122 0 201.5 69
t79.5 175v710q0 106 -79.5 176t-201.5 70h-840q-121 0 -200 -70t-79 -176v-710zM1309 0h-840q-108 0 -178.5 60.5t-70.5 153.5v710q0 94 70.5 155t178.5 61h840q109 0 180 -61t71 -155v-710q0 -93 -71 -153.5t-180 -60.5zM666 738v-338q0 -37 26 -60.5t67 -23.5h260
q41 0 68 23.5t27 60.5v338q0 37 -27 61.5t-68 24.5h-260q-41 0 -67 -24.5t-26 -61.5zM759 346q-28 0 -45.5 15t-17.5 39v338q0 25 17.5 40.5t45.5 15.5h260q29 0 47 -15.5t18 -40.5v-338q0 -24 -18 -39t-47 -15h-260zM1074 400v264h-165q-25 0 -38 -12q-15 -13 -15 -34v-262
h163q25 0 40 12t15 32zM1600 214q0 -102 -74 -174q74 69 74 174zM1590 -110h-760v-188h760v188zM1560 -140v-128h-700v128h700z" />
    <glyph glyph-name="R" unicode="R" horiz-adv-x="1752" 
d="M1574 237l298 -397h-601l-150 120l-166 250h-59v-370h-536l-150 120v1220h1069q140 0 235 -78l150 -120q116 -92 116 -248v-198q0 -126 -82 -216q-47 -52 -124 -83zM880 340l246 -370h576l-294 391q97 34 154.5 113t57.5 182v198q0 137 -96.5 226.5t-244.5 89.5h-1059
v-1200h516v370h144zM1142 0l-246 370h-190v-370h-456v1140h1029q135 0 223 -81t88 -205v-198q0 -105 -63.5 -180t-168.5 -98l284 -378h-500zM706 830v-170h352q44 0 67.5 19t23.5 53v26q0 34 -23.5 53t-67.5 19h-352zM1119 732q0 -42 -61 -42h-322v110h322q61 0 61 -42v-26z
" />
    <glyph glyph-name="R" unicode="r" horiz-adv-x="1752" 
d="M1574 237l298 -397h-601l-150 120l-166 250h-59v-370h-536l-150 120v1220h1069q140 0 235 -78l150 -120q116 -92 116 -248v-198q0 -126 -82 -216q-47 -52 -124 -83zM880 340l246 -370h576l-294 391q97 34 154.5 113t57.5 182v198q0 137 -96.5 226.5t-244.5 89.5h-1059
v-1200h516v370h144zM1142 0l-246 370h-190v-370h-456v1140h1029q135 0 223 -81t88 -205v-198q0 -105 -63.5 -180t-168.5 -98l284 -378h-500zM706 830v-170h352q44 0 67.5 19t23.5 53v26q0 34 -23.5 53t-67.5 19h-352zM1119 732q0 -42 -61 -42h-322v110h322q61 0 61 -42v-26z
" />
    <glyph glyph-name="R" unicode="r" horiz-adv-x="1752" 
d="M1574 237l298 -397h-601l-150 120l-166 250h-59v-370h-536l-150 120v1220h1069q140 0 235 -78l150 -120q116 -92 116 -248v-198q0 -126 -82 -216q-47 -52 -124 -83zM880 340l246 -370h576l-294 391q97 34 154.5 113t57.5 182v198q0 137 -96.5 226.5t-244.5 89.5h-1059
v-1200h516v370h144zM1142 0l-246 370h-190v-370h-456v1140h1029q135 0 223 -81t88 -205v-198q0 -105 -63.5 -180t-168.5 -98l284 -378h-500zM706 830v-170h352q44 0 67.5 19t23.5 53v26q0 34 -23.5 53t-67.5 19h-352zM1119 732q0 -42 -61 -42h-322v110h322q61 0 61 -42v-26z
" />
    <glyph glyph-name="S" unicode="S" horiz-adv-x="1720" 
d="M1720 804v-57l-252 -88l136 -109q116 -92 116 -248v-206q0 -102 -72 -174q-84 -82 -217 -82h-840q-119 0 -199 64l-150 120q-92 74 -92 192v57l252 88l-131 104l-3 3q-118 95 -118 250v206q0 111 82 183.5t207 72.5h840q115 0 196 -62l150 -120q95 -77 95 -194zM160 216
q0 -106 79.5 -176t201.5 -70h840q121 0 200 70t79 176v206q0 137 -96.5 226.5t-244.5 89.5h-48l389 136v50q0 106 -79.5 176t-201.5 70h-840q-121 0 -200 -70t-79 -176v-206q0 -137 96.5 -226.5t244.5 -89.5h48l-389 -136v-50zM1281 0h-840q-109 0 -180 61t-71 155v30
l446 156v-64q0 -34 23.5 -53t67.5 -19h265q44 0 67.5 19t23.5 53v22q0 34 -23.5 53t-67.5 19h-491q-135 0 -223 81t-88 205v206q0 94 70 155t179 61h840q109 0 180 -61t71 -155v-30l-446 -156v64q0 34 -23.5 53t-67.5 19h-265q-44 0 -67.5 -19t-23.5 -53v-22q0 -34 23.5 -53
t67.5 -19h491q135 0 223 -81t88 -205v-206q0 -94 -70.5 -155t-178.5 -61zM728 844h265q61 0 61 -42v-64h-326q-61 0 -61 42v22q0 42 61 42zM992 296h-265q-61 0 -61 42v64h326q61 0 61 -42v-22q0 -42 -61 -42z" />
    <glyph glyph-name="S" unicode="s" horiz-adv-x="1720" 
d="M1720 804v-57l-252 -88l136 -109q116 -92 116 -248v-206q0 -102 -72 -174q-84 -82 -217 -82h-840q-119 0 -199 64l-150 120q-92 74 -92 192v57l252 88l-131 104l-3 3q-118 95 -118 250v206q0 111 82 183.5t207 72.5h840q115 0 196 -62l150 -120q95 -77 95 -194zM160 216
q0 -106 79.5 -176t201.5 -70h840q121 0 200 70t79 176v206q0 137 -96.5 226.5t-244.5 89.5h-48l389 136v50q0 106 -79.5 176t-201.5 70h-840q-121 0 -200 -70t-79 -176v-206q0 -137 96.5 -226.5t244.5 -89.5h48l-389 -136v-50zM1281 0h-840q-109 0 -180 61t-71 155v30
l446 156v-64q0 -34 23.5 -53t67.5 -19h265q44 0 67.5 19t23.5 53v22q0 34 -23.5 53t-67.5 19h-491q-135 0 -223 81t-88 205v206q0 94 70 155t179 61h840q109 0 180 -61t71 -155v-30l-446 -156v64q0 34 -23.5 53t-67.5 19h-265q-44 0 -67.5 -19t-23.5 -53v-22q0 -34 23.5 -53
t67.5 -19h491q135 0 223 -81t88 -205v-206q0 -94 -70.5 -155t-178.5 -61zM728 844h265q61 0 61 -42v-64h-326q-61 0 -61 42v22q0 42 61 42zM992 296h-265q-61 0 -61 42v64h326q61 0 61 -42v-22q0 -42 -61 -42z" />
    <glyph glyph-name="S" unicode="s" horiz-adv-x="1720" 
d="M1720 804v-57l-252 -88l136 -109q116 -92 116 -248v-206q0 -102 -72 -174q-84 -82 -217 -82h-840q-119 0 -199 64l-150 120q-92 74 -92 192v57l252 88l-131 104l-3 3q-118 95 -118 250v206q0 111 82 183.5t207 72.5h840q115 0 196 -62l150 -120q95 -77 95 -194zM160 216
q0 -106 79.5 -176t201.5 -70h840q121 0 200 70t79 176v206q0 137 -96.5 226.5t-244.5 89.5h-48l389 136v50q0 106 -79.5 176t-201.5 70h-840q-121 0 -200 -70t-79 -176v-206q0 -137 96.5 -226.5t244.5 -89.5h48l-389 -136v-50zM1281 0h-840q-109 0 -180 61t-71 155v30
l446 156v-64q0 -34 23.5 -53t67.5 -19h265q44 0 67.5 19t23.5 53v22q0 34 -23.5 53t-67.5 19h-491q-135 0 -223 81t-88 205v206q0 94 70 155t179 61h840q109 0 180 -61t71 -155v-30l-446 -156v64q0 34 -23.5 53t-67.5 19h-265q-44 0 -67.5 -19t-23.5 -53v-22q0 -34 23.5 -53
t67.5 -19h491q135 0 223 -81t88 -205v-206q0 -94 -70.5 -155t-178.5 -61zM728 844h265q61 0 61 -42v-64h-326q-61 0 -61 42v22q0 42 61 42zM992 296h-265q-61 0 -61 42v64h326q61 0 61 -42v-22q0 -42 -61 -42z" />
    <glyph glyph-name="T" unicode="T" horiz-adv-x="1510" 
d="M1440 1180l150 -120v-400h-417v-820h-536l-150 120v700h-267l-150 120v400h1370zM80 1170v-380h417v-820h516v820h417v380h-1350zM527 0v820h-417v320h1290v-320h-417v-820h-456z" />
    <glyph glyph-name="T" unicode="t" horiz-adv-x="1510" 
d="M1440 1180l150 -120v-400h-417v-820h-536l-150 120v700h-267l-150 120v400h1370zM80 1170v-380h417v-820h516v820h417v380h-1350zM527 0v820h-417v320h1290v-320h-417v-820h-456z" />
    <glyph glyph-name="T" unicode="t" horiz-adv-x="1510" 
d="M1440 1180l150 -120v-400h-417v-820h-536l-150 120v700h-267l-150 120v400h1370zM80 1170v-380h417v-820h516v820h417v380h-1350zM527 0v820h-417v320h1290v-320h-417v-820h-456z" />
    <glyph glyph-name="U" unicode="U" horiz-adv-x="1810" 
d="M1615 1180l150 -120v-966q0 -105 -74 -174q-83 -80 -217 -80h-840q-118 0 -199 65l-150 120q-90 72 -90 189v966h526l150 -120v-704h163q25 0 40 12t15 32v780h526zM205 214q0 -105 79 -174.5t200 -69.5h840q122 0 201.5 69t79.5 175v956h-506v-770q0 -24 -18 -39
t-47 -15h-258q-28 0 -46.5 15.5t-18.5 38.5v770h-506v-956zM1324 0h-840q-108 0 -178.5 60.5t-70.5 153.5v926h446v-740q0 -37 26 -60.5t67 -23.5h260q41 0 68 23.5t27 60.5v740h446v-926q0 -93 -71 -153.5t-180 -60.5z" />
    <glyph glyph-name="U" unicode="u" horiz-adv-x="1810" 
d="M1615 1180l150 -120v-966q0 -105 -74 -174q-83 -80 -217 -80h-840q-118 0 -199 65l-150 120q-90 72 -90 189v966h526l150 -120v-704h163q25 0 40 12t15 32v780h526zM205 214q0 -105 79 -174.5t200 -69.5h840q122 0 201.5 69t79.5 175v956h-506v-770q0 -24 -18 -39
t-47 -15h-258q-28 0 -46.5 15.5t-18.5 38.5v770h-506v-956zM1324 0h-840q-108 0 -178.5 60.5t-70.5 153.5v926h446v-740q0 -37 26 -60.5t67 -23.5h260q41 0 68 23.5t27 60.5v740h446v-926q0 -93 -71 -153.5t-180 -60.5z" />
    <glyph glyph-name="U" unicode="u" horiz-adv-x="1810" 
d="M1615 1180l150 -120v-966q0 -105 -74 -174q-83 -80 -217 -80h-840q-118 0 -199 65l-150 120q-90 72 -90 189v966h526l150 -120v-704h163q25 0 40 12t15 32v780h526zM205 214q0 -105 79 -174.5t200 -69.5h840q122 0 201.5 69t79.5 175v956h-506v-770q0 -24 -18 -39
t-47 -15h-258q-28 0 -46.5 15.5t-18.5 38.5v770h-506v-956zM1324 0h-840q-108 0 -178.5 60.5t-70.5 153.5v926h446v-740q0 -37 26 -60.5t67 -23.5h260q41 0 68 23.5t27 60.5v740h446v-926q0 -93 -71 -153.5t-180 -60.5z" />
    <glyph glyph-name="V" unicode="V" horiz-adv-x="1620" 
d="M1599 1180l150 -120l-479 -1220h-650l-150 120l-479 1220h536l150 -120l171 -480l215 600h536zM6 1170l471 -1200h636l471 1200h-514l-276 -770l-274 770h-514zM1093 0h-596l-447 1140h449l295 -830l297 830h449z" />
    <glyph glyph-name="V" unicode="v" horiz-adv-x="1620" 
d="M1599 1180l150 -120l-479 -1220h-650l-150 120l-479 1220h536l150 -120l171 -480l215 600h536zM6 1170l471 -1200h636l471 1200h-514l-276 -770l-274 770h-514zM1093 0h-596l-447 1140h449l295 -830l297 830h449z" />
    <glyph glyph-name="V" unicode="v" horiz-adv-x="1620" 
d="M1599 1180l150 -120l-479 -1220h-650l-150 120l-479 1220h536l150 -120l171 -480l215 600h536zM6 1170l471 -1200h636l471 1200h-514l-276 -770l-274 770h-514zM1093 0h-596l-447 1140h449l295 -830l297 830h449z" />
    <glyph glyph-name="W" unicode="W" horiz-adv-x="1830" 
d="M1729 1180l150 -120l-248 -1220h-424l-150 120l-47 81l-117 -201h-424l-150 120l-248 1220h504l150 -120l59 -286l116 188l150 -120l80 -129l95 467h504zM900 248l163 -278h410l244 1200h-484l-118 -576l-215 349l-215 -349l-118 576h-484l244 -1200h410zM1080 0
l-180 309l-180 -309h-368l-232 1140h422l128 -626l230 372l230 -372l128 626h422l-232 -1140h-368z" />
    <glyph glyph-name="W" unicode="w" horiz-adv-x="1830" 
d="M1729 1180l150 -120l-248 -1220h-424l-150 120l-47 81l-117 -201h-424l-150 120l-248 1220h504l150 -120l59 -286l116 188l150 -120l80 -129l95 467h504zM900 248l163 -278h410l244 1200h-484l-118 -576l-215 349l-215 -349l-118 576h-484l244 -1200h410zM1080 0
l-180 309l-180 -309h-368l-232 1140h422l128 -626l230 372l230 -372l128 626h422l-232 -1140h-368z" />
    <glyph glyph-name="W" unicode="w" horiz-adv-x="1830" 
d="M1729 1180l150 -120l-248 -1220h-424l-150 120l-47 81l-117 -201h-424l-150 120l-248 1220h504l150 -120l59 -286l116 188l150 -120l80 -129l95 467h504zM900 248l163 -278h410l244 1200h-484l-118 -576l-215 349l-215 -349l-118 576h-484l244 -1200h410zM1080 0
l-180 309l-180 -309h-368l-232 1140h422l128 -626l230 372l230 -372l128 626h422l-232 -1140h-368z" />
    <glyph glyph-name="X" unicode="X" horiz-adv-x="1576" 
d="M1703 1060l-427 -603l426 -617h-585l-150 120l-67 100l-151 -220h-586l-150 120l436 617l-437 603h577l150 -120l80 -118l-33 -51l190 289h577zM786 249l186 -279h561l-419 607l420 593h-553l-195 -297l-202 297h-552l429 -593l-429 -607h562zM988 0l-201 303l-209 -303
h-488l408 578l-408 562h478l219 -321l211 321h478l-399 -562l399 -578h-488z" />
    <glyph glyph-name="X" unicode="x" horiz-adv-x="1576" 
d="M1703 1060l-427 -603l426 -617h-585l-150 120l-67 100l-151 -220h-586l-150 120l436 617l-437 603h577l150 -120l80 -118l-33 -51l190 289h577zM786 249l186 -279h561l-419 607l420 593h-553l-195 -297l-202 297h-552l429 -593l-429 -607h562zM988 0l-201 303l-209 -303
h-488l408 578l-408 562h478l219 -321l211 321h478l-399 -562l399 -578h-488z" />
    <glyph glyph-name="X" unicode="x" horiz-adv-x="1576" 
d="M1703 1060l-427 -603l426 -617h-585l-150 120l-67 100l-151 -220h-586l-150 120l436 617l-437 603h577l150 -120l80 -118l-33 -51l190 289h577zM786 249l186 -279h561l-419 607l420 593h-553l-195 -297l-202 297h-552l429 -593l-429 -607h562zM988 0l-201 303l-209 -303
h-488l408 578l-408 562h478l219 -321l211 321h478l-399 -562l399 -578h-488z" />
    <glyph glyph-name="Y" unicode="Y" horiz-adv-x="1540" 
d="M1532 1180l150 -120l-509 -817v-403h-536l-150 120v403l-509 817h542l150 -120l128 -242l192 362h542zM-4 1170l501 -804v-396h516v396l501 804h-518l-241 -456l-241 456h-518zM527 0v374l-477 766h446l259 -489l259 489h446l-477 -766v-374h-456z" />
    <glyph glyph-name="Y" unicode="y" horiz-adv-x="1540" 
d="M1532 1180l150 -120l-509 -817v-403h-536l-150 120v403l-509 817h542l150 -120l128 -242l192 362h542zM-4 1170l501 -804v-396h516v396l501 804h-518l-241 -456l-241 456h-518zM527 0v374l-477 766h446l259 -489l259 489h446l-477 -766v-374h-456z" />
    <glyph glyph-name="Y" unicode="y" horiz-adv-x="1540" 
d="M1532 1180l150 -120l-509 -817v-403h-536l-150 120v403l-509 817h542l150 -120l128 -242l192 362h542zM-4 1170l501 -804v-396h516v396l501 804h-518l-241 -456l-241 456h-518zM527 0v374l-477 766h446l259 -489l259 489h446l-477 -766v-374h-456z" />
    <glyph glyph-name="Z" unicode="Z" horiz-adv-x="1640" 
d="M1640 1060v-330l-421 -370h271l150 -120v-400h-1340l-150 120v330l421 370h-271l-150 120v400h1340zM1480 350h-575l575 505v315h-1320v-380h575l-575 -505v-315h1320v380zM1450 868l-625 -548h625v-320h-1260v272l625 548h-625v320h1260v-272z" />
    <glyph glyph-name="Z" unicode="z" horiz-adv-x="1640" 
d="M1640 1060v-330l-421 -370h271l150 -120v-400h-1340l-150 120v330l421 370h-271l-150 120v400h1340zM1480 350h-575l575 505v315h-1320v-380h575l-575 -505v-315h1320v380zM1450 868l-625 -548h625v-320h-1260v272l625 548h-625v320h1260v-272z" />
    <glyph glyph-name="Z" unicode="z" horiz-adv-x="1640" 
d="M1640 1060v-330l-421 -370h271l150 -120v-400h-1340l-150 120v330l421 370h-271l-150 120v400h1340zM1480 350h-575l575 505v315h-1320v-380h575l-575 -505v-315h1320v380zM1450 868l-625 -548h625v-320h-1260v272l625 548h-625v320h1260v-272z" />
    <glyph glyph-name="bracketleft" unicode="[" horiz-adv-x="698" 
d="M808 1202h-240v-1384h90l150 -120v-208h-448l-150 120v1920h448l150 -120v-208zM648 -192h-240v1524h240v188h-428v-1900h428v188zM378 1362v-1584h240v-128h-368v1840h368v-128h-240z" />
    <glyph glyph-name="backslash" unicode="\" horiz-adv-x="714" 
d="M370 1331l473 -1707l-200 -55l-150 120l-472 1707l199 55zM33 1389l467 -1688l181 50l-468 1688zM644 -228l-123 -34l-451 1630l122 34z" />
    <glyph glyph-name="bracketright" unicode="]" horiz-adv-x="698" 
d="M488 1530l150 -120v-1920h-448l-150 120v208h240v1384h-90l-150 120v208h448zM50 -192v-188h428v1900h-428v-188h240v-1524h-240zM448 1490v-1840h-368v128h240v1584h-240v128h368z" />
    <glyph glyph-name="asciicircum" unicode="^" horiz-adv-x="1016" 
d="M744 1060l330 -590h-237l-150 120l-70 126l-138 -246h-237l-150 120l330 590h172zM508 931l185 -331h214l-319 570h-160l-319 -570h214zM710 630l-202 362l-202 -362h-146l285 510h126l285 -510h-146z" />
    <glyph glyph-name="underscore" unicode="_" horiz-adv-x="1440" 
d="M1320 48l150 -120v-208h-1200l-150 120v208h1200zM130 38v-188h1180v188h-1180zM160 -120v128h1120v-128h-1120z" />
    <glyph glyph-name="grave" unicode="`" horiz-adv-x="932" 
d="M878 1440l75 -60l-21 -127l-803 119l-75 60l21 127zM83 1548l-17 -108l783 -116l17 108zM100 1466l8 48l724 -108l-8 -48z" />
    <glyph glyph-name="braceleft" unicode="{" horiz-adv-x="698" 
d="M608 660q0 -144 -81 -213q81 -66 81 -207v-382q0 -23 4 -40h46l150 -120v-208h-40q-132 0 -232 79l-150 120q-64 51 -100 126t-36 163v368h-30l-150 120v208h40q75 0 107.5 25t32.5 81v382q0 156 106 262t262 106h40l150 -120v-208h-40q-65 0 -110 -40q-50 -45 -50 -120
v-382zM618 -192q-74 0 -122 48t-48 122v382q0 144 -86 207q86 65 86 213v382q0 74 48 122t122 48h30v188h-30q-152 0 -255 -103t-103 -255v-382q0 -61 -35.5 -88.5t-114.5 -27.5h-30v-188h30q79 0 114.5 -27.5t35.5 -88.5v-382q0 -152 103 -255t255 -103h30v188h-30z
M418 -22q0 -89 57.5 -144.5t142.5 -55.5v-128q-138 0 -233 93.5t-95 234.5v382q0 146 -180 146v128q180 0 180 146v382q0 141 95 234.5t233 93.5v-128q-85 0 -142.5 -55.5t-57.5 -144.5v-382q0 -165 -113 -210q113 -45 113 -210v-382z" />
    <glyph glyph-name="bar" unicode="|" horiz-adv-x="628" 
d="M418 1530l150 -120v-1920h-208l-150 120v1920h208zM220 1520v-1900h188v1900h-188zM250 -350v1840h128v-1840h-128z" />
    <glyph glyph-name="braceright" unicode="}" horiz-adv-x="698" 
d="M628 674l150 -120v-208h-40q-76 0 -108 -25q-32 -26 -32 -81v-382q0 -166 -118 -274q-104 -94 -250 -94h-40l-150 120v208h40q70 0 115 45.5t45 114.5v382q0 141 81 207q-81 69 -81 213v382q0 23 -4 40h-46l-150 120v208h40q132 0 232 -79l150 -120q64 -51 100 -126
t36 -163v-368h30zM50 -192v-188h30q152 0 255 103t103 255v382q0 61 35.5 88.5t114.5 27.5h30v188h-30q-79 0 -114.5 27.5t-35.5 88.5v382q0 152 -103 255t-255 103h-30v-188h30q74 0 122 -48t48 -122v-382q0 -148 86 -213q-86 -63 -86 -207v-382q0 -74 -48 -122t-122 -48
h-30zM408 -22q0 -141 -95 -234.5t-233 -93.5v128q85 0 142.5 55.5t57.5 144.5v382q0 165 113 210q-113 45 -113 210v382q0 89 -57.5 144.5t-142.5 55.5v128q138 0 233 -93.5t95 -234.5v-382q0 -146 180 -146v-128q-180 0 -180 -146v-382z" />
    <glyph glyph-name="asciitilde" unicode="~" horiz-adv-x="1178" 
d="M1088 574l136 -157l-30 -26q-121 -105 -254 -105q-110 0 -248 71q-94 49 -154 49q-32 0 -57.5 -11.5t-59.5 -41.5l-31 -27l-150 120l-136 157l30 26q121 105 254 105q110 0 248 -71q94 -49 154 -49q32 0 57.5 11.5t59.5 41.5l31 27zM118 602l123 -142l23 21
q34 31 61.5 43t62.5 12q63 0 159 -50q136 -70 243 -70q123 0 247 103l23 19l-123 142l-23 -21q-34 -31 -61.5 -43t-62.5 -12q-63 0 -159 50q-136 70 -243 70q-123 0 -247 -103zM388 566q-73 0 -144 -63l-84 96q108 95 228 95q99 0 230 -67q103 -53 172 -53q73 0 144 63
l84 -96q-108 -95 -228 -95q-99 0 -230 67q-103 53 -172 53z" />
    <glyph glyph-name="exclamdown" unicode="&#xa1;" horiz-adv-x="900" 
d="M730 620l223 -780h-706l-150 120l207 723l-122 97v400h536l150 -120v-400h-188zM192 1170v-380h516v380h-516zM222 820v320h456v-320h-456zM328 730l-218 -760h680l-218 760h-244zM550 700l200 -700h-600l200 700h200z" />
    <glyph glyph-name="cent" unicode="&#xa2;" horiz-adv-x="1240" 
d="M1280 666v-39l-389 -136l239 -83l150 -120v-55q0 -102 -73 -165q-67 -58 -175 -58h-153v-170h-208l-150 120v50h-3q-103 0 -171 55l-150 120q-77 63 -77 168v433q0 100 69 162t179 62h153v170h208l150 -120v-50h3q105 0 171 -54l150 -120q77 -61 77 -170zM1120 401
l-384 134v-58q0 -33 -40 -33h-144q-38 0 -38 33v185q0 34 38 34h144q40 0 40 -34v-42l384 134v32q0 96 -65.5 155t-172.5 59h-163v170h-188v-170h-163q-107 0 -172.5 -59t-65.5 -155v-433q0 -95 66 -154t172 -59h163v-170h188v170h163q106 0 172 59t66 154v48zM552 414h144
q32 0 51 17.5t19 45.5v16l324 -113v-27q0 -82 -57 -132.5t-151 -50.5h-193v-170h-128v170h-193q-94 0 -151 50.5t-57 132.5v433q0 83 57 133.5t151 50.5h193v170h128v-170h193q94 0 151 -50.5t57 -133.5v-11l-324 -113q0 29 -19.5 46.5t-50.5 17.5h-144q-31 0 -49.5 -17.5
t-18.5 -46.5v-185q0 -28 18.5 -45.5t49.5 -17.5zM726 549l126 -44l-76 61h-74q-14 0 -21 -6t-7 -18v-88h22q30 0 30 23v72z" />
    <glyph glyph-name="sterling" unicode="&#xa3;" 
d="M1710 657l-386 -135v-166h236l150 -120v-396h-1400l-150 120v398q59 -7 107 7l-107 86v208h170v265q0 111 82 183.5t207 72.5h650q116 0 198 -64l150 -120q93 -74 93 -192v-147zM1550 346h-728q25 52 25 115h317v188l386 135v140q0 106 -79.5 176t-201.5 70h-650
q-121 0 -200 -70t-79 -176v-275h-170v-188h170v-30q0 -43 -47.5 -66.5t-122.5 -17.5v-377h1380v376zM817 461q0 -91 -54 -145h757v-316h-1320v316q76 0 123 31.5t47 83.5v60h-170v128h170v305q0 94 70 155t179 61h650q109 0 180 -61t71 -155v-119l-446 -156v103
q0 34 -23.5 53t-67.5 19h-75q-44 0 -67.5 -19t-23.5 -53v-133h317v-128h-317v-30zM908 794h75q61 0 61 -42v-103h-197v103q0 42 61 42z" />
    <glyph glyph-name="yen" unicode="&#xa5;" horiz-adv-x="1540" 
d="M1682 1060l-302 -486l125 -100v-290h-332v-344h-536l-150 120v224h-182l-150 120v290h188l-365 586h542l150 -120l128 -242l192 362h542zM165 584v-270h332v-344h516v344h332v270h-196l365 586h-518l-241 -456l-241 456h-518l365 -586h-196zM527 0v344h-332v90h332v30
h-332v90h220l-365 586h446l259 -489l259 489h446l-365 -586h220v-90h-332v-30h332v-90h-332v-344h-456z" />
    <glyph glyph-name="brokenbar" unicode="&#xa6;" horiz-adv-x="628" 
d="M418 1530l150 -120v-790h-208l-150 120v790h208zM220 1520v-770h188v770h-188zM250 780v710h128v-710h-128zM210 400h208l150 -120v-790h-208l-150 120v790zM220 390v-770h188v770h-188zM250 -350v710h128v-710h-128z" />
    <glyph glyph-name="copyright" unicode="&#xa9;" horiz-adv-x="2258" 
d="M2037 1198q76 -61 118.5 -149t42.5 -193v-812q0 -202 -147 -330q-137 -118 -337 -118h-870q-190 0 -323 106l-150 120q-77 62 -119 150t-42 192v812q0 194 137.5 321t346.5 127h870q190 0 323 -106zM220 164q0 -190 134.5 -314t339.5 -124h870q205 0 339.5 124t134.5 314
v812q0 190 -134.5 314t-339.5 124h-870q-205 0 -339.5 -124t-134.5 -314v-812zM1564 -244h-870q-193 0 -318.5 115t-125.5 293v812q0 178 125.5 293t318.5 115h870q193 0 318.5 -115t125.5 -293v-812q0 -178 -125.5 -293t-318.5 -115zM378 164q0 -123 88 -201.5t228 -78.5
h870q140 0 228 78.5t88 201.5v812q0 123 -88 201.5t-228 78.5h-870q-140 0 -228 -78.5t-88 -201.5v-812zM1564 -86h-870q-128 0 -207 69t-79 181v812q0 112 79 181t207 69h870q128 0 207 -69t79 -181v-812q0 -112 -79 -181t-207 -69zM568 44q0 -58 23 -106q48 -14 103 -14
h870q121 0 197 64q79 66 79 176v812q0 56 -24 106q-48 14 -102 14h-870q-121 0 -197 -64q-79 -66 -79 -176v-812zM851 65l-150 120q-77 63 -77 168v433q0 100 69 162t179 62h514q105 0 171 -54l150 -120q77 -61 77 -170v-39l-388 -136l238 -83l150 -120v-55q0 -102 -73 -165
q-67 -58 -175 -58h-514q-103 0 -171 55zM634 353q0 -95 66 -154t172 -59h514q106 0 172 59t66 154v48l-384 134v-58q0 -33 -40 -33h-144q-38 0 -38 33v185q0 34 38 34h144q40 0 40 -34v-42l384 134v32q0 96 -65.5 155t-172.5 59h-514q-107 0 -172.5 -59t-65.5 -155v-433z
M1386 170h-514q-94 0 -151 50.5t-57 132.5v433q0 83 57 133.5t151 50.5h514q94 0 151 -50.5t57 -133.5v-11l-324 -113q0 29 -19.5 46.5t-50.5 17.5h-144q-31 0 -49.5 -17.5t-18.5 -46.5v-185q0 -28 18.5 -45.5t49.5 -17.5h144q32 0 51 17.5t19 45.5v16l324 -113v-27
q0 -82 -57 -132.5t-151 -50.5zM1178 542v-88h22q30 0 30 23v72l126 -44l-76 61h-74q-14 0 -21 -6t-7 -18z" />
    <glyph glyph-name="guillemotleft" unicode="&#xab;" horiz-adv-x="1755" 
d="M1820 840l-279 -390l279 -390h-549l-150 120l-252 354l-60 -84l279 -390h-549l-150 120l-278 390l278 390h549l117 -93l66 93h549zM123 570l271 -380h525l-272 380l272 380h-525zM855 570l271 -380h525l-272 380l272 380h-525zM860 220h-450l-250 350l250 350h450
l-250 -350zM1595 220h-450l-250 350l250 350h450l-250 -350z" />
    <glyph glyph-name="registered" unicode="&#xae;" horiz-adv-x="2258" 
d="M2037 1198q76 -61 118.5 -149t42.5 -193v-812q0 -202 -147 -330q-137 -118 -337 -118h-870q-190 0 -323 106l-150 120q-77 62 -119 150t-42 192v812q0 194 137.5 321t346.5 127h870q190 0 323 -106zM220 164q0 -190 134.5 -314t339.5 -124h870q205 0 339.5 124t134.5 314
v812q0 190 -134.5 314t-339.5 124h-870q-205 0 -339.5 -124t-134.5 -314v-812zM1564 -244h-870q-193 0 -318.5 115t-125.5 293v812q0 178 125.5 293t318.5 115h870q193 0 318.5 -115t125.5 -293v-812q0 -178 -125.5 -293t-318.5 -115zM378 164q0 -123 88 -201.5t228 -78.5
h870q140 0 228 78.5t88 201.5v812q0 123 -88 201.5t-228 78.5h-870q-140 0 -228 -78.5t-88 -201.5v-812zM1564 -86h-870q-128 0 -207 69t-79 181v812q0 112 79 181t207 69h870q128 0 207 -69t79 -181v-812q0 -112 -79 -181t-207 -69zM1840 976q0 56 -24 106q-48 14 -102 14
h-870q-121 0 -197 -64q-16 -14 -23 -22h782q99 0 171 -56l150 -120q87 -71 87 -185v-139q0 -104 -74 -173q-26 -23 -60 -40l151 -202q9 33 9 69v812zM568 44q0 -58 23 -106q48 -14 103 -14h870q121 0 197 64q16 14 23 22h-343l-150 120l-92 140h-25v-260h-400l-150 120v880
q-56 -62 -56 -154v-812zM1014 400h112l170 -260h428l-209 281q64 27 101.5 83t37.5 126v139q0 100 -70.5 165.5t-177.5 65.5h-772v-860h380v260zM1313 170l-170 260h-159v-260h-320v800h742q95 0 156.5 -56.5t61.5 -144.5v-139q0 -72 -43.5 -124t-114.5 -69l198 -267h-351z
M984 752v-129h263q31 0 49.5 17.5t18.5 46.5v1q0 29 -18.5 46.5t-49.5 17.5h-263zM1285 687q0 -34 -38 -34h-233v69h233q38 0 38 -34v-1z" />
    <glyph glyph-name="degree" unicode="&#xb0;" horiz-adv-x="858" 
d="M791 1003q97 -76 97 -217v-56q0 -130 -85 -206q-74 -68 -195 -68h-58q-109 0 -184 58l-150 120q-96 76 -96 216v56q0 124 77 199t203 75h58q107 0 183 -57zM130 850q0 -119 74 -191.5t196 -72.5h58q122 0 196 72.5t74 191.5v56q0 119 -74 191.5t-196 72.5h-58
q-122 0 -196 -72.5t-74 -191.5v-56zM458 616h-58q-110 0 -175 63.5t-65 170.5v56q0 107 65 170.5t175 63.5h58q110 0 175 -63.5t65 -170.5v-56q0 -107 -65 -170.5t-175 -63.5zM288 850q0 -106 112 -106h58q112 0 112 106v56q0 106 -112 106h-58q-112 0 -112 -106v-56z
M458 774h-58q-44 0 -63 17.5t-19 58.5v56q0 41 19 58.5t63 17.5h58q44 0 63 -17.5t19 -58.5v-56q0 -41 -19 -58.5t-63 -17.5zM530 850v1q-24 -3 -35 -13q-17 -14 -17 -52v-1q29 4 40.5 18.5t11.5 46.5z" />
    <glyph glyph-name="acute" unicode="&#xb4;" horiz-adv-x="248" 
d="M188 1830l75 -60v-530h-128l-75 60v530h128zM70 1820v-510h108v510h-108zM100 1340v450h48v-450h-48z" />
    <glyph glyph-name="paragraph" unicode="&#xb6;" horiz-adv-x="1340" 
d="M1130 1180l150 -120v-1220h-208l-80 64v-64h-208l-150 120v215h-73q-140 0 -236 79l-150 120q-115 94 -115 247v233q0 141 99.5 233.5t251.5 92.5h719zM70 621q0 -137 96.5 -226.5t244.5 -89.5h233v-335h188v1012h100v-1012h188v1200h-709q-148 0 -244.5 -89.5
t-96.5 -226.5v-233zM674 335h-263q-135 0 -223 81t-88 205v233q0 124 88 205t223 81h679v-1140h-128v1012h-160v-1012h-128v335z" />
    <glyph glyph-name="periodcentered" unicode="&#xb7;" horiz-adv-x="776" 
d="M656 770l150 -120v-400h-536l-150 120v400h536zM130 760v-380h516v380h-516zM160 410v320h456v-320h-456z" />
    <glyph glyph-name="guillemotright" unicode="&#xbb;" horiz-adv-x="1755" 
d="M1516 840l278 -390l-278 -390h-549l-118 95l-68 -95h-549l-150 120l279 390l-279 390h549l150 -120l254 -356l61 86l-279 390h549zM373 570l-272 -380h525l271 380l-271 380h-525zM1108 570l-272 -380h525l271 380l-271 380h-525zM610 920l250 -350l-250 -350h-450
l250 350l-250 350h450zM1345 220h-450l250 350l-250 350h450l250 -350z" />
    <glyph glyph-name="questiondown" unicode="&#xbf;" horiz-adv-x="1380" 
d="M1320 283l150 -120v-67q0 -104 -73 -174q-84 -82 -218 -82h-660q-118 0 -200 66l-150 120q-89 74 -89 190v198q0 141 99.5 233.5t251.5 92.5h51l-50 40v400h536l150 -120v-400h-50l50 -40v-266zM442 1170v-380h516v380h-516zM472 820v320h456v-320h-456zM90 216
q0 -106 79 -176t200 -70h660q122 0 201.5 70t79.5 176v60l-352 123v331h-527q-148 0 -244.5 -89.5t-96.5 -226.5v-198zM1029 0h-660q-109 0 -179 61t-70 155v198q0 124 88 205t223 81h497v-258h-270q-44 0 -67.5 -19t-23.5 -53v-22q0 -34 23.5 -53t67.5 -19h85q44 0 67.5 19
t23.5 53v63l446 -156v-39q0 -94 -71 -155t-180 -61zM597 370q0 42 61 42h146v-64q0 -42 -61 -42h-85q-61 0 -61 42v22z" />
    <glyph glyph-name="Agrave" unicode="&#xc0;" 
d="M1273 1213l-803 119l-75 60l21 127l803 -119l75 -60zM424 1508l-17 -108l783 -116l17 108zM441 1426l8 48l724 -108l-8 -48zM1340 1060l479 -1220h-536l-150 120l-25 70h-313l-68 -190h-536l-150 120l479 1220h670zM1072 160l68 -190h514l-471 1200h-656l-471 -1200h514
l68 190h434zM1161 0l-68 190h-476l-68 -190h-449l447 1140h616l447 -1140h-449zM716 470h277l-139 388zM759 500l95 268l96 -268h-191z" />
    <glyph glyph-name="Agrave" unicode="&#xe0;" 
d="M1273 1213l-803 119l-75 60l21 127l803 -119l75 -60zM424 1508l-17 -108l783 -116l17 108zM441 1426l8 48l724 -108l-8 -48zM1340 1060l479 -1220h-536l-150 120l-25 70h-313l-68 -190h-536l-150 120l479 1220h670zM1072 160l68 -190h514l-471 1200h-656l-471 -1200h514
l68 190h434zM1161 0l-68 190h-476l-68 -190h-449l447 1140h616l447 -1140h-449zM716 470h277l-139 388zM759 500l95 268l96 -268h-191z" />
    <glyph glyph-name="Agrave" unicode="&#xe0;" 
d="M1273 1213l-803 119l-75 60l21 127l803 -119l75 -60zM424 1508l-17 -108l783 -116l17 108zM441 1426l8 48l724 -108l-8 -48zM1340 1060l479 -1220h-536l-150 120l-25 70h-313l-68 -190h-536l-150 120l479 1220h670zM1072 160l68 -190h514l-471 1200h-656l-471 -1200h514
l68 190h434zM1161 0l-68 190h-476l-68 -190h-449l447 1140h616l447 -1140h-449zM716 470h277l-139 388zM759 500l95 268l96 -268h-191z" />
    <glyph glyph-name="Aacute" unicode="&#xc1;" 
d="M994 1200h-128l-75 60v530h128l75 -60v-530zM801 1780v-510h108v510h-108zM831 1300v450h48v-450h-48zM1340 1060l479 -1220h-536l-150 120l-25 70h-313l-68 -190h-536l-150 120l479 1220h670zM1072 160l68 -190h514l-471 1200h-656l-471 -1200h514l68 190h434zM1161 0
l-68 190h-476l-68 -190h-449l447 1140h616l447 -1140h-449zM716 470h277l-139 388zM759 500l95 268l96 -268h-191z" />
    <glyph glyph-name="Aacute" unicode="&#xe1;" 
d="M994 1200h-128l-75 60v530h128l75 -60v-530zM801 1780v-510h108v510h-108zM831 1300v450h48v-450h-48zM1340 1060l479 -1220h-536l-150 120l-25 70h-313l-68 -190h-536l-150 120l479 1220h670zM1072 160l68 -190h514l-471 1200h-656l-471 -1200h514l68 190h434zM1161 0
l-68 190h-476l-68 -190h-449l447 1140h616l447 -1140h-449zM716 470h277l-139 388zM759 500l95 268l96 -268h-191z" />
    <glyph glyph-name="Aacute" unicode="&#xe1;" 
d="M994 1200h-128l-75 60v530h128l75 -60v-530zM801 1780v-510h108v510h-108zM831 1300v450h48v-450h-48zM1340 1060l479 -1220h-536l-150 120l-25 70h-313l-68 -190h-536l-150 120l479 1220h670zM1072 160l68 -190h514l-471 1200h-656l-471 -1200h514l68 190h434zM1161 0
l-68 190h-476l-68 -190h-449l447 1140h616l447 -1140h-449zM716 470h277l-139 388zM759 500l95 268l96 -268h-191z" />
    <glyph glyph-name="Acircumflex" unicode="&#xc2;" 
d="M495 1188l-75 60l-34 123l469 134l469 -134l75 -60l-34 -123l-435 123zM398 1364l29 -104l428 121l428 -121l29 104l-457 131zM855 1413l-407 -116l-13 46l420 120l420 -120l-13 -46zM1340 1060l479 -1220h-536l-150 120l-25 70h-313l-68 -190h-536l-150 120l479 1220
h670zM1072 160l68 -190h514l-471 1200h-656l-471 -1200h514l68 190h434zM1161 0l-68 190h-476l-68 -190h-449l447 1140h616l447 -1140h-449zM716 470h277l-139 388zM759 500l95 268l96 -268h-191z" />
    <glyph glyph-name="Acircumflex" unicode="&#xe2;" 
d="M495 1188l-75 60l-34 123l469 134l469 -134l75 -60l-34 -123l-435 123zM398 1364l29 -104l428 121l428 -121l29 104l-457 131zM855 1413l-407 -116l-13 46l420 120l420 -120l-13 -46zM1340 1060l479 -1220h-536l-150 120l-25 70h-313l-68 -190h-536l-150 120l479 1220
h670zM1072 160l68 -190h514l-471 1200h-656l-471 -1200h514l68 190h434zM1161 0l-68 190h-476l-68 -190h-449l447 1140h616l447 -1140h-449zM716 470h277l-139 388zM759 500l95 268l96 -268h-191z" />
    <glyph glyph-name="Acircumflex" unicode="&#xe2;" 
d="M495 1188l-75 60l-34 123l469 134l469 -134l75 -60l-34 -123l-435 123zM398 1364l29 -104l428 121l428 -121l29 104l-457 131zM855 1413l-407 -116l-13 46l420 120l420 -120l-13 -46zM1340 1060l479 -1220h-536l-150 120l-25 70h-313l-68 -190h-536l-150 120l479 1220
h670zM1072 160l68 -190h514l-471 1200h-656l-471 -1200h514l68 190h434zM1161 0l-68 190h-476l-68 -190h-449l447 1140h616l447 -1140h-449zM716 470h277l-139 388zM759 500l95 268l96 -268h-191z" />
    <glyph glyph-name="Atilde" unicode="&#xc3;" 
d="M603 1240l-75 60l-69 106q100 80 220 80q69 0 195 -39q106 -33 157 -33q73 0 151 58l75 -60l69 -106q-100 -80 -220 -80q-69 0 -195 39q-106 33 -157 33q-73 0 -151 -58zM472 1404l59 -90q73 54 148 54q54 0 160 -33q126 -39 192 -39q110 0 207 72l-59 90
q-73 -54 -148 -54q-54 0 -160 33q-126 39 -192 39q-110 0 -207 -72zM679 1398q-73 0 -140 -42l-26 40q79 50 166 50q64 0 183 -37q113 -35 169 -35q73 0 140 42l26 -40q-79 -50 -166 -50q-64 0 -183 37q-113 35 -169 35zM1340 1060l479 -1220h-536l-150 120l-25 70h-313
l-68 -190h-536l-150 120l479 1220h670zM1072 160l68 -190h514l-471 1200h-656l-471 -1200h514l68 190h434zM1161 0l-68 190h-476l-68 -190h-449l447 1140h616l447 -1140h-449zM716 470h277l-139 388zM759 500l95 268l96 -268h-191z" />
    <glyph glyph-name="Atilde" unicode="&#xe3;" 
d="M603 1240l-75 60l-69 106q100 80 220 80q69 0 195 -39q106 -33 157 -33q73 0 151 58l75 -60l69 -106q-100 -80 -220 -80q-69 0 -195 39q-106 33 -157 33q-73 0 -151 -58zM472 1404l59 -90q73 54 148 54q54 0 160 -33q126 -39 192 -39q110 0 207 72l-59 90
q-73 -54 -148 -54q-54 0 -160 33q-126 39 -192 39q-110 0 -207 -72zM679 1398q-73 0 -140 -42l-26 40q79 50 166 50q64 0 183 -37q113 -35 169 -35q73 0 140 42l26 -40q-79 -50 -166 -50q-64 0 -183 37q-113 35 -169 35zM1340 1060l479 -1220h-536l-150 120l-25 70h-313
l-68 -190h-536l-150 120l479 1220h670zM1072 160l68 -190h514l-471 1200h-656l-471 -1200h514l68 190h434zM1161 0l-68 190h-476l-68 -190h-449l447 1140h616l447 -1140h-449zM716 470h277l-139 388zM759 500l95 268l96 -268h-191z" />
    <glyph glyph-name="Atilde" unicode="&#xe3;" 
d="M603 1240l-75 60l-69 106q100 80 220 80q69 0 195 -39q106 -33 157 -33q73 0 151 58l75 -60l69 -106q-100 -80 -220 -80q-69 0 -195 39q-106 33 -157 33q-73 0 -151 -58zM472 1404l59 -90q73 54 148 54q54 0 160 -33q126 -39 192 -39q110 0 207 72l-59 90
q-73 -54 -148 -54q-54 0 -160 33q-126 39 -192 39q-110 0 -207 -72zM679 1398q-73 0 -140 -42l-26 40q79 50 166 50q64 0 183 -37q113 -35 169 -35q73 0 140 42l26 -40q-79 -50 -166 -50q-64 0 -183 37q-113 35 -169 35zM1340 1060l479 -1220h-536l-150 120l-25 70h-313
l-68 -190h-536l-150 120l479 1220h670zM1072 160l68 -190h514l-471 1200h-656l-471 -1200h514l68 190h434zM1161 0l-68 190h-476l-68 -190h-449l447 1140h616l447 -1140h-449zM716 470h277l-139 388zM759 500l95 268l96 -268h-191z" />
    <glyph glyph-name="Egrave" unicode="&#xc8;" horiz-adv-x="1690" 
d="M1323 1213l-803 119l-75 60l21 127l803 -119l75 -60zM474 1508l-17 -108l783 -116l17 108zM491 1426l8 48l724 -108l-8 -48zM1700 1060v-375h-355l75 -60v-290h130l150 -120v-375h-1340l-150 120v1220h1340zM1540 325h-804v80h524v330h-524v80h804v355h-1320v-1200h1320
v355zM706 435v-140h804v-295h-1260v1140h1260v-295h-804v-140h524v-270h-524z" />
    <glyph glyph-name="Egrave" unicode="&#xe8;" horiz-adv-x="1690" 
d="M1323 1213l-803 119l-75 60l21 127l803 -119l75 -60zM474 1508l-17 -108l783 -116l17 108zM491 1426l8 48l724 -108l-8 -48zM1700 1060v-375h-355l75 -60v-290h130l150 -120v-375h-1340l-150 120v1220h1340zM1540 325h-804v80h524v330h-524v80h804v355h-1320v-1200h1320
v355zM706 435v-140h804v-295h-1260v1140h1260v-295h-804v-140h524v-270h-524z" />
    <glyph glyph-name="Egrave" unicode="&#xe8;" horiz-adv-x="1690" 
d="M1323 1213l-803 119l-75 60l21 127l803 -119l75 -60zM474 1508l-17 -108l783 -116l17 108zM491 1426l8 48l724 -108l-8 -48zM1700 1060v-375h-355l75 -60v-290h130l150 -120v-375h-1340l-150 120v1220h1340zM1540 325h-804v80h524v330h-524v80h804v355h-1320v-1200h1320
v355zM706 435v-140h804v-295h-1260v1140h1260v-295h-804v-140h524v-270h-524z" />
    <glyph glyph-name="Eacute" unicode="&#xc9;" horiz-adv-x="1690" 
d="M1044 1200h-128l-75 60v530h128l75 -60v-530zM851 1780v-510h108v510h-108zM881 1300v450h48v-450h-48zM1700 1060v-375h-355l75 -60v-290h130l150 -120v-375h-1340l-150 120v1220h1340zM1540 325h-804v80h524v330h-524v80h804v355h-1320v-1200h1320v355zM706 435v-140
h804v-295h-1260v1140h1260v-295h-804v-140h524v-270h-524z" />
    <glyph glyph-name="Eacute" unicode="&#xe9;" horiz-adv-x="1690" 
d="M1044 1200h-128l-75 60v530h128l75 -60v-530zM851 1780v-510h108v510h-108zM881 1300v450h48v-450h-48zM1700 1060v-375h-355l75 -60v-290h130l150 -120v-375h-1340l-150 120v1220h1340zM1540 325h-804v80h524v330h-524v80h804v355h-1320v-1200h1320v355zM706 435v-140
h804v-295h-1260v1140h1260v-295h-804v-140h524v-270h-524z" />
    <glyph glyph-name="Eacute" unicode="&#xe9;" horiz-adv-x="1690" 
d="M1044 1200h-128l-75 60v530h128l75 -60v-530zM851 1780v-510h108v510h-108zM881 1300v450h48v-450h-48zM1700 1060v-375h-355l75 -60v-290h130l150 -120v-375h-1340l-150 120v1220h1340zM1540 325h-804v80h524v330h-524v80h804v355h-1320v-1200h1320v355zM706 435v-140
h804v-295h-1260v1140h1260v-295h-804v-140h524v-270h-524z" />
    <glyph glyph-name="Ecircumflex" unicode="&#xca;" horiz-adv-x="1690" 
d="M545 1188l-75 60l-34 123l469 134l469 -134l75 -60l-34 -123l-435 123zM448 1364l29 -104l428 121l428 -121l29 104l-457 131zM905 1413l-407 -116l-13 46l420 120l420 -120l-13 -46zM1700 1060v-375h-355l75 -60v-290h130l150 -120v-375h-1340l-150 120v1220h1340z
M1540 325h-804v80h524v330h-524v80h804v355h-1320v-1200h1320v355zM706 435v-140h804v-295h-1260v1140h1260v-295h-804v-140h524v-270h-524z" />
    <glyph glyph-name="Ecircumflex" unicode="&#xea;" horiz-adv-x="1690" 
d="M545 1188l-75 60l-34 123l469 134l469 -134l75 -60l-34 -123l-435 123zM448 1364l29 -104l428 121l428 -121l29 104l-457 131zM905 1413l-407 -116l-13 46l420 120l420 -120l-13 -46zM1700 1060v-375h-355l75 -60v-290h130l150 -120v-375h-1340l-150 120v1220h1340z
M1540 325h-804v80h524v330h-524v80h804v355h-1320v-1200h1320v355zM706 435v-140h804v-295h-1260v1140h1260v-295h-804v-140h524v-270h-524z" />
    <glyph glyph-name="Ecircumflex" unicode="&#xea;" horiz-adv-x="1690" 
d="M545 1188l-75 60l-34 123l469 134l469 -134l75 -60l-34 -123l-435 123zM448 1364l29 -104l428 121l428 -121l29 104l-457 131zM905 1413l-407 -116l-13 46l420 120l420 -120l-13 -46zM1700 1060v-375h-355l75 -60v-290h130l150 -120v-375h-1340l-150 120v1220h1340z
M1540 325h-804v80h524v330h-524v80h804v355h-1320v-1200h1320v355zM706 435v-140h804v-295h-1260v1140h1260v-295h-804v-140h524v-270h-524z" />
    <glyph glyph-name="Igrave" unicode="&#xcc;" horiz-adv-x="956" 
d="M842 1400l75 -60l-21 -127l-803 119l-75 60l21 127zM47 1508l-17 -108l783 -116l17 108zM64 1426l8 48l724 -108l-8 -48zM210 1180h536l150 -120v-1220h-536l-150 120v1220zM220 1170v-1200h516v1200h-516zM250 0v1140h456v-1140h-456z" />
    <glyph glyph-name="Igrave" unicode="&#xec;" horiz-adv-x="956" 
d="M842 1400l75 -60l-21 -127l-803 119l-75 60l21 127zM47 1508l-17 -108l783 -116l17 108zM64 1426l8 48l724 -108l-8 -48zM210 1180h536l150 -120v-1220h-536l-150 120v1220zM220 1170v-1200h516v1200h-516zM250 0v1140h456v-1140h-456z" />
    <glyph glyph-name="Igrave" unicode="&#xec;" horiz-adv-x="956" 
d="M842 1400l75 -60l-21 -127l-803 119l-75 60l21 127zM47 1508l-17 -108l783 -116l17 108zM64 1426l8 48l724 -108l-8 -48zM210 1180h536l150 -120v-1220h-536l-150 120v1220zM220 1170v-1200h516v1200h-516zM250 0v1140h456v-1140h-456z" />
    <glyph glyph-name="Iacute" unicode="&#xcd;" horiz-adv-x="956" 
d="M617 1200h-128l-75 60v530h128l75 -60v-530zM424 1780v-510h108v510h-108zM454 1300v450h48v-450h-48zM746 1180l150 -120v-1220h-536l-150 120v1220h536zM220 1170v-1200h516v1200h-516zM250 0v1140h456v-1140h-456z" />
    <glyph glyph-name="Iacute" unicode="&#xed;" horiz-adv-x="956" 
d="M617 1200h-128l-75 60v530h128l75 -60v-530zM424 1780v-510h108v510h-108zM454 1300v450h48v-450h-48zM746 1180l150 -120v-1220h-536l-150 120v1220h536zM220 1170v-1200h516v1200h-516zM250 0v1140h456v-1140h-456z" />
    <glyph glyph-name="Iacute" unicode="&#xed;" horiz-adv-x="956" 
d="M617 1200h-128l-75 60v530h128l75 -60v-530zM424 1780v-510h108v510h-108zM454 1300v450h48v-450h-48zM746 1180l150 -120v-1220h-536l-150 120v1220h536zM220 1170v-1200h516v1200h-516zM250 0v1140h456v-1140h-456z" />
    <glyph glyph-name="Icircumflex" unicode="&#xce;" horiz-adv-x="956" 
d="M947 1371l75 -60l-34 -123l-435 123l-435 -123l-75 60l-34 123l469 134zM21 1364l29 -104l428 121l428 -121l29 104l-457 131zM478 1413l-407 -116l-13 46l420 120l420 -120l-13 -46zM210 1180h536l150 -120v-1220h-536l-150 120v1220zM220 1170v-1200h516v1200h-516z
M250 0v1140h456v-1140h-456z" />
    <glyph glyph-name="Icircumflex" unicode="&#xee;" horiz-adv-x="956" 
d="M947 1371l75 -60l-34 -123l-435 123l-435 -123l-75 60l-34 123l469 134zM21 1364l29 -104l428 121l428 -121l29 104l-457 131zM478 1413l-407 -116l-13 46l420 120l420 -120l-13 -46zM210 1180h536l150 -120v-1220h-536l-150 120v1220zM220 1170v-1200h516v1200h-516z
M250 0v1140h456v-1140h-456z" />
    <glyph glyph-name="Icircumflex" unicode="&#xee;" horiz-adv-x="956" 
d="M947 1371l75 -60l-34 -123l-435 123l-435 -123l-75 60l-34 123l469 134zM21 1364l29 -104l428 121l428 -121l29 104l-457 131zM478 1413l-407 -116l-13 46l420 120l420 -120l-13 -46zM210 1180h536l150 -120v-1220h-536l-150 120v1220zM220 1170v-1200h516v1200h-516z
M250 0v1140h456v-1140h-456z" />
    <glyph glyph-name="Eth" unicode="&#xd0;" horiz-adv-x="1840" 
d="M1694 982q116 -92 116 -248v-570q0 -127 -82 -215q-101 -109 -269 -109h-1069l-150 120v445h-130v208h130v567h1069q138 0 235 -78zM120 415h130v-445h1059q148 0 244.5 89t96.5 225v570q0 137 -96.5 226.5t-244.5 89.5h-1059v-567h-130v-188zM280 0v445h-130v128h130
v567h1029q135 0 223 -81t88 -205v-570q0 -124 -88 -204t-223 -80h-1029zM736 825v-252h208v-128h-208v-130h343q41 0 68 23.5t27 60.5v338q0 37 -27 61.5t-68 24.5zM974 415v188h-208v192l313 -2q29 0 47 -15.5t18 -40.5v-338q0 -24 -18 -39t-47 -15h-313v70h208zM926 613
h58l150 -120v170l-208 2v-52z" />
    <glyph glyph-name="Eth" unicode="&#xf0;" horiz-adv-x="1840" 
d="M1694 982q116 -92 116 -248v-570q0 -127 -82 -215q-101 -109 -269 -109h-1069l-150 120v445h-130v208h130v567h1069q138 0 235 -78zM120 415h130v-445h1059q148 0 244.5 89t96.5 225v570q0 137 -96.5 226.5t-244.5 89.5h-1059v-567h-130v-188zM280 0v445h-130v128h130
v567h1029q135 0 223 -81t88 -205v-570q0 -124 -88 -204t-223 -80h-1029zM736 825v-252h208v-128h-208v-130h343q41 0 68 23.5t27 60.5v338q0 37 -27 61.5t-68 24.5zM974 415v188h-208v192l313 -2q29 0 47 -15.5t18 -40.5v-338q0 -24 -18 -39t-47 -15h-313v70h208zM926 613
h58l150 -120v170l-208 2v-52z" />
    <glyph glyph-name="Eth" unicode="&#xf0;" horiz-adv-x="1840" 
d="M1694 982q116 -92 116 -248v-570q0 -127 -82 -215q-101 -109 -269 -109h-1069l-150 120v445h-130v208h130v567h1069q138 0 235 -78zM120 415h130v-445h1059q148 0 244.5 89t96.5 225v570q0 137 -96.5 226.5t-244.5 89.5h-1059v-567h-130v-188zM280 0v445h-130v128h130
v567h1029q135 0 223 -81t88 -205v-570q0 -124 -88 -204t-223 -80h-1029zM736 825v-252h208v-128h-208v-130h343q41 0 68 23.5t27 60.5v338q0 37 -27 61.5t-68 24.5zM974 415v188h-208v192l313 -2q29 0 47 -15.5t18 -40.5v-338q0 -24 -18 -39t-47 -15h-313v70h208zM926 613
h58l150 -120v170l-208 2v-52z" />
    <glyph glyph-name="Ntilde" unicode="&#xd1;" horiz-adv-x="1840" 
d="M668 1240l-75 60l-69 106q100 80 220 80q69 0 195 -39q106 -33 157 -33q73 0 151 58l75 -60l69 -106q-100 -80 -220 -80q-69 0 -195 39q-106 33 -157 33q-73 0 -151 -58zM537 1404l59 -90q73 54 148 54q54 0 160 -33q126 -39 192 -39q110 0 207 72l-59 90
q-73 -54 -148 -54q-54 0 -160 33q-126 39 -192 39q-110 0 -207 -72zM744 1398q-72 0 -140 -42l-26 40q79 50 166 50q64 0 183 -37q113 -35 169 -35q72 0 140 42l26 -40q-79 -50 -166 -50q-64 0 -183 37q-113 35 -169 35zM1630 1180l150 -120v-1220h-558l-150 120l-216 328
v-448h-496l-150 120v1220h558l150 -120l217 -334v454h495zM696 549l381 -579h543v1200h-475v-589l-382 589h-543v-1200h476v579zM1590 0h-496l-428 650v-650h-416v1140h496l429 -660v660h415v-1140z" />
    <glyph glyph-name="Ntilde" unicode="&#xf1;" horiz-adv-x="1840" 
d="M668 1240l-75 60l-69 106q100 80 220 80q69 0 195 -39q106 -33 157 -33q73 0 151 58l75 -60l69 -106q-100 -80 -220 -80q-69 0 -195 39q-106 33 -157 33q-73 0 -151 -58zM537 1404l59 -90q73 54 148 54q54 0 160 -33q126 -39 192 -39q110 0 207 72l-59 90
q-73 -54 -148 -54q-54 0 -160 33q-126 39 -192 39q-110 0 -207 -72zM744 1398q-72 0 -140 -42l-26 40q79 50 166 50q64 0 183 -37q113 -35 169 -35q72 0 140 42l26 -40q-79 -50 -166 -50q-64 0 -183 37q-113 35 -169 35zM1630 1180l150 -120v-1220h-558l-150 120l-216 328
v-448h-496l-150 120v1220h558l150 -120l217 -334v454h495zM696 549l381 -579h543v1200h-475v-589l-382 589h-543v-1200h476v579zM1590 0h-496l-428 650v-650h-416v1140h496l429 -660v660h415v-1140z" />
    <glyph glyph-name="Ntilde" unicode="&#xf1;" horiz-adv-x="1840" 
d="M668 1240l-75 60l-69 106q100 80 220 80q69 0 195 -39q106 -33 157 -33q73 0 151 58l75 -60l69 -106q-100 -80 -220 -80q-69 0 -195 39q-106 33 -157 33q-73 0 -151 -58zM537 1404l59 -90q73 54 148 54q54 0 160 -33q126 -39 192 -39q110 0 207 72l-59 90
q-73 -54 -148 -54q-54 0 -160 33q-126 39 -192 39q-110 0 -207 -72zM744 1398q-72 0 -140 -42l-26 40q79 50 166 50q64 0 183 -37q113 -35 169 -35q72 0 140 42l26 -40q-79 -50 -166 -50q-64 0 -183 37q-113 35 -169 35zM1630 1180l150 -120v-1220h-558l-150 120l-216 328
v-448h-496l-150 120v1220h558l150 -120l217 -334v454h495zM696 549l381 -579h543v1200h-475v-589l-382 589h-543v-1200h476v579zM1590 0h-496l-428 650v-650h-416v1140h496l429 -660v660h415v-1140z" />
    <glyph glyph-name="Ograve" unicode="&#xd2;" horiz-adv-x="1780" 
d="M1308 1213l-803 119l-75 60l21 127l803 -119l75 -60zM459 1508l-17 -108l783 -116l17 108zM476 1426l8 48l724 -108l-8 -48zM1659 995q91 -73 91 -191v-710q0 -105 -74 -174q-83 -80 -217 -80h-840q-118 0 -200 66l-150 120q-89 72 -89 188v710q0 111 82.5 183.5
t206.5 72.5h840q118 0 200 -65zM190 214q0 -105 79 -174.5t200 -69.5h840q122 0 201.5 69t79.5 175v710q0 106 -79.5 176t-201.5 70h-840q-121 0 -200 -70t-79 -176v-710zM1309 0h-840q-108 0 -178.5 60.5t-70.5 153.5v710q0 94 70.5 155t178.5 61h840q109 0 180 -61
t71 -155v-710q0 -93 -71 -153.5t-180 -60.5zM666 738v-338q0 -37 26 -60.5t67 -23.5h260q41 0 68 23.5t27 60.5v338q0 37 -27 61.5t-68 24.5h-260q-41 0 -67 -24.5t-26 -61.5zM759 346q-28 0 -45.5 15t-17.5 39v338q0 25 17.5 40.5t45.5 15.5h260q29 0 47 -15.5t18 -40.5
v-338q0 -24 -18 -39t-47 -15h-260zM1074 400v264h-165q-25 0 -38 -12q-15 -13 -15 -34v-262h163q25 0 40 12t15 32z" />
    <glyph glyph-name="Ograve" unicode="&#xf2;" horiz-adv-x="1780" 
d="M1308 1213l-803 119l-75 60l21 127l803 -119l75 -60zM459 1508l-17 -108l783 -116l17 108zM476 1426l8 48l724 -108l-8 -48zM1659 995q91 -73 91 -191v-710q0 -105 -74 -174q-83 -80 -217 -80h-840q-118 0 -200 66l-150 120q-89 72 -89 188v710q0 111 82.5 183.5
t206.5 72.5h840q118 0 200 -65zM190 214q0 -105 79 -174.5t200 -69.5h840q122 0 201.5 69t79.5 175v710q0 106 -79.5 176t-201.5 70h-840q-121 0 -200 -70t-79 -176v-710zM1309 0h-840q-108 0 -178.5 60.5t-70.5 153.5v710q0 94 70.5 155t178.5 61h840q109 0 180 -61
t71 -155v-710q0 -93 -71 -153.5t-180 -60.5zM666 738v-338q0 -37 26 -60.5t67 -23.5h260q41 0 68 23.5t27 60.5v338q0 37 -27 61.5t-68 24.5h-260q-41 0 -67 -24.5t-26 -61.5zM759 346q-28 0 -45.5 15t-17.5 39v338q0 25 17.5 40.5t45.5 15.5h260q29 0 47 -15.5t18 -40.5
v-338q0 -24 -18 -39t-47 -15h-260zM1074 400v264h-165q-25 0 -38 -12q-15 -13 -15 -34v-262h163q25 0 40 12t15 32z" />
    <glyph glyph-name="Ograve" unicode="&#xf2;" horiz-adv-x="1780" 
d="M1308 1213l-803 119l-75 60l21 127l803 -119l75 -60zM459 1508l-17 -108l783 -116l17 108zM476 1426l8 48l724 -108l-8 -48zM1659 995q91 -73 91 -191v-710q0 -105 -74 -174q-83 -80 -217 -80h-840q-118 0 -200 66l-150 120q-89 72 -89 188v710q0 111 82.5 183.5
t206.5 72.5h840q118 0 200 -65zM190 214q0 -105 79 -174.5t200 -69.5h840q122 0 201.5 69t79.5 175v710q0 106 -79.5 176t-201.5 70h-840q-121 0 -200 -70t-79 -176v-710zM1309 0h-840q-108 0 -178.5 60.5t-70.5 153.5v710q0 94 70.5 155t178.5 61h840q109 0 180 -61
t71 -155v-710q0 -93 -71 -153.5t-180 -60.5zM666 738v-338q0 -37 26 -60.5t67 -23.5h260q41 0 68 23.5t27 60.5v338q0 37 -27 61.5t-68 24.5h-260q-41 0 -67 -24.5t-26 -61.5zM759 346q-28 0 -45.5 15t-17.5 39v338q0 25 17.5 40.5t45.5 15.5h260q29 0 47 -15.5t18 -40.5
v-338q0 -24 -18 -39t-47 -15h-260zM1074 400v264h-165q-25 0 -38 -12q-15 -13 -15 -34v-262h163q25 0 40 12t15 32z" />
    <glyph glyph-name="Oacute" unicode="&#xd3;" horiz-adv-x="1780" 
d="M1029 1200h-128l-75 60v530h128l75 -60v-530zM836 1780v-510h108v510h-108zM866 1300v450h48v-450h-48zM1659 995q91 -73 91 -191v-710q0 -105 -74 -174q-83 -80 -217 -80h-840q-118 0 -200 66l-150 120q-89 72 -89 188v710q0 111 82.5 183.5t206.5 72.5h840
q118 0 200 -65zM190 214q0 -105 79 -174.5t200 -69.5h840q122 0 201.5 69t79.5 175v710q0 106 -79.5 176t-201.5 70h-840q-121 0 -200 -70t-79 -176v-710zM1309 0h-840q-108 0 -178.5 60.5t-70.5 153.5v710q0 94 70.5 155t178.5 61h840q109 0 180 -61t71 -155v-710
q0 -93 -71 -153.5t-180 -60.5zM666 738v-338q0 -37 26 -60.5t67 -23.5h260q41 0 68 23.5t27 60.5v338q0 37 -27 61.5t-68 24.5h-260q-41 0 -67 -24.5t-26 -61.5zM759 346q-28 0 -45.5 15t-17.5 39v338q0 25 17.5 40.5t45.5 15.5h260q29 0 47 -15.5t18 -40.5v-338
q0 -24 -18 -39t-47 -15h-260zM1074 400v264h-165q-25 0 -38 -12q-15 -13 -15 -34v-262h163q25 0 40 12t15 32z" />
    <glyph glyph-name="Oacute" unicode="&#xf3;" horiz-adv-x="1780" 
d="M1029 1200h-128l-75 60v530h128l75 -60v-530zM836 1780v-510h108v510h-108zM866 1300v450h48v-450h-48zM1659 995q91 -73 91 -191v-710q0 -105 -74 -174q-83 -80 -217 -80h-840q-118 0 -200 66l-150 120q-89 72 -89 188v710q0 111 82.5 183.5t206.5 72.5h840
q118 0 200 -65zM190 214q0 -105 79 -174.5t200 -69.5h840q122 0 201.5 69t79.5 175v710q0 106 -79.5 176t-201.5 70h-840q-121 0 -200 -70t-79 -176v-710zM1309 0h-840q-108 0 -178.5 60.5t-70.5 153.5v710q0 94 70.5 155t178.5 61h840q109 0 180 -61t71 -155v-710
q0 -93 -71 -153.5t-180 -60.5zM666 738v-338q0 -37 26 -60.5t67 -23.5h260q41 0 68 23.5t27 60.5v338q0 37 -27 61.5t-68 24.5h-260q-41 0 -67 -24.5t-26 -61.5zM759 346q-28 0 -45.5 15t-17.5 39v338q0 25 17.5 40.5t45.5 15.5h260q29 0 47 -15.5t18 -40.5v-338
q0 -24 -18 -39t-47 -15h-260zM1074 400v264h-165q-25 0 -38 -12q-15 -13 -15 -34v-262h163q25 0 40 12t15 32z" />
    <glyph glyph-name="Oacute" unicode="&#xf3;" horiz-adv-x="1780" 
d="M1029 1200h-128l-75 60v530h128l75 -60v-530zM836 1780v-510h108v510h-108zM866 1300v450h48v-450h-48zM1659 995q91 -73 91 -191v-710q0 -105 -74 -174q-83 -80 -217 -80h-840q-118 0 -200 66l-150 120q-89 72 -89 188v710q0 111 82.5 183.5t206.5 72.5h840
q118 0 200 -65zM190 214q0 -105 79 -174.5t200 -69.5h840q122 0 201.5 69t79.5 175v710q0 106 -79.5 176t-201.5 70h-840q-121 0 -200 -70t-79 -176v-710zM1309 0h-840q-108 0 -178.5 60.5t-70.5 153.5v710q0 94 70.5 155t178.5 61h840q109 0 180 -61t71 -155v-710
q0 -93 -71 -153.5t-180 -60.5zM666 738v-338q0 -37 26 -60.5t67 -23.5h260q41 0 68 23.5t27 60.5v338q0 37 -27 61.5t-68 24.5h-260q-41 0 -67 -24.5t-26 -61.5zM759 346q-28 0 -45.5 15t-17.5 39v338q0 25 17.5 40.5t45.5 15.5h260q29 0 47 -15.5t18 -40.5v-338
q0 -24 -18 -39t-47 -15h-260zM1074 400v264h-165q-25 0 -38 -12q-15 -13 -15 -34v-262h163q25 0 40 12t15 32z" />
    <glyph glyph-name="Ocircumflex" unicode="&#xd4;" horiz-adv-x="1780" 
d="M530 1188l-75 60l-34 123l469 134l469 -134l75 -60l-34 -123l-435 123zM433 1364l29 -104l428 121l428 -121l29 104l-457 131zM890 1413l-407 -116l-13 46l420 120l420 -120l-13 -46zM1659 995q91 -73 91 -191v-710q0 -105 -74 -174q-83 -80 -217 -80h-840
q-118 0 -200 66l-150 120q-89 72 -89 188v710q0 111 82.5 183.5t206.5 72.5h840q118 0 200 -65zM190 214q0 -105 79 -174.5t200 -69.5h840q122 0 201.5 69t79.5 175v710q0 106 -79.5 176t-201.5 70h-840q-121 0 -200 -70t-79 -176v-710zM1309 0h-840q-108 0 -178.5 60.5
t-70.5 153.5v710q0 94 70.5 155t178.5 61h840q109 0 180 -61t71 -155v-710q0 -93 -71 -153.5t-180 -60.5zM666 738v-338q0 -37 26 -60.5t67 -23.5h260q41 0 68 23.5t27 60.5v338q0 37 -27 61.5t-68 24.5h-260q-41 0 -67 -24.5t-26 -61.5zM759 346q-28 0 -45.5 15t-17.5 39
v338q0 25 17.5 40.5t45.5 15.5h260q29 0 47 -15.5t18 -40.5v-338q0 -24 -18 -39t-47 -15h-260zM1074 400v264h-165q-25 0 -38 -12q-15 -13 -15 -34v-262h163q25 0 40 12t15 32z" />
    <glyph glyph-name="Ocircumflex" unicode="&#xf4;" horiz-adv-x="1780" 
d="M530 1188l-75 60l-34 123l469 134l469 -134l75 -60l-34 -123l-435 123zM433 1364l29 -104l428 121l428 -121l29 104l-457 131zM890 1413l-407 -116l-13 46l420 120l420 -120l-13 -46zM1659 995q91 -73 91 -191v-710q0 -105 -74 -174q-83 -80 -217 -80h-840
q-118 0 -200 66l-150 120q-89 72 -89 188v710q0 111 82.5 183.5t206.5 72.5h840q118 0 200 -65zM190 214q0 -105 79 -174.5t200 -69.5h840q122 0 201.5 69t79.5 175v710q0 106 -79.5 176t-201.5 70h-840q-121 0 -200 -70t-79 -176v-710zM1309 0h-840q-108 0 -178.5 60.5
t-70.5 153.5v710q0 94 70.5 155t178.5 61h840q109 0 180 -61t71 -155v-710q0 -93 -71 -153.5t-180 -60.5zM666 738v-338q0 -37 26 -60.5t67 -23.5h260q41 0 68 23.5t27 60.5v338q0 37 -27 61.5t-68 24.5h-260q-41 0 -67 -24.5t-26 -61.5zM759 346q-28 0 -45.5 15t-17.5 39
v338q0 25 17.5 40.5t45.5 15.5h260q29 0 47 -15.5t18 -40.5v-338q0 -24 -18 -39t-47 -15h-260zM1074 400v264h-165q-25 0 -38 -12q-15 -13 -15 -34v-262h163q25 0 40 12t15 32z" />
    <glyph glyph-name="Ocircumflex" unicode="&#xf4;" horiz-adv-x="1780" 
d="M530 1188l-75 60l-34 123l469 134l469 -134l75 -60l-34 -123l-435 123zM433 1364l29 -104l428 121l428 -121l29 104l-457 131zM890 1413l-407 -116l-13 46l420 120l420 -120l-13 -46zM1659 995q91 -73 91 -191v-710q0 -105 -74 -174q-83 -80 -217 -80h-840
q-118 0 -200 66l-150 120q-89 72 -89 188v710q0 111 82.5 183.5t206.5 72.5h840q118 0 200 -65zM190 214q0 -105 79 -174.5t200 -69.5h840q122 0 201.5 69t79.5 175v710q0 106 -79.5 176t-201.5 70h-840q-121 0 -200 -70t-79 -176v-710zM1309 0h-840q-108 0 -178.5 60.5
t-70.5 153.5v710q0 94 70.5 155t178.5 61h840q109 0 180 -61t71 -155v-710q0 -93 -71 -153.5t-180 -60.5zM666 738v-338q0 -37 26 -60.5t67 -23.5h260q41 0 68 23.5t27 60.5v338q0 37 -27 61.5t-68 24.5h-260q-41 0 -67 -24.5t-26 -61.5zM759 346q-28 0 -45.5 15t-17.5 39
v338q0 25 17.5 40.5t45.5 15.5h260q29 0 47 -15.5t18 -40.5v-338q0 -24 -18 -39t-47 -15h-260zM1074 400v264h-165q-25 0 -38 -12q-15 -13 -15 -34v-262h163q25 0 40 12t15 32z" />
    <glyph glyph-name="Otilde" unicode="&#xd5;" horiz-adv-x="1780" 
d="M638 1240l-75 60l-69 106q100 80 220 80q69 0 195 -39q106 -33 157 -33q73 0 151 58l75 -60l69 -106q-100 -80 -220 -80q-69 0 -195 39q-106 33 -157 33q-73 0 -151 -58zM507 1404l59 -90q73 54 148 54q54 0 160 -33q126 -39 192 -39q110 0 207 72l-59 90
q-73 -54 -148 -54q-54 0 -160 33q-126 39 -192 39q-110 0 -207 -72zM714 1398q-72 0 -140 -42l-26 40q79 50 166 50q64 0 183 -37q113 -35 169 -35q72 0 140 42l26 -40q-79 -50 -166 -50q-64 0 -183 37q-113 35 -169 35zM1659 995q91 -73 91 -191v-710q0 -105 -74 -174
q-83 -80 -217 -80h-840q-118 0 -200 66l-150 120q-89 72 -89 188v710q0 111 82.5 183.5t206.5 72.5h840q118 0 200 -65zM190 214q0 -105 79 -174.5t200 -69.5h840q122 0 201.5 69t79.5 175v710q0 106 -79.5 176t-201.5 70h-840q-121 0 -200 -70t-79 -176v-710zM1309 0h-840
q-108 0 -178.5 60.5t-70.5 153.5v710q0 94 70.5 155t178.5 61h840q109 0 180 -61t71 -155v-710q0 -93 -71 -153.5t-180 -60.5zM666 738v-338q0 -37 26 -60.5t67 -23.5h260q41 0 68 23.5t27 60.5v338q0 37 -27 61.5t-68 24.5h-260q-41 0 -67 -24.5t-26 -61.5zM759 346
q-28 0 -45.5 15t-17.5 39v338q0 25 17.5 40.5t45.5 15.5h260q29 0 47 -15.5t18 -40.5v-338q0 -24 -18 -39t-47 -15h-260zM1074 400v264h-165q-25 0 -38 -12q-15 -13 -15 -34v-262h163q25 0 40 12t15 32z" />
    <glyph glyph-name="Otilde" unicode="&#xf5;" horiz-adv-x="1780" 
d="M638 1240l-75 60l-69 106q100 80 220 80q69 0 195 -39q106 -33 157 -33q73 0 151 58l75 -60l69 -106q-100 -80 -220 -80q-69 0 -195 39q-106 33 -157 33q-73 0 -151 -58zM507 1404l59 -90q73 54 148 54q54 0 160 -33q126 -39 192 -39q110 0 207 72l-59 90
q-73 -54 -148 -54q-54 0 -160 33q-126 39 -192 39q-110 0 -207 -72zM714 1398q-72 0 -140 -42l-26 40q79 50 166 50q64 0 183 -37q113 -35 169 -35q72 0 140 42l26 -40q-79 -50 -166 -50q-64 0 -183 37q-113 35 -169 35zM1659 995q91 -73 91 -191v-710q0 -105 -74 -174
q-83 -80 -217 -80h-840q-118 0 -200 66l-150 120q-89 72 -89 188v710q0 111 82.5 183.5t206.5 72.5h840q118 0 200 -65zM190 214q0 -105 79 -174.5t200 -69.5h840q122 0 201.5 69t79.5 175v710q0 106 -79.5 176t-201.5 70h-840q-121 0 -200 -70t-79 -176v-710zM1309 0h-840
q-108 0 -178.5 60.5t-70.5 153.5v710q0 94 70.5 155t178.5 61h840q109 0 180 -61t71 -155v-710q0 -93 -71 -153.5t-180 -60.5zM666 738v-338q0 -37 26 -60.5t67 -23.5h260q41 0 68 23.5t27 60.5v338q0 37 -27 61.5t-68 24.5h-260q-41 0 -67 -24.5t-26 -61.5zM759 346
q-28 0 -45.5 15t-17.5 39v338q0 25 17.5 40.5t45.5 15.5h260q29 0 47 -15.5t18 -40.5v-338q0 -24 -18 -39t-47 -15h-260zM1074 400v264h-165q-25 0 -38 -12q-15 -13 -15 -34v-262h163q25 0 40 12t15 32z" />
    <glyph glyph-name="Otilde" unicode="&#xf5;" horiz-adv-x="1780" 
d="M638 1240l-75 60l-69 106q100 80 220 80q69 0 195 -39q106 -33 157 -33q73 0 151 58l75 -60l69 -106q-100 -80 -220 -80q-69 0 -195 39q-106 33 -157 33q-73 0 -151 -58zM507 1404l59 -90q73 54 148 54q54 0 160 -33q126 -39 192 -39q110 0 207 72l-59 90
q-73 -54 -148 -54q-54 0 -160 33q-126 39 -192 39q-110 0 -207 -72zM714 1398q-72 0 -140 -42l-26 40q79 50 166 50q64 0 183 -37q113 -35 169 -35q72 0 140 42l26 -40q-79 -50 -166 -50q-64 0 -183 37q-113 35 -169 35zM1659 995q91 -73 91 -191v-710q0 -105 -74 -174
q-83 -80 -217 -80h-840q-118 0 -200 66l-150 120q-89 72 -89 188v710q0 111 82.5 183.5t206.5 72.5h840q118 0 200 -65zM190 214q0 -105 79 -174.5t200 -69.5h840q122 0 201.5 69t79.5 175v710q0 106 -79.5 176t-201.5 70h-840q-121 0 -200 -70t-79 -176v-710zM1309 0h-840
q-108 0 -178.5 60.5t-70.5 153.5v710q0 94 70.5 155t178.5 61h840q109 0 180 -61t71 -155v-710q0 -93 -71 -153.5t-180 -60.5zM666 738v-338q0 -37 26 -60.5t67 -23.5h260q41 0 68 23.5t27 60.5v338q0 37 -27 61.5t-68 24.5h-260q-41 0 -67 -24.5t-26 -61.5zM759 346
q-28 0 -45.5 15t-17.5 39v338q0 25 17.5 40.5t45.5 15.5h260q29 0 47 -15.5t18 -40.5v-338q0 -24 -18 -39t-47 -15h-260zM1074 400v264h-165q-25 0 -38 -12q-15 -13 -15 -34v-262h163q25 0 40 12t15 32z" />
    <glyph glyph-name="multiply" unicode="&#xd7;" horiz-adv-x="1200" 
d="M1177 716l-266 -266l266 -266l-161 -161l-150 120l-131 131l-251 -251l-150 120l-161 161l266 266l-266 266l161 161l150 -120l131 -131l251 251l150 -120zM600 423l266 -266l147 147l-266 266l266 266l-147 147l-266 -266l-266 266l-147 -147l266 -266l-266 -266
l147 -147zM866 214l-266 266l-266 -266l-90 90l266 266l-266 266l90 90l266 -266l266 266l90 -90l-266 -266l266 -266z" />
    <glyph glyph-name="Ugrave" unicode="&#xd9;" horiz-adv-x="1810" 
d="M1323 1213l-803 119l-75 60l21 127l803 -119l75 -60zM474 1508l-17 -108l783 -116l17 108zM491 1426l8 48l724 -108l-8 -48zM1615 1180l150 -120v-966q0 -105 -74 -174q-83 -80 -217 -80h-840q-118 0 -199 65l-150 120q-90 72 -90 189v966h526l150 -120v-704h163
q25 0 40 12t15 32v780h526zM205 214q0 -105 79 -174.5t200 -69.5h840q122 0 201.5 69t79.5 175v956h-506v-770q0 -24 -18 -39t-47 -15h-258q-28 0 -46.5 15.5t-18.5 38.5v770h-506v-956zM1324 0h-840q-108 0 -178.5 60.5t-70.5 153.5v926h446v-740q0 -37 26 -60.5t67 -23.5
h260q41 0 68 23.5t27 60.5v740h446v-926q0 -93 -71 -153.5t-180 -60.5z" />
    <glyph glyph-name="Ugrave" unicode="&#xf9;" horiz-adv-x="1810" 
d="M1323 1213l-803 119l-75 60l21 127l803 -119l75 -60zM474 1508l-17 -108l783 -116l17 108zM491 1426l8 48l724 -108l-8 -48zM1615 1180l150 -120v-966q0 -105 -74 -174q-83 -80 -217 -80h-840q-118 0 -199 65l-150 120q-90 72 -90 189v966h526l150 -120v-704h163
q25 0 40 12t15 32v780h526zM205 214q0 -105 79 -174.5t200 -69.5h840q122 0 201.5 69t79.5 175v956h-506v-770q0 -24 -18 -39t-47 -15h-258q-28 0 -46.5 15.5t-18.5 38.5v770h-506v-956zM1324 0h-840q-108 0 -178.5 60.5t-70.5 153.5v926h446v-740q0 -37 26 -60.5t67 -23.5
h260q41 0 68 23.5t27 60.5v740h446v-926q0 -93 -71 -153.5t-180 -60.5z" />
    <glyph glyph-name="Ugrave" unicode="&#xf9;" horiz-adv-x="1810" 
d="M1323 1213l-803 119l-75 60l21 127l803 -119l75 -60zM474 1508l-17 -108l783 -116l17 108zM491 1426l8 48l724 -108l-8 -48zM1615 1180l150 -120v-966q0 -105 -74 -174q-83 -80 -217 -80h-840q-118 0 -199 65l-150 120q-90 72 -90 189v966h526l150 -120v-704h163
q25 0 40 12t15 32v780h526zM205 214q0 -105 79 -174.5t200 -69.5h840q122 0 201.5 69t79.5 175v956h-506v-770q0 -24 -18 -39t-47 -15h-258q-28 0 -46.5 15.5t-18.5 38.5v770h-506v-956zM1324 0h-840q-108 0 -178.5 60.5t-70.5 153.5v926h446v-740q0 -37 26 -60.5t67 -23.5
h260q41 0 68 23.5t27 60.5v740h446v-926q0 -93 -71 -153.5t-180 -60.5z" />
    <glyph glyph-name="Uacute" unicode="&#xda;" horiz-adv-x="1810" 
d="M1044 1200h-128l-75 60v530h128l75 -60v-530zM851 1780v-510h108v510h-108zM881 1300v450h48v-450h-48zM1615 1180l150 -120v-966q0 -105 -74 -174q-83 -80 -217 -80h-840q-118 0 -199 65l-150 120q-90 72 -90 189v966h526l150 -120v-704h163q25 0 40 12t15 32v780h526z
M205 214q0 -105 79 -174.5t200 -69.5h840q122 0 201.5 69t79.5 175v956h-506v-770q0 -24 -18 -39t-47 -15h-258q-28 0 -46.5 15.5t-18.5 38.5v770h-506v-956zM1324 0h-840q-108 0 -178.5 60.5t-70.5 153.5v926h446v-740q0 -37 26 -60.5t67 -23.5h260q41 0 68 23.5t27 60.5
v740h446v-926q0 -93 -71 -153.5t-180 -60.5z" />
    <glyph glyph-name="Uacute" unicode="&#xfa;" horiz-adv-x="1810" 
d="M1044 1200h-128l-75 60v530h128l75 -60v-530zM851 1780v-510h108v510h-108zM881 1300v450h48v-450h-48zM1615 1180l150 -120v-966q0 -105 -74 -174q-83 -80 -217 -80h-840q-118 0 -199 65l-150 120q-90 72 -90 189v966h526l150 -120v-704h163q25 0 40 12t15 32v780h526z
M205 214q0 -105 79 -174.5t200 -69.5h840q122 0 201.5 69t79.5 175v956h-506v-770q0 -24 -18 -39t-47 -15h-258q-28 0 -46.5 15.5t-18.5 38.5v770h-506v-956zM1324 0h-840q-108 0 -178.5 60.5t-70.5 153.5v926h446v-740q0 -37 26 -60.5t67 -23.5h260q41 0 68 23.5t27 60.5
v740h446v-926q0 -93 -71 -153.5t-180 -60.5z" />
    <glyph glyph-name="Uacute" unicode="&#xfa;" horiz-adv-x="1810" 
d="M1044 1200h-128l-75 60v530h128l75 -60v-530zM851 1780v-510h108v510h-108zM881 1300v450h48v-450h-48zM1615 1180l150 -120v-966q0 -105 -74 -174q-83 -80 -217 -80h-840q-118 0 -199 65l-150 120q-90 72 -90 189v966h526l150 -120v-704h163q25 0 40 12t15 32v780h526z
M205 214q0 -105 79 -174.5t200 -69.5h840q122 0 201.5 69t79.5 175v956h-506v-770q0 -24 -18 -39t-47 -15h-258q-28 0 -46.5 15.5t-18.5 38.5v770h-506v-956zM1324 0h-840q-108 0 -178.5 60.5t-70.5 153.5v926h446v-740q0 -37 26 -60.5t67 -23.5h260q41 0 68 23.5t27 60.5
v740h446v-926q0 -93 -71 -153.5t-180 -60.5z" />
    <glyph glyph-name="Yacute" unicode="&#xdd;" horiz-adv-x="1540" 
d="M894 1200h-128l-75 60v530h128l75 -60v-530zM701 1780v-510h108v510h-108zM731 1300v450h48v-450h-48zM1532 1180l150 -120l-509 -817v-403h-536l-150 120v403l-509 817h542l150 -120l128 -242l192 362h542zM-4 1170l501 -804v-396h516v396l501 804h-518l-241 -456
l-241 456h-518zM527 0v374l-477 766h446l259 -489l259 489h446l-477 -766v-374h-456z" />
    <glyph glyph-name="Yacute" unicode="&#xfd;" horiz-adv-x="1540" 
d="M894 1200h-128l-75 60v530h128l75 -60v-530zM701 1780v-510h108v510h-108zM731 1300v450h48v-450h-48zM1532 1180l150 -120l-509 -817v-403h-536l-150 120v403l-509 817h542l150 -120l128 -242l192 362h542zM-4 1170l501 -804v-396h516v396l501 804h-518l-241 -456
l-241 456h-518zM527 0v374l-477 766h446l259 -489l259 489h446l-477 -766v-374h-456z" />
    <glyph glyph-name="Yacute" unicode="&#xfd;" horiz-adv-x="1540" 
d="M894 1200h-128l-75 60v530h128l75 -60v-530zM701 1780v-510h108v510h-108zM731 1300v450h48v-450h-48zM1532 1180l150 -120l-509 -817v-403h-536l-150 120v403l-509 817h542l150 -120l128 -242l192 362h542zM-4 1170l501 -804v-396h516v396l501 804h-518l-241 -456
l-241 456h-518zM527 0v374l-477 766h446l259 -489l259 489h446l-477 -766v-374h-456z" />
    <glyph glyph-name="divide" unicode="&#xf7;" horiz-adv-x="1120" 
d="M1150 554v-208h-300l50 -40v-280h-380l-150 120v200h-100l-150 120v208h300l-50 40v280h380l150 -120v-200h100zM380 984v-260h360v260h-360zM410 754v200h300v-200h-300zM130 664v-188h860v188h-860zM160 506v128h800v-128h-800zM740 416h-360v-260h360v260zM710 386
v-200h-300v200h300z" />
    <glyph glyph-name="Abreve" unicode="&#x102;" 
d="M485 1351l-75 60l77 102q141 -127 363 -127t363 127l75 -60l77 -102q-83 -73 -199 -113t-241 -40t-241 40t-199 113zM488 1498l-64 -86q81 -68 193 -106t233 -38t233 38t193 106l-64 86q-144 -122 -362 -122t-362 122zM1235 1418q-161 -120 -385 -120t-385 120l29 38
q147 -110 356 -110t356 110zM1340 1060l479 -1220h-536l-150 120l-25 70h-313l-68 -190h-536l-150 120l479 1220h670zM1072 160l68 -190h514l-471 1200h-656l-471 -1200h514l68 190h434zM1161 0l-68 190h-476l-68 -190h-449l447 1140h616l447 -1140h-449zM716 470h277
l-139 388zM759 500l95 268l96 -268h-191z" />
    <glyph glyph-name="Abreve" unicode="&#x103;" 
d="M485 1351l-75 60l77 102q141 -127 363 -127t363 127l75 -60l77 -102q-83 -73 -199 -113t-241 -40t-241 40t-199 113zM488 1498l-64 -86q81 -68 193 -106t233 -38t233 38t193 106l-64 86q-144 -122 -362 -122t-362 122zM1235 1418q-161 -120 -385 -120t-385 120l29 38
q147 -110 356 -110t356 110zM1340 1060l479 -1220h-536l-150 120l-25 70h-313l-68 -190h-536l-150 120l479 1220h670zM1072 160l68 -190h514l-471 1200h-656l-471 -1200h514l68 190h434zM1161 0l-68 190h-476l-68 -190h-449l447 1140h616l447 -1140h-449zM716 470h277
l-139 388zM759 500l95 268l96 -268h-191z" />
    <glyph glyph-name="Abreve" unicode="&#x103;" 
d="M485 1351l-75 60l77 102q141 -127 363 -127t363 127l75 -60l77 -102q-83 -73 -199 -113t-241 -40t-241 40t-199 113zM488 1498l-64 -86q81 -68 193 -106t233 -38t233 38t193 106l-64 86q-144 -122 -362 -122t-362 122zM1235 1418q-161 -120 -385 -120t-385 120l29 38
q147 -110 356 -110t356 110zM1340 1060l479 -1220h-536l-150 120l-25 70h-313l-68 -190h-536l-150 120l479 1220h670zM1072 160l68 -190h514l-471 1200h-656l-471 -1200h514l68 190h434zM1161 0l-68 190h-476l-68 -190h-449l447 1140h616l447 -1140h-449zM716 470h277
l-139 388zM759 500l95 268l96 -268h-191z" />
    <glyph glyph-name="Cacute" unicode="&#x106;" horiz-adv-x="1680" 
d="M1014 1200h-128l-75 60v530h128l75 -60v-530zM821 1780v-510h108v510h-108zM851 1300v450h48v-450h-48zM871 652q-15 -13 -15 -34v-262h135q24 0 38.5 12t14.5 32v96l526 -184l150 -120v-96q0 -104 -73 -174q-84 -82 -218 -82h-810q-118 0 -199 65l-150 120
q-90 74 -90 189v710q0 111 82.5 183.5t206.5 72.5h810q118 0 200 -65l150 -120q91 -73 91 -191v-56l-526 -184l-125 100h-160q-25 0 -38 -12zM991 346h-232q-28 0 -45.5 15t-17.5 39v338q0 25 17.5 40.5t45.5 15.5h232q28 0 45.5 -15t17.5 -39v-42l506 177v49
q0 106 -79.5 176t-201.5 70h-810q-121 0 -200 -70t-79 -176v-710q0 -105 79 -174.5t200 -69.5h810q122 0 201.5 70t79.5 176v89l-506 177v-82q0 -24 -17.5 -39t-45.5 -15zM666 400q0 -37 26 -60.5t67 -23.5h232q41 0 67 23.5t26 60.5v40l446 -156v-68q0 -94 -71 -155
t-180 -61h-810q-108 0 -178.5 60.5t-70.5 153.5v710q0 94 70.5 155t178.5 61h810q109 0 180 -61t71 -155v-28l-446 -156q0 37 -26 60.5t-67 23.5h-232q-41 0 -67 -24.5t-26 -61.5v-338z" />
    <glyph glyph-name="Cacute" unicode="&#x107;" horiz-adv-x="1680" 
d="M1014 1200h-128l-75 60v530h128l75 -60v-530zM821 1780v-510h108v510h-108zM851 1300v450h48v-450h-48zM871 652q-15 -13 -15 -34v-262h135q24 0 38.5 12t14.5 32v96l526 -184l150 -120v-96q0 -104 -73 -174q-84 -82 -218 -82h-810q-118 0 -199 65l-150 120
q-90 74 -90 189v710q0 111 82.5 183.5t206.5 72.5h810q118 0 200 -65l150 -120q91 -73 91 -191v-56l-526 -184l-125 100h-160q-25 0 -38 -12zM991 346h-232q-28 0 -45.5 15t-17.5 39v338q0 25 17.5 40.5t45.5 15.5h232q28 0 45.5 -15t17.5 -39v-42l506 177v49
q0 106 -79.5 176t-201.5 70h-810q-121 0 -200 -70t-79 -176v-710q0 -105 79 -174.5t200 -69.5h810q122 0 201.5 70t79.5 176v89l-506 177v-82q0 -24 -17.5 -39t-45.5 -15zM666 400q0 -37 26 -60.5t67 -23.5h232q41 0 67 23.5t26 60.5v40l446 -156v-68q0 -94 -71 -155
t-180 -61h-810q-108 0 -178.5 60.5t-70.5 153.5v710q0 94 70.5 155t178.5 61h810q109 0 180 -61t71 -155v-28l-446 -156q0 37 -26 60.5t-67 23.5h-232q-41 0 -67 -24.5t-26 -61.5v-338z" />
    <glyph glyph-name="Cacute" unicode="&#x107;" horiz-adv-x="1680" 
d="M1014 1200h-128l-75 60v530h128l75 -60v-530zM821 1780v-510h108v510h-108zM851 1300v450h48v-450h-48zM871 652q-15 -13 -15 -34v-262h135q24 0 38.5 12t14.5 32v96l526 -184l150 -120v-96q0 -104 -73 -174q-84 -82 -218 -82h-810q-118 0 -199 65l-150 120
q-90 74 -90 189v710q0 111 82.5 183.5t206.5 72.5h810q118 0 200 -65l150 -120q91 -73 91 -191v-56l-526 -184l-125 100h-160q-25 0 -38 -12zM991 346h-232q-28 0 -45.5 15t-17.5 39v338q0 25 17.5 40.5t45.5 15.5h232q28 0 45.5 -15t17.5 -39v-42l506 177v49
q0 106 -79.5 176t-201.5 70h-810q-121 0 -200 -70t-79 -176v-710q0 -105 79 -174.5t200 -69.5h810q122 0 201.5 70t79.5 176v89l-506 177v-82q0 -24 -17.5 -39t-45.5 -15zM666 400q0 -37 26 -60.5t67 -23.5h232q41 0 67 23.5t26 60.5v40l446 -156v-68q0 -94 -71 -155
t-180 -61h-810q-108 0 -178.5 60.5t-70.5 153.5v710q0 94 70.5 155t178.5 61h810q109 0 180 -61t71 -155v-28l-446 -156q0 37 -26 60.5t-67 23.5h-232q-41 0 -67 -24.5t-26 -61.5v-338z" />
    <glyph glyph-name="Dcroat" unicode="&#x110;" horiz-adv-x="1840" 
d="M1694 982q116 -92 116 -248v-570q0 -127 -82 -215q-101 -109 -269 -109h-1069l-150 120v445h-130v208h130v567h1069q138 0 235 -78zM120 415h130v-445h1059q148 0 244.5 89t96.5 225v570q0 137 -96.5 226.5t-244.5 89.5h-1059v-567h-130v-188zM280 0v445h-130v128h130
v567h1029q135 0 223 -81t88 -205v-570q0 -124 -88 -204t-223 -80h-1029zM736 825v-252h208v-128h-208v-130h343q41 0 68 23.5t27 60.5v338q0 37 -27 61.5t-68 24.5zM974 415v188h-208v192l313 -2q29 0 47 -15.5t18 -40.5v-338q0 -24 -18 -39t-47 -15h-313v70h208zM926 613
h58l150 -120v170l-208 2v-52z" />
    <glyph glyph-name="Dcroat" unicode="&#x111;" horiz-adv-x="1840" 
d="M1694 982q116 -92 116 -248v-570q0 -127 -82 -215q-101 -109 -269 -109h-1069l-150 120v445h-130v208h130v567h1069q138 0 235 -78zM120 415h130v-445h1059q148 0 244.5 89t96.5 225v570q0 137 -96.5 226.5t-244.5 89.5h-1059v-567h-130v-188zM280 0v445h-130v128h130
v567h1029q135 0 223 -81t88 -205v-570q0 -124 -88 -204t-223 -80h-1029zM736 825v-252h208v-128h-208v-130h343q41 0 68 23.5t27 60.5v338q0 37 -27 61.5t-68 24.5zM974 415v188h-208v192l313 -2q29 0 47 -15.5t18 -40.5v-338q0 -24 -18 -39t-47 -15h-313v70h208zM926 613
h58l150 -120v170l-208 2v-52z" />
    <glyph glyph-name="Dcroat" unicode="&#x111;" horiz-adv-x="1840" 
d="M1694 982q116 -92 116 -248v-570q0 -127 -82 -215q-101 -109 -269 -109h-1069l-150 120v445h-130v208h130v567h1069q138 0 235 -78zM120 415h130v-445h1059q148 0 244.5 89t96.5 225v570q0 137 -96.5 226.5t-244.5 89.5h-1059v-567h-130v-188zM280 0v445h-130v128h130
v567h1029q135 0 223 -81t88 -205v-570q0 -124 -88 -204t-223 -80h-1029zM736 825v-252h208v-128h-208v-130h343q41 0 68 23.5t27 60.5v338q0 37 -27 61.5t-68 24.5zM974 415v188h-208v192l313 -2q29 0 47 -15.5t18 -40.5v-338q0 -24 -18 -39t-47 -15h-313v70h208zM926 613
h58l150 -120v170l-208 2v-52z" />
    <glyph glyph-name="Gbreve" unicode="&#x11e;" horiz-adv-x="1770" 
d="M520 1351l-75 60l77 102q141 -127 363 -127t363 127l75 -60l77 -102q-83 -73 -199 -113t-241 -40t-241 40t-199 113zM523 1498l-64 -86q81 -68 193 -106t233 -38t233 38t193 106l-64 86q-144 -122 -362 -122t-362 122zM1270 1418q-161 -120 -385 -120t-385 120l29 38
q147 -110 356 -110t356 110zM1750 804v-56l-332 -116h182l150 -120v-418q0 -105 -76 -176q-83 -78 -215 -78h-840q-115 0 -202 69l-150 120q-87 72 -87 185v710q0 111 82.5 183.5t206.5 72.5h840q120 0 200 -65l150 -120q91 -73 91 -191zM1590 622h-668l-102 -188h264v-34
q0 -24 -18 -39t-47 -15h-260q-28 0 -45.5 15t-17.5 39v338q0 25 17.5 40.5t45.5 15.5h262q28 0 45.5 -15t17.5 -39v-42l506 177v49q0 106 -79.5 176t-201.5 70h-840q-121 0 -200 -70t-79 -176v-710q0 -105 79 -174.5t200 -69.5h840q122 0 201.5 69t79.5 175v408zM1114 464
h-244l70 128h620v-378q0 -93 -71 -153.5t-180 -60.5h-840q-108 0 -178.5 60.5t-70.5 153.5v710q0 94 70.5 155t178.5 61h840q109 0 180 -61t71 -155v-28l-446 -156q0 37 -26 60.5t-67 23.5h-262q-41 0 -67 -24.5t-26 -61.5v-338q0 -37 26 -60.5t67 -23.5h260q41 0 68 23.5
t27 60.5v64zM916 632h223l-40 32h-190q-25 0 -38 -12q-15 -13 -15 -34v-96zM856 382v-26h32z" />
    <glyph glyph-name="Gbreve" unicode="&#x11f;" horiz-adv-x="1770" 
d="M520 1351l-75 60l77 102q141 -127 363 -127t363 127l75 -60l77 -102q-83 -73 -199 -113t-241 -40t-241 40t-199 113zM523 1498l-64 -86q81 -68 193 -106t233 -38t233 38t193 106l-64 86q-144 -122 -362 -122t-362 122zM1270 1418q-161 -120 -385 -120t-385 120l29 38
q147 -110 356 -110t356 110zM1750 804v-56l-332 -116h182l150 -120v-418q0 -105 -76 -176q-83 -78 -215 -78h-840q-115 0 -202 69l-150 120q-87 72 -87 185v710q0 111 82.5 183.5t206.5 72.5h840q120 0 200 -65l150 -120q91 -73 91 -191zM1590 622h-668l-102 -188h264v-34
q0 -24 -18 -39t-47 -15h-260q-28 0 -45.5 15t-17.5 39v338q0 25 17.5 40.5t45.5 15.5h262q28 0 45.5 -15t17.5 -39v-42l506 177v49q0 106 -79.5 176t-201.5 70h-840q-121 0 -200 -70t-79 -176v-710q0 -105 79 -174.5t200 -69.5h840q122 0 201.5 69t79.5 175v408zM1114 464
h-244l70 128h620v-378q0 -93 -71 -153.5t-180 -60.5h-840q-108 0 -178.5 60.5t-70.5 153.5v710q0 94 70.5 155t178.5 61h840q109 0 180 -61t71 -155v-28l-446 -156q0 37 -26 60.5t-67 23.5h-262q-41 0 -67 -24.5t-26 -61.5v-338q0 -37 26 -60.5t67 -23.5h260q41 0 68 23.5
t27 60.5v64zM916 632h223l-40 32h-190q-25 0 -38 -12q-15 -13 -15 -34v-96zM856 382v-26h32z" />
    <glyph glyph-name="Gbreve" unicode="&#x11f;" horiz-adv-x="1770" 
d="M520 1351l-75 60l77 102q141 -127 363 -127t363 127l75 -60l77 -102q-83 -73 -199 -113t-241 -40t-241 40t-199 113zM523 1498l-64 -86q81 -68 193 -106t233 -38t233 38t193 106l-64 86q-144 -122 -362 -122t-362 122zM1270 1418q-161 -120 -385 -120t-385 120l29 38
q147 -110 356 -110t356 110zM1750 804v-56l-332 -116h182l150 -120v-418q0 -105 -76 -176q-83 -78 -215 -78h-840q-115 0 -202 69l-150 120q-87 72 -87 185v710q0 111 82.5 183.5t206.5 72.5h840q120 0 200 -65l150 -120q91 -73 91 -191zM1590 622h-668l-102 -188h264v-34
q0 -24 -18 -39t-47 -15h-260q-28 0 -45.5 15t-17.5 39v338q0 25 17.5 40.5t45.5 15.5h262q28 0 45.5 -15t17.5 -39v-42l506 177v49q0 106 -79.5 176t-201.5 70h-840q-121 0 -200 -70t-79 -176v-710q0 -105 79 -174.5t200 -69.5h840q122 0 201.5 69t79.5 175v408zM1114 464
h-244l70 128h620v-378q0 -93 -71 -153.5t-180 -60.5h-840q-108 0 -178.5 60.5t-70.5 153.5v710q0 94 70.5 155t178.5 61h840q109 0 180 -61t71 -155v-28l-446 -156q0 37 -26 60.5t-67 23.5h-262q-41 0 -67 -24.5t-26 -61.5v-338q0 -37 26 -60.5t67 -23.5h260q41 0 68 23.5
t27 60.5v64zM916 632h223l-40 32h-190q-25 0 -38 -12q-15 -13 -15 -34v-96zM856 382v-26h32z" />
    <glyph glyph-name="Itilde" unicode="&#x128;" horiz-adv-x="956" 
d="M377 1298q-73 0 -151 -58l-75 60l-69 106q100 80 220 80q69 0 195 -39q106 -33 157 -33q73 0 151 58l75 -60l69 -106q-100 -80 -220 -80q-69 0 -195 39q-106 33 -157 33zM95 1404l59 -90q73 54 148 54q54 0 160 -33q126 -39 192 -39q110 0 207 72l-59 90
q-73 -54 -148 -54q-54 0 -160 33q-126 39 -192 39q-110 0 -207 -72zM302 1398q-72 0 -140 -42l-26 40q79 50 166 50q64 0 183 -37q113 -35 169 -35q72 0 140 42l26 -40q-79 -50 -166 -50q-64 0 -183 37q-113 35 -169 35zM210 1180h536l150 -120v-1220h-536l-150 120v1220z
M220 1170v-1200h516v1200h-516zM250 0v1140h456v-1140h-456z" />
    <glyph glyph-name="Itilde" unicode="&#x129;" horiz-adv-x="956" 
d="M377 1298q-73 0 -151 -58l-75 60l-69 106q100 80 220 80q69 0 195 -39q106 -33 157 -33q73 0 151 58l75 -60l69 -106q-100 -80 -220 -80q-69 0 -195 39q-106 33 -157 33zM95 1404l59 -90q73 54 148 54q54 0 160 -33q126 -39 192 -39q110 0 207 72l-59 90
q-73 -54 -148 -54q-54 0 -160 33q-126 39 -192 39q-110 0 -207 -72zM302 1398q-72 0 -140 -42l-26 40q79 50 166 50q64 0 183 -37q113 -35 169 -35q72 0 140 42l26 -40q-79 -50 -166 -50q-64 0 -183 37q-113 35 -169 35zM210 1180h536l150 -120v-1220h-536l-150 120v1220z
M220 1170v-1200h516v1200h-516zM250 0v1140h456v-1140h-456z" />
    <glyph glyph-name="Itilde" unicode="&#x129;" horiz-adv-x="956" 
d="M377 1298q-73 0 -151 -58l-75 60l-69 106q100 80 220 80q69 0 195 -39q106 -33 157 -33q73 0 151 58l75 -60l69 -106q-100 -80 -220 -80q-69 0 -195 39q-106 33 -157 33zM95 1404l59 -90q73 54 148 54q54 0 160 -33q126 -39 192 -39q110 0 207 72l-59 90
q-73 -54 -148 -54q-54 0 -160 33q-126 39 -192 39q-110 0 -207 -72zM302 1398q-72 0 -140 -42l-26 40q79 50 166 50q64 0 183 -37q113 -35 169 -35q72 0 140 42l26 -40q-79 -50 -166 -50q-64 0 -183 37q-113 35 -169 35zM210 1180h536l150 -120v-1220h-536l-150 120v1220z
M220 1170v-1200h516v1200h-516zM250 0v1140h456v-1140h-456z" />
    <glyph glyph-name="Nacute" unicode="&#x143;" horiz-adv-x="1840" 
d="M1059 1200h-128l-75 60v530h128l75 -60v-530zM866 1780v-510h108v510h-108zM896 1300v450h48v-450h-48zM1630 1180l150 -120v-1220h-558l-150 120l-216 328v-448h-496l-150 120v1220h558l150 -120l217 -334v454h495zM696 549l381 -579h543v1200h-475v-589l-382 589h-543
v-1200h476v579zM1590 0h-496l-428 650v-650h-416v1140h496l429 -660v660h415v-1140z" />
    <glyph glyph-name="Nacute" unicode="&#x144;" horiz-adv-x="1840" 
d="M1059 1200h-128l-75 60v530h128l75 -60v-530zM866 1780v-510h108v510h-108zM896 1300v450h48v-450h-48zM1630 1180l150 -120v-1220h-558l-150 120l-216 328v-448h-496l-150 120v1220h558l150 -120l217 -334v454h495zM696 549l381 -579h543v1200h-475v-589l-382 589h-543
v-1200h476v579zM1590 0h-496l-428 650v-650h-416v1140h496l429 -660v660h415v-1140z" />
    <glyph glyph-name="Nacute" unicode="&#x144;" horiz-adv-x="1840" 
d="M1059 1200h-128l-75 60v530h128l75 -60v-530zM866 1780v-510h108v510h-108zM896 1300v450h48v-450h-48zM1630 1180l150 -120v-1220h-558l-150 120l-216 328v-448h-496l-150 120v1220h558l150 -120l217 -334v454h495zM696 549l381 -579h543v1200h-475v-589l-382 589h-543
v-1200h476v579zM1590 0h-496l-428 650v-650h-416v1140h496l429 -660v660h415v-1140z" />
    <glyph glyph-name="Sacute" unicode="&#x15a;" horiz-adv-x="1720" 
d="M999 1200h-128l-75 60v530h128l75 -60v-530zM806 1780v-510h108v510h-108zM836 1300v450h48v-450h-48zM1720 804v-57l-252 -88l136 -109q116 -92 116 -248v-206q0 -102 -72 -174q-84 -82 -217 -82h-840q-119 0 -199 64l-150 120q-92 74 -92 192v57l252 88l-131 104l-3 3
q-118 95 -118 250v206q0 111 82 183.5t207 72.5h840q115 0 196 -62l150 -120q95 -77 95 -194zM160 216q0 -106 79.5 -176t201.5 -70h840q121 0 200 70t79 176v206q0 137 -96.5 226.5t-244.5 89.5h-48l389 136v50q0 106 -79.5 176t-201.5 70h-840q-121 0 -200 -70t-79 -176
v-206q0 -137 96.5 -226.5t244.5 -89.5h48l-389 -136v-50zM1281 0h-840q-109 0 -180 61t-71 155v30l446 156v-64q0 -34 23.5 -53t67.5 -19h265q44 0 67.5 19t23.5 53v22q0 34 -23.5 53t-67.5 19h-491q-135 0 -223 81t-88 205v206q0 94 70 155t179 61h840q109 0 180 -61
t71 -155v-30l-446 -156v64q0 34 -23.5 53t-67.5 19h-265q-44 0 -67.5 -19t-23.5 -53v-22q0 -34 23.5 -53t67.5 -19h491q135 0 223 -81t88 -205v-206q0 -94 -70.5 -155t-178.5 -61zM728 844h265q61 0 61 -42v-64h-326q-61 0 -61 42v22q0 42 61 42zM992 296h-265q-61 0 -61 42
v64h326q61 0 61 -42v-22q0 -42 -61 -42z" />
    <glyph glyph-name="Sacute" unicode="&#x15b;" horiz-adv-x="1720" 
d="M999 1200h-128l-75 60v530h128l75 -60v-530zM806 1780v-510h108v510h-108zM836 1300v450h48v-450h-48zM1720 804v-57l-252 -88l136 -109q116 -92 116 -248v-206q0 -102 -72 -174q-84 -82 -217 -82h-840q-119 0 -199 64l-150 120q-92 74 -92 192v57l252 88l-131 104l-3 3
q-118 95 -118 250v206q0 111 82 183.5t207 72.5h840q115 0 196 -62l150 -120q95 -77 95 -194zM160 216q0 -106 79.5 -176t201.5 -70h840q121 0 200 70t79 176v206q0 137 -96.5 226.5t-244.5 89.5h-48l389 136v50q0 106 -79.5 176t-201.5 70h-840q-121 0 -200 -70t-79 -176
v-206q0 -137 96.5 -226.5t244.5 -89.5h48l-389 -136v-50zM1281 0h-840q-109 0 -180 61t-71 155v30l446 156v-64q0 -34 23.5 -53t67.5 -19h265q44 0 67.5 19t23.5 53v22q0 34 -23.5 53t-67.5 19h-491q-135 0 -223 81t-88 205v206q0 94 70 155t179 61h840q109 0 180 -61
t71 -155v-30l-446 -156v64q0 34 -23.5 53t-67.5 19h-265q-44 0 -67.5 -19t-23.5 -53v-22q0 -34 23.5 -53t67.5 -19h491q135 0 223 -81t88 -205v-206q0 -94 -70.5 -155t-178.5 -61zM728 844h265q61 0 61 -42v-64h-326q-61 0 -61 42v22q0 42 61 42zM992 296h-265q-61 0 -61 42
v64h326q61 0 61 -42v-22q0 -42 -61 -42z" />
    <glyph glyph-name="Sacute" unicode="&#x15b;" horiz-adv-x="1720" 
d="M999 1200h-128l-75 60v530h128l75 -60v-530zM806 1780v-510h108v510h-108zM836 1300v450h48v-450h-48zM1720 804v-57l-252 -88l136 -109q116 -92 116 -248v-206q0 -102 -72 -174q-84 -82 -217 -82h-840q-119 0 -199 64l-150 120q-92 74 -92 192v57l252 88l-131 104l-3 3
q-118 95 -118 250v206q0 111 82 183.5t207 72.5h840q115 0 196 -62l150 -120q95 -77 95 -194zM160 216q0 -106 79.5 -176t201.5 -70h840q121 0 200 70t79 176v206q0 137 -96.5 226.5t-244.5 89.5h-48l389 136v50q0 106 -79.5 176t-201.5 70h-840q-121 0 -200 -70t-79 -176
v-206q0 -137 96.5 -226.5t244.5 -89.5h48l-389 -136v-50zM1281 0h-840q-109 0 -180 61t-71 155v30l446 156v-64q0 -34 23.5 -53t67.5 -19h265q44 0 67.5 19t23.5 53v22q0 34 -23.5 53t-67.5 19h-491q-135 0 -223 81t-88 205v206q0 94 70 155t179 61h840q109 0 180 -61
t71 -155v-30l-446 -156v64q0 34 -23.5 53t-67.5 19h-265q-44 0 -67.5 -19t-23.5 -53v-22q0 -34 23.5 -53t67.5 -19h491q135 0 223 -81t88 -205v-206q0 -94 -70.5 -155t-178.5 -61zM728 844h265q61 0 61 -42v-64h-326q-61 0 -61 42v22q0 42 61 42zM992 296h-265q-61 0 -61 42
v64h326q61 0 61 -42v-22q0 -42 -61 -42z" />
    <glyph glyph-name="Utilde" unicode="&#x168;" horiz-adv-x="1810" 
d="M653 1240l-75 60l-69 106q100 80 220 80q69 0 195 -39q106 -33 157 -33q73 0 151 58l75 -60l69 -106q-100 -80 -220 -80q-69 0 -195 39q-106 33 -157 33q-73 0 -151 -58zM522 1404l59 -90q73 54 148 54q54 0 160 -33q126 -39 192 -39q110 0 207 72l-59 90
q-73 -54 -148 -54q-54 0 -160 33q-126 39 -192 39q-110 0 -207 -72zM729 1398q-73 0 -140 -42l-26 40q79 50 166 50q64 0 183 -37q113 -35 169 -35q73 0 140 42l26 -40q-79 -50 -166 -50q-64 0 -183 37q-113 35 -169 35zM1615 1180l150 -120v-966q0 -105 -74 -174
q-83 -80 -217 -80h-840q-118 0 -199 65l-150 120q-90 72 -90 189v966h526l150 -120v-704h163q25 0 40 12t15 32v780h526zM205 214q0 -105 79 -174.5t200 -69.5h840q122 0 201.5 69t79.5 175v956h-506v-770q0 -24 -18 -39t-47 -15h-258q-28 0 -46.5 15.5t-18.5 38.5v770h-506
v-956zM1324 0h-840q-108 0 -178.5 60.5t-70.5 153.5v926h446v-740q0 -37 26 -60.5t67 -23.5h260q41 0 68 23.5t27 60.5v740h446v-926q0 -93 -71 -153.5t-180 -60.5z" />
    <glyph glyph-name="Utilde" unicode="&#x169;" horiz-adv-x="1810" 
d="M653 1240l-75 60l-69 106q100 80 220 80q69 0 195 -39q106 -33 157 -33q73 0 151 58l75 -60l69 -106q-100 -80 -220 -80q-69 0 -195 39q-106 33 -157 33q-73 0 -151 -58zM522 1404l59 -90q73 54 148 54q54 0 160 -33q126 -39 192 -39q110 0 207 72l-59 90
q-73 -54 -148 -54q-54 0 -160 33q-126 39 -192 39q-110 0 -207 -72zM729 1398q-73 0 -140 -42l-26 40q79 50 166 50q64 0 183 -37q113 -35 169 -35q73 0 140 42l26 -40q-79 -50 -166 -50q-64 0 -183 37q-113 35 -169 35zM1615 1180l150 -120v-966q0 -105 -74 -174
q-83 -80 -217 -80h-840q-118 0 -199 65l-150 120q-90 72 -90 189v966h526l150 -120v-704h163q25 0 40 12t15 32v780h526zM205 214q0 -105 79 -174.5t200 -69.5h840q122 0 201.5 69t79.5 175v956h-506v-770q0 -24 -18 -39t-47 -15h-258q-28 0 -46.5 15.5t-18.5 38.5v770h-506
v-956zM1324 0h-840q-108 0 -178.5 60.5t-70.5 153.5v926h446v-740q0 -37 26 -60.5t67 -23.5h260q41 0 68 23.5t27 60.5v740h446v-926q0 -93 -71 -153.5t-180 -60.5z" />
    <glyph glyph-name="Utilde" unicode="&#x169;" horiz-adv-x="1810" 
d="M653 1240l-75 60l-69 106q100 80 220 80q69 0 195 -39q106 -33 157 -33q73 0 151 58l75 -60l69 -106q-100 -80 -220 -80q-69 0 -195 39q-106 33 -157 33q-73 0 -151 -58zM522 1404l59 -90q73 54 148 54q54 0 160 -33q126 -39 192 -39q110 0 207 72l-59 90
q-73 -54 -148 -54q-54 0 -160 33q-126 39 -192 39q-110 0 -207 -72zM729 1398q-73 0 -140 -42l-26 40q79 50 166 50q64 0 183 -37q113 -35 169 -35q73 0 140 42l26 -40q-79 -50 -166 -50q-64 0 -183 37q-113 35 -169 35zM1615 1180l150 -120v-966q0 -105 -74 -174
q-83 -80 -217 -80h-840q-118 0 -199 65l-150 120q-90 72 -90 189v966h526l150 -120v-704h163q25 0 40 12t15 32v780h526zM205 214q0 -105 79 -174.5t200 -69.5h840q122 0 201.5 69t79.5 175v956h-506v-770q0 -24 -18 -39t-47 -15h-258q-28 0 -46.5 15.5t-18.5 38.5v770h-506
v-956zM1324 0h-840q-108 0 -178.5 60.5t-70.5 153.5v926h446v-740q0 -37 26 -60.5t67 -23.5h260q41 0 68 23.5t27 60.5v740h446v-926q0 -93 -71 -153.5t-180 -60.5z" />
    <glyph glyph-name="Wcircumflex" unicode="&#x174;" horiz-adv-x="1830" 
d="M540 1188l-75 60l-34 123l469 134l469 -134l75 -60l-34 -123l-435 123zM443 1364l29 -104l428 121l428 -121l29 104l-457 131zM900 1413l-407 -116l-13 46l420 120l420 -120l-13 -46zM1729 1180l150 -120l-248 -1220h-424l-150 120l-47 81l-117 -201h-424l-150 120
l-248 1220h504l150 -120l59 -286l116 188l150 -120l80 -129l95 467h504zM900 248l163 -278h410l244 1200h-484l-118 -576l-215 349l-215 -349l-118 576h-484l244 -1200h410zM1080 0l-180 309l-180 -309h-368l-232 1140h422l128 -626l230 372l230 -372l128 626h422
l-232 -1140h-368z" />
    <glyph glyph-name="Wcircumflex" unicode="&#x175;" horiz-adv-x="1830" 
d="M540 1188l-75 60l-34 123l469 134l469 -134l75 -60l-34 -123l-435 123zM443 1364l29 -104l428 121l428 -121l29 104l-457 131zM900 1413l-407 -116l-13 46l420 120l420 -120l-13 -46zM1729 1180l150 -120l-248 -1220h-424l-150 120l-47 81l-117 -201h-424l-150 120
l-248 1220h504l150 -120l59 -286l116 188l150 -120l80 -129l95 467h504zM900 248l163 -278h410l244 1200h-484l-118 -576l-215 349l-215 -349l-118 576h-484l244 -1200h410zM1080 0l-180 309l-180 -309h-368l-232 1140h422l128 -626l230 372l230 -372l128 626h422
l-232 -1140h-368z" />
    <glyph glyph-name="Wcircumflex" unicode="&#x175;" horiz-adv-x="1830" 
d="M540 1188l-75 60l-34 123l469 134l469 -134l75 -60l-34 -123l-435 123zM443 1364l29 -104l428 121l428 -121l29 104l-457 131zM900 1413l-407 -116l-13 46l420 120l420 -120l-13 -46zM1729 1180l150 -120l-248 -1220h-424l-150 120l-47 81l-117 -201h-424l-150 120
l-248 1220h504l150 -120l59 -286l116 188l150 -120l80 -129l95 467h504zM900 248l163 -278h410l244 1200h-484l-118 -576l-215 349l-215 -349l-118 576h-484l244 -1200h410zM1080 0l-180 309l-180 -309h-368l-232 1140h422l128 -626l230 372l230 -372l128 626h422
l-232 -1140h-368z" />
    <glyph glyph-name="Ycircumflex" unicode="&#x176;" horiz-adv-x="1540" 
d="M395 1188l-75 60l-34 123l469 134l469 -134l75 -60l-34 -123l-435 123zM298 1364l29 -104l428 121l428 -121l29 104l-457 131zM755 1413l-407 -116l-13 46l420 120l420 -120l-13 -46zM1532 1180l150 -120l-509 -817v-403h-536l-150 120v403l-509 817h542l150 -120
l128 -242l192 362h542zM-4 1170l501 -804v-396h516v396l501 804h-518l-241 -456l-241 456h-518zM527 0v374l-477 766h446l259 -489l259 489h446l-477 -766v-374h-456z" />
    <glyph glyph-name="Ycircumflex" unicode="&#x177;" horiz-adv-x="1540" 
d="M395 1188l-75 60l-34 123l469 134l469 -134l75 -60l-34 -123l-435 123zM298 1364l29 -104l428 121l428 -121l29 104l-457 131zM755 1413l-407 -116l-13 46l420 120l420 -120l-13 -46zM1532 1180l150 -120l-509 -817v-403h-536l-150 120v403l-509 817h542l150 -120
l128 -242l192 362h542zM-4 1170l501 -804v-396h516v396l501 804h-518l-241 -456l-241 456h-518zM527 0v374l-477 766h446l259 -489l259 489h446l-477 -766v-374h-456z" />
    <glyph glyph-name="Ycircumflex" unicode="&#x177;" horiz-adv-x="1540" 
d="M395 1188l-75 60l-34 123l469 134l469 -134l75 -60l-34 -123l-435 123zM298 1364l29 -104l428 121l428 -121l29 104l-457 131zM755 1413l-407 -116l-13 46l420 120l420 -120l-13 -46zM1532 1180l150 -120l-509 -817v-403h-536l-150 120v403l-509 817h542l150 -120
l128 -242l192 362h542zM-4 1170l501 -804v-396h516v396l501 804h-518l-241 -456l-241 456h-518zM527 0v374l-477 766h446l259 -489l259 489h446l-477 -766v-374h-456z" />
    <glyph glyph-name="Ohorn" unicode="&#x1a0;" horiz-adv-x="1780" 
d="M1776 1180l75 -60v-480h-101v-546q0 -105 -74 -174q-83 -80 -217 -80h-840q-118 0 -200 66l-150 120q-89 72 -89 188v710q0 111 82.5 183.5t206.5 72.5h840q120 0 200 -65l139 -111v176h128zM190 214q0 -105 79 -174.5t200 -69.5h840q122 0 201.5 69t79.5 175v710
q0 106 -79.5 176t-201.5 70h-840q-121 0 -200 -70t-79 -176v-710zM1658 1170v-460h108v460h-108zM1309 0h-840q-108 0 -178.5 60.5t-70.5 153.5v710q0 94 70.5 155t178.5 61h840q109 0 180 -61t71 -155v-710q0 -93 -71 -153.5t-180 -60.5zM1688 740v400h48v-400h-48z
M666 738v-338q0 -37 26 -60.5t67 -23.5h260q41 0 68 23.5t27 60.5v338q0 37 -27 61.5t-68 24.5h-260q-41 0 -67 -24.5t-26 -61.5zM759 346q-28 0 -45.5 15t-17.5 39v338q0 25 17.5 40.5t45.5 15.5h260q29 0 47 -15.5t18 -40.5v-338q0 -24 -18 -39t-47 -15h-260zM1074 400
v264h-165q-25 0 -38 -12q-15 -13 -15 -34v-262h163q25 0 40 12t15 32zM1600 214q0 -102 -74 -174q74 69 74 174z" />
    <glyph glyph-name="Ohorn" unicode="&#x1a1;" horiz-adv-x="1780" 
d="M1776 1180l75 -60v-480h-101v-546q0 -105 -74 -174q-83 -80 -217 -80h-840q-118 0 -200 66l-150 120q-89 72 -89 188v710q0 111 82.5 183.5t206.5 72.5h840q120 0 200 -65l139 -111v176h128zM190 214q0 -105 79 -174.5t200 -69.5h840q122 0 201.5 69t79.5 175v710
q0 106 -79.5 176t-201.5 70h-840q-121 0 -200 -70t-79 -176v-710zM1658 1170v-460h108v460h-108zM1309 0h-840q-108 0 -178.5 60.5t-70.5 153.5v710q0 94 70.5 155t178.5 61h840q109 0 180 -61t71 -155v-710q0 -93 -71 -153.5t-180 -60.5zM1688 740v400h48v-400h-48z
M666 738v-338q0 -37 26 -60.5t67 -23.5h260q41 0 68 23.5t27 60.5v338q0 37 -27 61.5t-68 24.5h-260q-41 0 -67 -24.5t-26 -61.5zM759 346q-28 0 -45.5 15t-17.5 39v338q0 25 17.5 40.5t45.5 15.5h260q29 0 47 -15.5t18 -40.5v-338q0 -24 -18 -39t-47 -15h-260zM1074 400
v264h-165q-25 0 -38 -12q-15 -13 -15 -34v-262h163q25 0 40 12t15 32zM1600 214q0 -102 -74 -174q74 69 74 174z" />
    <glyph glyph-name="Ohorn" unicode="&#x1a1;" horiz-adv-x="1780" 
d="M1776 1180l75 -60v-480h-101v-546q0 -105 -74 -174q-83 -80 -217 -80h-840q-118 0 -200 66l-150 120q-89 72 -89 188v710q0 111 82.5 183.5t206.5 72.5h840q120 0 200 -65l139 -111v176h128zM190 214q0 -105 79 -174.5t200 -69.5h840q122 0 201.5 69t79.5 175v710
q0 106 -79.5 176t-201.5 70h-840q-121 0 -200 -70t-79 -176v-710zM1658 1170v-460h108v460h-108zM1309 0h-840q-108 0 -178.5 60.5t-70.5 153.5v710q0 94 70.5 155t178.5 61h840q109 0 180 -61t71 -155v-710q0 -93 -71 -153.5t-180 -60.5zM1688 740v400h48v-400h-48z
M666 738v-338q0 -37 26 -60.5t67 -23.5h260q41 0 68 23.5t27 60.5v338q0 37 -27 61.5t-68 24.5h-260q-41 0 -67 -24.5t-26 -61.5zM759 346q-28 0 -45.5 15t-17.5 39v338q0 25 17.5 40.5t45.5 15.5h260q29 0 47 -15.5t18 -40.5v-338q0 -24 -18 -39t-47 -15h-260zM1074 400
v264h-165q-25 0 -38 -12q-15 -13 -15 -34v-262h163q25 0 40 12t15 32zM1600 214q0 -102 -74 -174q74 69 74 174z" />
    <glyph glyph-name="Uhorn" unicode="&#x1af;" horiz-adv-x="1810" 
d="M1791 1180l75 -60v-480h-101v-546q0 -105 -74 -174q-83 -80 -217 -80h-840q-118 0 -199 65l-150 120q-90 72 -90 189v966h526l150 -120v-704h163q25 0 40 12t15 32v780h526l48 -38v38h128zM205 214q0 -105 79 -174.5t200 -69.5h840q122 0 201.5 69t79.5 175v956h-506
v-770q0 -24 -18 -39t-47 -15h-258q-28 0 -46.5 15.5t-18.5 38.5v770h-506v-956zM1673 1170v-460h108v460h-108zM1324 0h-840q-108 0 -178.5 60.5t-70.5 153.5v926h446v-740q0 -37 26 -60.5t67 -23.5h260q41 0 68 23.5t27 60.5v740h446v-926q0 -93 -71 -153.5t-180 -60.5z
M1703 740v400h48v-400h-48zM1324 -40q134 0 217 80q-87 -80 -217 -80z" />
    <glyph glyph-name="Uhorn" unicode="&#x1b0;" horiz-adv-x="1810" 
d="M1791 1180l75 -60v-480h-101v-546q0 -105 -74 -174q-83 -80 -217 -80h-840q-118 0 -199 65l-150 120q-90 72 -90 189v966h526l150 -120v-704h163q25 0 40 12t15 32v780h526l48 -38v38h128zM205 214q0 -105 79 -174.5t200 -69.5h840q122 0 201.5 69t79.5 175v956h-506
v-770q0 -24 -18 -39t-47 -15h-258q-28 0 -46.5 15.5t-18.5 38.5v770h-506v-956zM1673 1170v-460h108v460h-108zM1324 0h-840q-108 0 -178.5 60.5t-70.5 153.5v926h446v-740q0 -37 26 -60.5t67 -23.5h260q41 0 68 23.5t27 60.5v740h446v-926q0 -93 -71 -153.5t-180 -60.5z
M1703 740v400h48v-400h-48zM1324 -40q134 0 217 80q-87 -80 -217 -80z" />
    <glyph glyph-name="Uhorn" unicode="&#x1b0;" horiz-adv-x="1810" 
d="M1791 1180l75 -60v-480h-101v-546q0 -105 -74 -174q-83 -80 -217 -80h-840q-118 0 -199 65l-150 120q-90 72 -90 189v966h526l150 -120v-704h163q25 0 40 12t15 32v780h526l48 -38v38h128zM205 214q0 -105 79 -174.5t200 -69.5h840q122 0 201.5 69t79.5 175v956h-506
v-770q0 -24 -18 -39t-47 -15h-258q-28 0 -46.5 15.5t-18.5 38.5v770h-506v-956zM1673 1170v-460h108v460h-108zM1324 0h-840q-108 0 -178.5 60.5t-70.5 153.5v926h446v-740q0 -37 26 -60.5t67 -23.5h260q41 0 68 23.5t27 60.5v740h446v-926q0 -93 -71 -153.5t-180 -60.5z
M1703 740v400h48v-400h-48zM1324 -40q134 0 217 80q-87 -80 -217 -80z" />
    <glyph glyph-name="circumflex" unicode="&#x2c6;" horiz-adv-x="1040" 
d="M989 1411l75 -60l-34 -123l-435 123l-435 -123l-75 60l-34 123l469 134zM63 1404l29 -104l428 121l428 -121l29 104l-457 131zM520 1453l-407 -116l-13 46l420 120l420 -120l-13 -46z" />
    <glyph glyph-name="breve" unicode="&#x2d8;" horiz-adv-x="970" 
d="M926 1493l77 -102q-83 -73 -199 -113t-241 -40t-241 40t-199 113l-75 60l77 102q141 -127 363 -127t363 127zM126 1538l-64 -86q81 -68 193 -106t233 -38t233 38t193 106l-64 86q-144 -122 -362 -122t-362 122zM873 1458q-161 -120 -385 -120t-385 120l29 38
q147 -110 356 -110t356 110z" />
    <glyph glyph-name="tilde" unicode="&#x2dc;" horiz-adv-x="884" 
d="M844 1452l69 -106q-100 -80 -220 -80q-69 0 -195 39q-106 33 -157 33q-73 0 -151 -58l-75 60l-69 106q100 80 220 80q69 0 195 -39q106 -33 157 -33q73 0 151 58zM59 1444l59 -90q73 54 148 54q54 0 160 -33q126 -39 192 -39q110 0 207 72l-59 90q-73 -54 -148 -54
q-54 0 -160 33q-126 39 -192 39q-110 0 -207 -72zM266 1438q-72 0 -140 -42l-26 40q79 50 166 50q64 0 183 -37q113 -35 169 -35q72 0 140 42l26 -40q-79 -50 -166 -50q-64 0 -183 37q-113 35 -169 35z" />
    <glyph glyph-name="gravecomb" unicode="&#x300;" horiz-adv-x="0" 
d="M-54 1440l75 -60l-21 -127l-803 119l-75 60l21 127zM-849 1548l-17 -108l783 -116l17 108zM-832 1466l8 48l724 -108l-8 -48z" />
    <glyph glyph-name="acutecomb" unicode="&#x301;" horiz-adv-x="0" 
d="M-60 1830l75 -60v-530h-128l-75 60v530h128zM-178 1820v-510h108v510h-108zM-148 1340v450h48v-450h-48z" />
    <glyph glyph-name="uni0302" unicode="&#x302;" horiz-adv-x="0" 
d="M-51 1411l75 -60l-34 -123l-435 123l-435 -123l-75 60l-34 123l469 134zM-977 1404l29 -104l428 121l428 -121l29 104l-457 131zM-520 1453l-407 -116l-13 46l420 120l420 -120l-13 -46z" />
    <glyph glyph-name="tildecomb" unicode="&#x303;" horiz-adv-x="0" 
d="M-40 1452l69 -106q-100 -80 -220 -80q-69 0 -195 39q-106 33 -157 33q-73 0 -151 -58l-75 60l-69 106q100 80 220 80q69 0 195 -39q106 -33 157 -33q73 0 151 58zM-825 1444l59 -90q73 54 148 54q54 0 160 -33q126 -39 192 -39q110 0 207 72l-59 90q-73 -54 -148 -54
q-54 0 -160 33q-126 39 -192 39q-110 0 -207 -72zM-618 1438q-72 0 -140 -42l-26 40q79 50 166 50q64 0 183 -37q113 -35 169 -35q72 0 140 42l26 -40q-79 -50 -166 -50q-64 0 -183 37q-113 35 -169 35z" />
    <glyph glyph-name="uni0306" unicode="&#x306;" horiz-adv-x="0" 
d="M-44 1493l77 -102q-83 -73 -199 -113t-241 -40t-241 40t-199 113l-75 60l77 102q141 -127 363 -127t363 127zM-844 1538l-64 -86q81 -68 193 -106t233 -38t233 38t193 106l-64 86q-144 -122 -362 -122t-362 122zM-97 1458q-161 -120 -385 -120t-385 120l29 38
q147 -110 356 -110t356 110z" />
    <glyph glyph-name="hookabovecomb" unicode="&#x309;" horiz-adv-x="0" 
d="M-36 1379q0 -17 8 -37l15 -37l-119 -47l-75 60l-15 37q-17 41 -17 84q0 50 25 116t25 96q0 58 -42 119l-23 34l107 69l75 -60l22 -33q64 -97 64 -189q0 -47 -25 -122t-25 -90zM-213 1359l12 -28l100 40l-11 27q-9 22 -9 41q0 17 25 91.5t25 120.5q0 92 -62 183l-17 25
l-90 -58l17 -25q44 -66 44 -125q0 -33 -25 -99t-25 -113q0 -42 16 -80zM-140 1387l-45 -18q-14 37 -14 70q0 38 25 105t25 107q0 68 -49 141l-2 3l40 26l2 -3q57 -86 57 -167q0 -43 -29 -128q-21 -59 -21 -84q0 -24 11 -52z" />
    <glyph glyph-name="uni031B" unicode="&#x31b;" horiz-adv-x="0" 
d="M-60 1180l75 -60v-480h-128l-75 60v480h128zM-178 1170v-460h108v460h-108zM-148 740v400h48v-400h-48z" />
    <glyph glyph-name="dotbelowcomb" unicode="&#x323;" horiz-adv-x="0" 
d="M-60 -210l75 -60v-128h-440l-75 60v128h440zM-490 -220v-108h420v108h-420zM-460 -298v48h360v-48h-360z" />
    <glyph glyph-name="Wgrave" unicode="&#x1e80;" horiz-adv-x="1830" 
d="M1318 1213l-803 119l-75 60l21 127l803 -119l75 -60zM469 1508l-17 -108l783 -116l17 108zM486 1426l8 48l724 -108l-8 -48zM1729 1180l150 -120l-248 -1220h-424l-150 120l-47 81l-117 -201h-424l-150 120l-248 1220h504l150 -120l59 -286l116 188l150 -120l80 -129
l95 467h504zM900 248l163 -278h410l244 1200h-484l-118 -576l-215 349l-215 -349l-118 576h-484l244 -1200h410zM1080 0l-180 309l-180 -309h-368l-232 1140h422l128 -626l230 372l230 -372l128 626h422l-232 -1140h-368z" />
    <glyph glyph-name="Wgrave" unicode="&#x1e81;" horiz-adv-x="1830" 
d="M1318 1213l-803 119l-75 60l21 127l803 -119l75 -60zM469 1508l-17 -108l783 -116l17 108zM486 1426l8 48l724 -108l-8 -48zM1729 1180l150 -120l-248 -1220h-424l-150 120l-47 81l-117 -201h-424l-150 120l-248 1220h504l150 -120l59 -286l116 188l150 -120l80 -129
l95 467h504zM900 248l163 -278h410l244 1200h-484l-118 -576l-215 349l-215 -349l-118 576h-484l244 -1200h410zM1080 0l-180 309l-180 -309h-368l-232 1140h422l128 -626l230 372l230 -372l128 626h422l-232 -1140h-368z" />
    <glyph glyph-name="Wgrave" unicode="&#x1e81;" horiz-adv-x="1830" 
d="M1318 1213l-803 119l-75 60l21 127l803 -119l75 -60zM469 1508l-17 -108l783 -116l17 108zM486 1426l8 48l724 -108l-8 -48zM1729 1180l150 -120l-248 -1220h-424l-150 120l-47 81l-117 -201h-424l-150 120l-248 1220h504l150 -120l59 -286l116 188l150 -120l80 -129
l95 467h504zM900 248l163 -278h410l244 1200h-484l-118 -576l-215 349l-215 -349l-118 576h-484l244 -1200h410zM1080 0l-180 309l-180 -309h-368l-232 1140h422l128 -626l230 372l230 -372l128 626h422l-232 -1140h-368z" />
    <glyph glyph-name="Wacute" unicode="&#x1e82;" horiz-adv-x="1830" 
d="M1039 1200h-128l-75 60v530h128l75 -60v-530zM846 1780v-510h108v510h-108zM876 1300v450h48v-450h-48zM1729 1180l150 -120l-248 -1220h-424l-150 120l-47 81l-117 -201h-424l-150 120l-248 1220h504l150 -120l59 -286l116 188l150 -120l80 -129l95 467h504zM900 248
l163 -278h410l244 1200h-484l-118 -576l-215 349l-215 -349l-118 576h-484l244 -1200h410zM1080 0l-180 309l-180 -309h-368l-232 1140h422l128 -626l230 372l230 -372l128 626h422l-232 -1140h-368z" />
    <glyph glyph-name="Wacute" unicode="&#x1e83;" horiz-adv-x="1830" 
d="M1039 1200h-128l-75 60v530h128l75 -60v-530zM846 1780v-510h108v510h-108zM876 1300v450h48v-450h-48zM1729 1180l150 -120l-248 -1220h-424l-150 120l-47 81l-117 -201h-424l-150 120l-248 1220h504l150 -120l59 -286l116 188l150 -120l80 -129l95 467h504zM900 248
l163 -278h410l244 1200h-484l-118 -576l-215 349l-215 -349l-118 576h-484l244 -1200h410zM1080 0l-180 309l-180 -309h-368l-232 1140h422l128 -626l230 372l230 -372l128 626h422l-232 -1140h-368z" />
    <glyph glyph-name="Wacute" unicode="&#x1e83;" horiz-adv-x="1830" 
d="M1039 1200h-128l-75 60v530h128l75 -60v-530zM846 1780v-510h108v510h-108zM876 1300v450h48v-450h-48zM1729 1180l150 -120l-248 -1220h-424l-150 120l-47 81l-117 -201h-424l-150 120l-248 1220h504l150 -120l59 -286l116 188l150 -120l80 -129l95 467h504zM900 248
l163 -278h410l244 1200h-484l-118 -576l-215 349l-215 -349l-118 576h-484l244 -1200h410zM1080 0l-180 309l-180 -309h-368l-232 1140h422l128 -626l230 372l230 -372l128 626h422l-232 -1140h-368z" />
    <glyph glyph-name="uni1EA0" unicode="&#x1ea0;" 
d="M1340 1060l479 -1220h-536l-150 120l-25 70h-313l-68 -190h-536l-150 120l479 1220h670zM1072 160l68 -190h514l-471 1200h-656l-471 -1200h514l68 190h434zM1161 0l-68 190h-476l-68 -190h-449l447 1140h616l447 -1140h-449zM716 470h277l-139 388zM759 500l95 268
l96 -268h-191zM635 -210h440l75 -60v-128h-440l-75 60v128zM645 -220v-108h420v108h-420zM675 -298v48h360v-48h-360z" />
    <glyph glyph-name="uni1EA0" unicode="&#x1ea1;" 
d="M1340 1060l479 -1220h-536l-150 120l-25 70h-313l-68 -190h-536l-150 120l479 1220h670zM1072 160l68 -190h514l-471 1200h-656l-471 -1200h514l68 190h434zM1161 0l-68 190h-476l-68 -190h-449l447 1140h616l447 -1140h-449zM716 470h277l-139 388zM759 500l95 268
l96 -268h-191zM635 -210h440l75 -60v-128h-440l-75 60v128zM645 -220v-108h420v108h-420zM675 -298v48h360v-48h-360z" />
    <glyph glyph-name="uni1EA0" unicode="&#x1ea1;" 
d="M1340 1060l479 -1220h-536l-150 120l-25 70h-313l-68 -190h-536l-150 120l479 1220h670zM1072 160l68 -190h514l-471 1200h-656l-471 -1200h514l68 190h434zM1161 0l-68 190h-476l-68 -190h-449l447 1140h616l447 -1140h-449zM716 470h277l-139 388zM759 500l95 268
l96 -268h-191zM635 -210h440l75 -60v-128h-440l-75 60v128zM645 -220v-108h420v108h-420zM675 -298v48h360v-48h-360z" />
    <glyph glyph-name="uni1EA2" unicode="&#x1ea2;" 
d="M830 1611q0 58 -42 119l-23 34l107 69l75 -60l22 -33q64 -97 64 -189q0 -47 -25 -122t-25 -90q0 -17 8 -37l15 -37l-119 -47l-75 60l-15 37q-17 41 -17 84q0 50 25 116t25 96zM869 1819l-90 -58l17 -25q44 -66 44 -125q0 -32 -25 -98t-25 -114q0 -42 16 -80l12 -28
l100 40l-11 27q-9 22 -9 41q0 17 25 91.5t25 120.5q0 92 -62 183zM870 1611q0 67 -49 141l-2 3l40 26l2 -3q57 -86 57 -167q0 -43 -29 -128q-21 -59 -21 -84q0 -24 11 -52l-45 -18q-14 37 -14 70q0 38 25 105t25 107zM1340 1060l479 -1220h-536l-150 120l-25 70h-313
l-68 -190h-536l-150 120l479 1220h670zM1072 160l68 -190h514l-471 1200h-656l-471 -1200h514l68 190h434zM1161 0l-68 190h-476l-68 -190h-449l447 1140h616l447 -1140h-449zM716 470h277l-139 388zM759 500l95 268l96 -268h-191z" />
    <glyph glyph-name="uni1EA2" unicode="&#x1ea3;" 
d="M830 1611q0 58 -42 119l-23 34l107 69l75 -60l22 -33q64 -97 64 -189q0 -47 -25 -122t-25 -90q0 -17 8 -37l15 -37l-119 -47l-75 60l-15 37q-17 41 -17 84q0 50 25 116t25 96zM869 1819l-90 -58l17 -25q44 -66 44 -125q0 -32 -25 -98t-25 -114q0 -42 16 -80l12 -28
l100 40l-11 27q-9 22 -9 41q0 17 25 91.5t25 120.5q0 92 -62 183zM870 1611q0 67 -49 141l-2 3l40 26l2 -3q57 -86 57 -167q0 -43 -29 -128q-21 -59 -21 -84q0 -24 11 -52l-45 -18q-14 37 -14 70q0 38 25 105t25 107zM1340 1060l479 -1220h-536l-150 120l-25 70h-313
l-68 -190h-536l-150 120l479 1220h670zM1072 160l68 -190h514l-471 1200h-656l-471 -1200h514l68 190h434zM1161 0l-68 190h-476l-68 -190h-449l447 1140h616l447 -1140h-449zM716 470h277l-139 388zM759 500l95 268l96 -268h-191z" />
    <glyph glyph-name="uni1EA2" unicode="&#x1ea3;" 
d="M830 1611q0 58 -42 119l-23 34l107 69l75 -60l22 -33q64 -97 64 -189q0 -47 -25 -122t-25 -90q0 -17 8 -37l15 -37l-119 -47l-75 60l-15 37q-17 41 -17 84q0 50 25 116t25 96zM869 1819l-90 -58l17 -25q44 -66 44 -125q0 -32 -25 -98t-25 -114q0 -42 16 -80l12 -28
l100 40l-11 27q-9 22 -9 41q0 17 25 91.5t25 120.5q0 92 -62 183zM870 1611q0 67 -49 141l-2 3l40 26l2 -3q57 -86 57 -167q0 -43 -29 -128q-21 -59 -21 -84q0 -24 11 -52l-45 -18q-14 37 -14 70q0 38 25 105t25 107zM1340 1060l479 -1220h-536l-150 120l-25 70h-313
l-68 -190h-536l-150 120l479 1220h670zM1072 160l68 -190h514l-471 1200h-656l-471 -1200h514l68 190h434zM1161 0l-68 190h-476l-68 -190h-449l447 1140h616l447 -1140h-449zM716 470h277l-139 388zM759 500l95 268l96 -268h-191z" />
    <glyph glyph-name="uni1EA4" unicode="&#x1ea4;" 
d="M1608 1200h-128l-75 60v530h128l75 -60v-530zM1415 1780v-510h108v510h-108zM1445 1300v450h48v-450h-48zM495 1188l-75 60l-34 123l469 134l469 -134l75 -60l-34 -123l-435 123zM398 1364l29 -104l428 121l428 -121l29 104l-457 131zM855 1413l-407 -116l-13 46l420 120
l420 -120l-13 -46zM1340 1060l479 -1220h-536l-150 120l-25 70h-313l-68 -190h-536l-150 120l479 1220h670zM1072 160l68 -190h514l-471 1200h-656l-471 -1200h514l68 190h434zM1161 0l-68 190h-476l-68 -190h-449l447 1140h616l447 -1140h-449zM716 470h277l-139 388z
M759 500l95 268l96 -268h-191z" />
    <glyph glyph-name="uni1EA4" unicode="&#x1ea5;" 
d="M1608 1200h-128l-75 60v530h128l75 -60v-530zM1415 1780v-510h108v510h-108zM1445 1300v450h48v-450h-48zM495 1188l-75 60l-34 123l469 134l469 -134l75 -60l-34 -123l-435 123zM398 1364l29 -104l428 121l428 -121l29 104l-457 131zM855 1413l-407 -116l-13 46l420 120
l420 -120l-13 -46zM1340 1060l479 -1220h-536l-150 120l-25 70h-313l-68 -190h-536l-150 120l479 1220h670zM1072 160l68 -190h514l-471 1200h-656l-471 -1200h514l68 190h434zM1161 0l-68 190h-476l-68 -190h-449l447 1140h616l447 -1140h-449zM716 470h277l-139 388z
M759 500l95 268l96 -268h-191z" />
    <glyph glyph-name="uni1EA4" unicode="&#x1ea5;" 
d="M1608 1200h-128l-75 60v530h128l75 -60v-530zM1415 1780v-510h108v510h-108zM1445 1300v450h48v-450h-48zM495 1188l-75 60l-34 123l469 134l469 -134l75 -60l-34 -123l-435 123zM398 1364l29 -104l428 121l428 -121l29 104l-457 131zM855 1413l-407 -116l-13 46l420 120
l420 -120l-13 -46zM1340 1060l479 -1220h-536l-150 120l-25 70h-313l-68 -190h-536l-150 120l479 1220h670zM1072 160l68 -190h514l-471 1200h-656l-471 -1200h514l68 190h434zM1161 0l-68 190h-476l-68 -190h-449l447 1140h616l447 -1140h-449zM716 470h277l-139 388z
M759 500l95 268l96 -268h-191z" />
    <glyph glyph-name="uni1EA6" unicode="&#x1ea6;" 
d="M1538 1434l-803 119l-75 60l21 127l803 -119l75 -60zM689 1729l-17 -108l783 -116l17 108zM706 1647l8 48l724 -108l-8 -48zM495 1188l-75 60l-34 123l469 134l469 -134l75 -60l-34 -123l-435 123zM398 1364l29 -104l428 121l428 -121l29 104l-457 131zM855 1413
l-407 -116l-13 46l420 120l420 -120l-13 -46zM1340 1060l479 -1220h-536l-150 120l-25 70h-313l-68 -190h-536l-150 120l479 1220h670zM1072 160l68 -190h514l-471 1200h-656l-471 -1200h514l68 190h434zM1161 0l-68 190h-476l-68 -190h-449l447 1140h616l447 -1140h-449z
M716 470h277l-139 388zM759 500l95 268l96 -268h-191z" />
    <glyph glyph-name="uni1EA6" unicode="&#x1ea7;" 
d="M1538 1434l-803 119l-75 60l21 127l803 -119l75 -60zM689 1729l-17 -108l783 -116l17 108zM706 1647l8 48l724 -108l-8 -48zM495 1188l-75 60l-34 123l469 134l469 -134l75 -60l-34 -123l-435 123zM398 1364l29 -104l428 121l428 -121l29 104l-457 131zM855 1413
l-407 -116l-13 46l420 120l420 -120l-13 -46zM1340 1060l479 -1220h-536l-150 120l-25 70h-313l-68 -190h-536l-150 120l479 1220h670zM1072 160l68 -190h514l-471 1200h-656l-471 -1200h514l68 190h434zM1161 0l-68 190h-476l-68 -190h-449l447 1140h616l447 -1140h-449z
M716 470h277l-139 388zM759 500l95 268l96 -268h-191z" />
    <glyph glyph-name="uni1EA6" unicode="&#x1ea7;" 
d="M1538 1434l-803 119l-75 60l21 127l803 -119l75 -60zM689 1729l-17 -108l783 -116l17 108zM706 1647l8 48l724 -108l-8 -48zM495 1188l-75 60l-34 123l469 134l469 -134l75 -60l-34 -123l-435 123zM398 1364l29 -104l428 121l428 -121l29 104l-457 131zM855 1413
l-407 -116l-13 46l420 120l420 -120l-13 -46zM1340 1060l479 -1220h-536l-150 120l-25 70h-313l-68 -190h-536l-150 120l479 1220h670zM1072 160l68 -190h514l-471 1200h-656l-471 -1200h514l68 190h434zM1161 0l-68 190h-476l-68 -190h-449l447 1140h616l447 -1140h-449z
M716 470h277l-139 388zM759 500l95 268l96 -268h-191z" />
    <glyph glyph-name="uni1EA8" unicode="&#x1ea8;" 
d="M495 1188l-75 60l-34 123l469 134l469 -134l39 -32q-8 34 -8 60q0 50 25 116t25 96q0 58 -42 119l-23 34l107 69l75 -60l22 -33q64 -97 64 -189q0 -47 -25 -122t-25 -90q0 -17 8 -37l15 -37l-119 -47l-73 58l-24 -88l-435 123zM1365 1399q0 -35 12 -71l22 -17l-5 -20
l99 40l-11 27q-9 22 -9 41q0 17 25 91.5t25 120.5q0 92 -62 183l-17 25l-90 -58l17 -25q44 -66 44 -125q0 -32 -25 -98t-25 -114zM1454 1347l-45 -18q-14 37 -14 70q0 38 25 105t25 107q0 67 -49 141l-2 3l40 26l2 -3q57 -85 57 -167q0 -43 -29 -128q-21 -59 -21 -84
q0 -24 11 -52zM398 1364l29 -104l428 121l428 -121l29 104l-457 131zM855 1413l-407 -116l-13 46l420 120l420 -120l-13 -46zM1340 1060l479 -1220h-536l-150 120l-25 70h-313l-68 -190h-536l-150 120l479 1220h670zM1072 160l68 -190h514l-471 1200h-656l-471 -1200h514
l68 190h434zM1161 0l-68 190h-476l-68 -190h-449l447 1140h616l447 -1140h-449zM716 470h277l-139 388zM759 500l95 268l96 -268h-191z" />
    <glyph glyph-name="uni1EA8" unicode="&#x1ea9;" 
d="M495 1188l-75 60l-34 123l469 134l469 -134l39 -32q-8 34 -8 60q0 50 25 116t25 96q0 58 -42 119l-23 34l107 69l75 -60l22 -33q64 -97 64 -189q0 -47 -25 -122t-25 -90q0 -17 8 -37l15 -37l-119 -47l-73 58l-24 -88l-435 123zM1365 1399q0 -35 12 -71l22 -17l-5 -20
l99 40l-11 27q-9 22 -9 41q0 17 25 91.5t25 120.5q0 92 -62 183l-17 25l-90 -58l17 -25q44 -66 44 -125q0 -32 -25 -98t-25 -114zM1454 1347l-45 -18q-14 37 -14 70q0 38 25 105t25 107q0 67 -49 141l-2 3l40 26l2 -3q57 -85 57 -167q0 -43 -29 -128q-21 -59 -21 -84
q0 -24 11 -52zM398 1364l29 -104l428 121l428 -121l29 104l-457 131zM855 1413l-407 -116l-13 46l420 120l420 -120l-13 -46zM1340 1060l479 -1220h-536l-150 120l-25 70h-313l-68 -190h-536l-150 120l479 1220h670zM1072 160l68 -190h514l-471 1200h-656l-471 -1200h514
l68 190h434zM1161 0l-68 190h-476l-68 -190h-449l447 1140h616l447 -1140h-449zM716 470h277l-139 388zM759 500l95 268l96 -268h-191z" />
    <glyph glyph-name="uni1EA8" unicode="&#x1ea9;" 
d="M495 1188l-75 60l-34 123l469 134l469 -134l39 -32q-8 34 -8 60q0 50 25 116t25 96q0 58 -42 119l-23 34l107 69l75 -60l22 -33q64 -97 64 -189q0 -47 -25 -122t-25 -90q0 -17 8 -37l15 -37l-119 -47l-73 58l-24 -88l-435 123zM1365 1399q0 -35 12 -71l22 -17l-5 -20
l99 40l-11 27q-9 22 -9 41q0 17 25 91.5t25 120.5q0 92 -62 183l-17 25l-90 -58l17 -25q44 -66 44 -125q0 -32 -25 -98t-25 -114zM1454 1347l-45 -18q-14 37 -14 70q0 38 25 105t25 107q0 67 -49 141l-2 3l40 26l2 -3q57 -85 57 -167q0 -43 -29 -128q-21 -59 -21 -84
q0 -24 11 -52zM398 1364l29 -104l428 121l428 -121l29 104l-457 131zM855 1413l-407 -116l-13 46l420 120l420 -120l-13 -46zM1340 1060l479 -1220h-536l-150 120l-25 70h-313l-68 -190h-536l-150 120l479 1220h670zM1072 160l68 -190h514l-471 1200h-656l-471 -1200h514
l68 190h434zM1161 0l-68 190h-476l-68 -190h-449l447 1140h616l447 -1140h-449zM716 470h277l-139 388zM759 500l95 268l96 -268h-191z" />
    <glyph glyph-name="uni1EAA" unicode="&#x1eaa;" 
d="M603 1472l-75 60l-69 106q100 80 220 80q69 0 195 -39q106 -33 157 -33q73 0 151 58l75 -60l69 -106q-100 -80 -220 -80q-69 0 -195 39q-106 33 -157 33q-73 0 -151 -58zM472 1636l59 -90q73 54 148 54q54 0 160 -33q126 -39 192 -39q110 0 207 72l-59 90
q-73 -54 -148 -54q-54 0 -160 33q-126 39 -192 39q-110 0 -207 -72zM679 1630q-73 0 -140 -42l-26 40q79 50 166 50q64 0 183 -37q113 -35 169 -35q73 0 140 42l26 -40q-79 -50 -166 -50q-64 0 -183 37q-113 35 -169 35zM495 1188l-75 60l-34 123l469 134l469 -134l75 -60
l-34 -123l-435 123zM398 1364l29 -104l428 121l428 -121l29 104l-457 131zM855 1413l-407 -116l-13 46l420 120l420 -120l-13 -46zM1340 1060l479 -1220h-536l-150 120l-25 70h-313l-68 -190h-536l-150 120l479 1220h670zM1072 160l68 -190h514l-471 1200h-656l-471 -1200
h514l68 190h434zM1161 0l-68 190h-476l-68 -190h-449l447 1140h616l447 -1140h-449zM716 470h277l-139 388zM759 500l95 268l96 -268h-191z" />
    <glyph glyph-name="uni1EAA" unicode="&#x1eab;" 
d="M603 1472l-75 60l-69 106q100 80 220 80q69 0 195 -39q106 -33 157 -33q73 0 151 58l75 -60l69 -106q-100 -80 -220 -80q-69 0 -195 39q-106 33 -157 33q-73 0 -151 -58zM472 1636l59 -90q73 54 148 54q54 0 160 -33q126 -39 192 -39q110 0 207 72l-59 90
q-73 -54 -148 -54q-54 0 -160 33q-126 39 -192 39q-110 0 -207 -72zM679 1630q-73 0 -140 -42l-26 40q79 50 166 50q64 0 183 -37q113 -35 169 -35q73 0 140 42l26 -40q-79 -50 -166 -50q-64 0 -183 37q-113 35 -169 35zM495 1188l-75 60l-34 123l469 134l469 -134l75 -60
l-34 -123l-435 123zM398 1364l29 -104l428 121l428 -121l29 104l-457 131zM855 1413l-407 -116l-13 46l420 120l420 -120l-13 -46zM1340 1060l479 -1220h-536l-150 120l-25 70h-313l-68 -190h-536l-150 120l479 1220h670zM1072 160l68 -190h514l-471 1200h-656l-471 -1200
h514l68 190h434zM1161 0l-68 190h-476l-68 -190h-449l447 1140h616l447 -1140h-449zM716 470h277l-139 388zM759 500l95 268l96 -268h-191z" />
    <glyph glyph-name="uni1EAA" unicode="&#x1eab;" 
d="M603 1472l-75 60l-69 106q100 80 220 80q69 0 195 -39q106 -33 157 -33q73 0 151 58l75 -60l69 -106q-100 -80 -220 -80q-69 0 -195 39q-106 33 -157 33q-73 0 -151 -58zM472 1636l59 -90q73 54 148 54q54 0 160 -33q126 -39 192 -39q110 0 207 72l-59 90
q-73 -54 -148 -54q-54 0 -160 33q-126 39 -192 39q-110 0 -207 -72zM679 1630q-73 0 -140 -42l-26 40q79 50 166 50q64 0 183 -37q113 -35 169 -35q73 0 140 42l26 -40q-79 -50 -166 -50q-64 0 -183 37q-113 35 -169 35zM495 1188l-75 60l-34 123l469 134l469 -134l75 -60
l-34 -123l-435 123zM398 1364l29 -104l428 121l428 -121l29 104l-457 131zM855 1413l-407 -116l-13 46l420 120l420 -120l-13 -46zM1340 1060l479 -1220h-536l-150 120l-25 70h-313l-68 -190h-536l-150 120l479 1220h670zM1072 160l68 -190h514l-471 1200h-656l-471 -1200
h514l68 190h434zM1161 0l-68 190h-476l-68 -190h-449l447 1140h616l447 -1140h-449zM716 470h277l-139 388zM759 500l95 268l96 -268h-191z" />
    <glyph glyph-name="uni1EAC" unicode="&#x1eac;" 
d="M495 1188l-75 60l-34 123l469 134l469 -134l75 -60l-34 -123l-435 123zM398 1364l29 -104l428 121l428 -121l29 104l-457 131zM855 1413l-407 -116l-13 46l420 120l420 -120l-13 -46zM1340 1060l479 -1220h-536l-150 120l-25 70h-313l-68 -190h-536l-150 120l479 1220
h670zM1072 160l68 -190h514l-471 1200h-656l-471 -1200h514l68 190h434zM1161 0l-68 190h-476l-68 -190h-449l447 1140h616l447 -1140h-449zM716 470h277l-139 388zM759 500l95 268l96 -268h-191zM635 -210h440l75 -60v-128h-440l-75 60v128zM645 -220v-108h420v108h-420z
M675 -298v48h360v-48h-360z" />
    <glyph glyph-name="uni1EAC" unicode="&#x1ead;" 
d="M495 1188l-75 60l-34 123l469 134l469 -134l75 -60l-34 -123l-435 123zM398 1364l29 -104l428 121l428 -121l29 104l-457 131zM855 1413l-407 -116l-13 46l420 120l420 -120l-13 -46zM1340 1060l479 -1220h-536l-150 120l-25 70h-313l-68 -190h-536l-150 120l479 1220
h670zM1072 160l68 -190h514l-471 1200h-656l-471 -1200h514l68 190h434zM1161 0l-68 190h-476l-68 -190h-449l447 1140h616l447 -1140h-449zM716 470h277l-139 388zM759 500l95 268l96 -268h-191zM635 -210h440l75 -60v-128h-440l-75 60v128zM645 -220v-108h420v108h-420z
M675 -298v48h360v-48h-360z" />
    <glyph glyph-name="uni1EAC" unicode="&#x1ead;" 
d="M495 1188l-75 60l-34 123l469 134l469 -134l75 -60l-34 -123l-435 123zM398 1364l29 -104l428 121l428 -121l29 104l-457 131zM855 1413l-407 -116l-13 46l420 120l420 -120l-13 -46zM1340 1060l479 -1220h-536l-150 120l-25 70h-313l-68 -190h-536l-150 120l479 1220
h670zM1072 160l68 -190h514l-471 1200h-656l-471 -1200h514l68 190h434zM1161 0l-68 190h-476l-68 -190h-449l447 1140h616l447 -1140h-449zM716 470h277l-139 388zM759 500l95 268l96 -268h-191zM635 -210h440l75 -60v-128h-440l-75 60v128zM645 -220v-108h420v108h-420z
M675 -298v48h360v-48h-360z" />
    <glyph glyph-name="uni1EAE" unicode="&#x1eae;" 
d="M1590 1200h-128l-75 60v530h128l75 -60v-530zM1397 1780v-510h108v510h-108zM1427 1300v450h48v-450h-48zM490 1351l-75 60l77 102q141 -127 363 -127t363 127l75 -60l77 -102q-83 -73 -199 -113t-241 -40t-241 40t-199 113zM493 1498l-64 -86q81 -68 193 -106t233 -38
t233 38t193 106l-64 86q-144 -122 -362 -122t-362 122zM1240 1418q-161 -120 -385 -120t-385 120l29 38q147 -110 356 -110t356 110zM1340 1060l479 -1220h-536l-150 120l-25 70h-313l-68 -190h-536l-150 120l479 1220h670zM1072 160l68 -190h514l-471 1200h-656l-471 -1200
h514l68 190h434zM1161 0l-68 190h-476l-68 -190h-449l447 1140h616l447 -1140h-449zM716 470h277l-139 388zM759 500l95 268l96 -268h-191z" />
    <glyph glyph-name="uni1EAE" unicode="&#x1eaf;" 
d="M1590 1200h-128l-75 60v530h128l75 -60v-530zM1397 1780v-510h108v510h-108zM1427 1300v450h48v-450h-48zM490 1351l-75 60l77 102q141 -127 363 -127t363 127l75 -60l77 -102q-83 -73 -199 -113t-241 -40t-241 40t-199 113zM493 1498l-64 -86q81 -68 193 -106t233 -38
t233 38t193 106l-64 86q-144 -122 -362 -122t-362 122zM1240 1418q-161 -120 -385 -120t-385 120l29 38q147 -110 356 -110t356 110zM1340 1060l479 -1220h-536l-150 120l-25 70h-313l-68 -190h-536l-150 120l479 1220h670zM1072 160l68 -190h514l-471 1200h-656l-471 -1200
h514l68 190h434zM1161 0l-68 190h-476l-68 -190h-449l447 1140h616l447 -1140h-449zM716 470h277l-139 388zM759 500l95 268l96 -268h-191z" />
    <glyph glyph-name="uni1EAE" unicode="&#x1eaf;" 
d="M1590 1200h-128l-75 60v530h128l75 -60v-530zM1397 1780v-510h108v510h-108zM1427 1300v450h48v-450h-48zM490 1351l-75 60l77 102q141 -127 363 -127t363 127l75 -60l77 -102q-83 -73 -199 -113t-241 -40t-241 40t-199 113zM493 1498l-64 -86q81 -68 193 -106t233 -38
t233 38t193 106l-64 86q-144 -122 -362 -122t-362 122zM1240 1418q-161 -120 -385 -120t-385 120l29 38q147 -110 356 -110t356 110zM1340 1060l479 -1220h-536l-150 120l-25 70h-313l-68 -190h-536l-150 120l479 1220h670zM1072 160l68 -190h514l-471 1200h-656l-471 -1200
h514l68 190h434zM1161 0l-68 190h-476l-68 -190h-449l447 1140h616l447 -1140h-449zM716 470h277l-139 388zM759 500l95 268l96 -268h-191z" />
    <glyph glyph-name="uni1EB0" unicode="&#x1eb0;" 
d="M1069 1433l-803 119l-75 60l21 127l803 -119l75 -60zM220 1728l-17 -108l783 -116l17 108zM237 1646l8 48l724 -108l-8 -48zM492 1513q141 -127 363 -127t363 127l75 -60l77 -102q-83 -73 -199 -113t-241 -40t-241 40t-199 113l-75 60zM1281 1412l-64 86
q-144 -122 -362 -122t-362 122l-64 -86q81 -68 193 -106t233 -38t233 38t193 106zM499 1456q147 -110 356 -110t356 110l29 -38q-161 -120 -385 -120t-385 120zM1340 1060l479 -1220h-536l-150 120l-25 70h-313l-68 -190h-536l-150 120l479 1220h670zM1072 160l68 -190h514
l-471 1200h-656l-471 -1200h514l68 190h434zM1161 0l-68 190h-476l-68 -190h-449l447 1140h616l447 -1140h-449zM716 470h277l-139 388zM759 500l95 268l96 -268h-191z" />
    <glyph glyph-name="uni1EB0" unicode="&#x1eb1;" 
d="M1069 1433l-803 119l-75 60l21 127l803 -119l75 -60zM220 1728l-17 -108l783 -116l17 108zM237 1646l8 48l724 -108l-8 -48zM492 1513q141 -127 363 -127t363 127l75 -60l77 -102q-83 -73 -199 -113t-241 -40t-241 40t-199 113l-75 60zM1281 1412l-64 86
q-144 -122 -362 -122t-362 122l-64 -86q81 -68 193 -106t233 -38t233 38t193 106zM499 1456q147 -110 356 -110t356 110l29 -38q-161 -120 -385 -120t-385 120zM1340 1060l479 -1220h-536l-150 120l-25 70h-313l-68 -190h-536l-150 120l479 1220h670zM1072 160l68 -190h514
l-471 1200h-656l-471 -1200h514l68 190h434zM1161 0l-68 190h-476l-68 -190h-449l447 1140h616l447 -1140h-449zM716 470h277l-139 388zM759 500l95 268l96 -268h-191z" />
    <glyph glyph-name="uni1EB0" unicode="&#x1eb1;" 
d="M1069 1433l-803 119l-75 60l21 127l803 -119l75 -60zM220 1728l-17 -108l783 -116l17 108zM237 1646l8 48l724 -108l-8 -48zM492 1513q141 -127 363 -127t363 127l75 -60l77 -102q-83 -73 -199 -113t-241 -40t-241 40t-199 113l-75 60zM1281 1412l-64 86
q-144 -122 -362 -122t-362 122l-64 -86q81 -68 193 -106t233 -38t233 38t193 106zM499 1456q147 -110 356 -110t356 110l29 -38q-161 -120 -385 -120t-385 120zM1340 1060l479 -1220h-536l-150 120l-25 70h-313l-68 -190h-536l-150 120l479 1220h670zM1072 160l68 -190h514
l-471 1200h-656l-471 -1200h514l68 190h434zM1161 0l-68 190h-476l-68 -190h-449l447 1140h616l447 -1140h-449zM716 470h277l-139 388zM759 500l95 268l96 -268h-191z" />
    <glyph glyph-name="uni1EB2" unicode="&#x1eb2;" 
d="M490 1351l-75 60l77 102q141 -127 363 -127t363 127l75 -60l55 -73q-1 7 -1 19q0 50 25 116t25 96q0 58 -42 119l-23 34l107 69l75 -60l22 -33q64 -97 64 -189q0 -47 -25 -122t-25 -90q0 -17 8 -37l15 -37l-119 -47l-75 60l-15 37q-6 16 -8 24q-83 -67 -194.5 -104
t-231.5 -37q-125 0 -241 40t-199 113zM1357 1399q0 -17 3 -35l10 -13l-6 -5q3 -14 9 -27l12 -28l100 40l-11 27q-9 22 -9 41q0 17 25 91.5t25 120.5q0 92 -62 183l-17 25l-90 -58l17 -25q44 -66 44 -125q0 -32 -25 -98t-25 -114zM1446 1347l-45 -18q-14 37 -14 70
q0 38 25 105t25 107q0 67 -49 141l-2 3l40 26l2 -3q57 -85 57 -167q0 -43 -29 -128q-21 -59 -21 -84q0 -24 11 -52zM493 1498l-64 -86q81 -68 193 -106t233 -38t233 38t193 106l-64 86q-144 -122 -362 -122t-362 122zM1240 1418q-161 -120 -385 -120t-385 120l29 38
q147 -110 356 -110t356 110zM1340 1060l479 -1220h-536l-150 120l-25 70h-313l-68 -190h-536l-150 120l479 1220h670zM1072 160l68 -190h514l-471 1200h-656l-471 -1200h514l68 190h434zM1161 0l-68 190h-476l-68 -190h-449l447 1140h616l447 -1140h-449zM716 470h277
l-139 388zM759 500l95 268l96 -268h-191z" />
    <glyph glyph-name="uni1EB2" unicode="&#x1eb3;" 
d="M490 1351l-75 60l77 102q141 -127 363 -127t363 127l75 -60l55 -73q-1 7 -1 19q0 50 25 116t25 96q0 58 -42 119l-23 34l107 69l75 -60l22 -33q64 -97 64 -189q0 -47 -25 -122t-25 -90q0 -17 8 -37l15 -37l-119 -47l-75 60l-15 37q-6 16 -8 24q-83 -67 -194.5 -104
t-231.5 -37q-125 0 -241 40t-199 113zM1357 1399q0 -17 3 -35l10 -13l-6 -5q3 -14 9 -27l12 -28l100 40l-11 27q-9 22 -9 41q0 17 25 91.5t25 120.5q0 92 -62 183l-17 25l-90 -58l17 -25q44 -66 44 -125q0 -32 -25 -98t-25 -114zM1446 1347l-45 -18q-14 37 -14 70
q0 38 25 105t25 107q0 67 -49 141l-2 3l40 26l2 -3q57 -85 57 -167q0 -43 -29 -128q-21 -59 -21 -84q0 -24 11 -52zM493 1498l-64 -86q81 -68 193 -106t233 -38t233 38t193 106l-64 86q-144 -122 -362 -122t-362 122zM1240 1418q-161 -120 -385 -120t-385 120l29 38
q147 -110 356 -110t356 110zM1340 1060l479 -1220h-536l-150 120l-25 70h-313l-68 -190h-536l-150 120l479 1220h670zM1072 160l68 -190h514l-471 1200h-656l-471 -1200h514l68 190h434zM1161 0l-68 190h-476l-68 -190h-449l447 1140h616l447 -1140h-449zM716 470h277
l-139 388zM759 500l95 268l96 -268h-191z" />
    <glyph glyph-name="uni1EB2" unicode="&#x1eb3;" 
d="M490 1351l-75 60l77 102q141 -127 363 -127t363 127l75 -60l55 -73q-1 7 -1 19q0 50 25 116t25 96q0 58 -42 119l-23 34l107 69l75 -60l22 -33q64 -97 64 -189q0 -47 -25 -122t-25 -90q0 -17 8 -37l15 -37l-119 -47l-75 60l-15 37q-6 16 -8 24q-83 -67 -194.5 -104
t-231.5 -37q-125 0 -241 40t-199 113zM1357 1399q0 -17 3 -35l10 -13l-6 -5q3 -14 9 -27l12 -28l100 40l-11 27q-9 22 -9 41q0 17 25 91.5t25 120.5q0 92 -62 183l-17 25l-90 -58l17 -25q44 -66 44 -125q0 -32 -25 -98t-25 -114zM1446 1347l-45 -18q-14 37 -14 70
q0 38 25 105t25 107q0 67 -49 141l-2 3l40 26l2 -3q57 -85 57 -167q0 -43 -29 -128q-21 -59 -21 -84q0 -24 11 -52zM493 1498l-64 -86q81 -68 193 -106t233 -38t233 38t193 106l-64 86q-144 -122 -362 -122t-362 122zM1240 1418q-161 -120 -385 -120t-385 120l29 38
q147 -110 356 -110t356 110zM1340 1060l479 -1220h-536l-150 120l-25 70h-313l-68 -190h-536l-150 120l479 1220h670zM1072 160l68 -190h514l-471 1200h-656l-471 -1200h514l68 190h434zM1161 0l-68 190h-476l-68 -190h-449l447 1140h616l447 -1140h-449zM716 470h277
l-139 388zM759 500l95 268l96 -268h-191z" />
    <glyph glyph-name="uni1EB4" unicode="&#x1eb4;" 
d="M492 1513q141 -127 363 -127q139 0 250 53q-68 0 -194 39q-106 33 -157 33q-73 0 -151 -58l-75 60l-69 106q100 80 220 80q69 0 195 -39q106 -33 157 -33q73 0 151 58l75 -60l69 -106q-30 -24 -64 -41l31 -25l77 -102q-83 -73 -199 -113t-241 -40t-241 40t-199 113
l-75 60zM472 1617l59 -90q73 54 148 54q54 0 160 -33q126 -39 192 -39q110 0 207 72l-59 90q-73 -54 -148 -54q-54 0 -160 33q-126 39 -192 39q-110 0 -207 -72zM679 1611q-73 0 -140 -42l-26 40q79 50 166 50q64 0 183 -37q113 -35 169 -35q73 0 140 42l26 -40
q-79 -50 -166 -50q-64 0 -183 37q-113 35 -169 35zM1217 1498q-144 -122 -362 -122t-362 122l-64 -86q81 -68 193 -106t233 -38t233 38t193 106zM499 1456q147 -110 356 -110t356 110l29 -38q-161 -120 -385 -120t-385 120zM1340 1060l479 -1220h-536l-150 120l-25 70h-313
l-68 -190h-536l-150 120l479 1220h670zM1072 160l68 -190h514l-471 1200h-656l-471 -1200h514l68 190h434zM1161 0l-68 190h-476l-68 -190h-449l447 1140h616l447 -1140h-449zM716 470h277l-139 388zM759 500l95 268l96 -268h-191z" />
    <glyph glyph-name="uni1EB4" unicode="&#x1eb5;" 
d="M492 1513q141 -127 363 -127q139 0 250 53q-68 0 -194 39q-106 33 -157 33q-73 0 -151 -58l-75 60l-69 106q100 80 220 80q69 0 195 -39q106 -33 157 -33q73 0 151 58l75 -60l69 -106q-30 -24 -64 -41l31 -25l77 -102q-83 -73 -199 -113t-241 -40t-241 40t-199 113
l-75 60zM472 1617l59 -90q73 54 148 54q54 0 160 -33q126 -39 192 -39q110 0 207 72l-59 90q-73 -54 -148 -54q-54 0 -160 33q-126 39 -192 39q-110 0 -207 -72zM679 1611q-73 0 -140 -42l-26 40q79 50 166 50q64 0 183 -37q113 -35 169 -35q73 0 140 42l26 -40
q-79 -50 -166 -50q-64 0 -183 37q-113 35 -169 35zM1217 1498q-144 -122 -362 -122t-362 122l-64 -86q81 -68 193 -106t233 -38t233 38t193 106zM499 1456q147 -110 356 -110t356 110l29 -38q-161 -120 -385 -120t-385 120zM1340 1060l479 -1220h-536l-150 120l-25 70h-313
l-68 -190h-536l-150 120l479 1220h670zM1072 160l68 -190h514l-471 1200h-656l-471 -1200h514l68 190h434zM1161 0l-68 190h-476l-68 -190h-449l447 1140h616l447 -1140h-449zM716 470h277l-139 388zM759 500l95 268l96 -268h-191z" />
    <glyph glyph-name="uni1EB4" unicode="&#x1eb5;" 
d="M492 1513q141 -127 363 -127q139 0 250 53q-68 0 -194 39q-106 33 -157 33q-73 0 -151 -58l-75 60l-69 106q100 80 220 80q69 0 195 -39q106 -33 157 -33q73 0 151 58l75 -60l69 -106q-30 -24 -64 -41l31 -25l77 -102q-83 -73 -199 -113t-241 -40t-241 40t-199 113
l-75 60zM472 1617l59 -90q73 54 148 54q54 0 160 -33q126 -39 192 -39q110 0 207 72l-59 90q-73 -54 -148 -54q-54 0 -160 33q-126 39 -192 39q-110 0 -207 -72zM679 1611q-73 0 -140 -42l-26 40q79 50 166 50q64 0 183 -37q113 -35 169 -35q73 0 140 42l26 -40
q-79 -50 -166 -50q-64 0 -183 37q-113 35 -169 35zM1217 1498q-144 -122 -362 -122t-362 122l-64 -86q81 -68 193 -106t233 -38t233 38t193 106zM499 1456q147 -110 356 -110t356 110l29 -38q-161 -120 -385 -120t-385 120zM1340 1060l479 -1220h-536l-150 120l-25 70h-313
l-68 -190h-536l-150 120l479 1220h670zM1072 160l68 -190h514l-471 1200h-656l-471 -1200h514l68 190h434zM1161 0l-68 190h-476l-68 -190h-449l447 1140h616l447 -1140h-449zM716 470h277l-139 388zM759 500l95 268l96 -268h-191z" />
    <glyph glyph-name="uni1EB6" unicode="&#x1eb6;" 
d="M485 1351l-75 60l77 102q141 -127 363 -127t363 127l75 -60l77 -102q-83 -73 -199 -113t-241 -40t-241 40t-199 113zM488 1498l-64 -86q81 -68 193 -106t233 -38t233 38t193 106l-64 86q-144 -122 -362 -122t-362 122zM1235 1418q-161 -120 -385 -120t-385 120l29 38
q147 -110 356 -110t356 110zM1340 1060l479 -1220h-536l-150 120l-25 70h-313l-68 -190h-536l-150 120l479 1220h670zM1072 160l68 -190h514l-471 1200h-656l-471 -1200h514l68 190h434zM1161 0l-68 190h-476l-68 -190h-449l447 1140h616l447 -1140h-449zM716 470h277
l-139 388zM759 500l95 268l96 -268h-191zM635 -210h440l75 -60v-128h-440l-75 60v128zM645 -220v-108h420v108h-420zM675 -298v48h360v-48h-360z" />
    <glyph glyph-name="uni1EB6" unicode="&#x1eb7;" 
d="M485 1351l-75 60l77 102q141 -127 363 -127t363 127l75 -60l77 -102q-83 -73 -199 -113t-241 -40t-241 40t-199 113zM488 1498l-64 -86q81 -68 193 -106t233 -38t233 38t193 106l-64 86q-144 -122 -362 -122t-362 122zM1235 1418q-161 -120 -385 -120t-385 120l29 38
q147 -110 356 -110t356 110zM1340 1060l479 -1220h-536l-150 120l-25 70h-313l-68 -190h-536l-150 120l479 1220h670zM1072 160l68 -190h514l-471 1200h-656l-471 -1200h514l68 190h434zM1161 0l-68 190h-476l-68 -190h-449l447 1140h616l447 -1140h-449zM716 470h277
l-139 388zM759 500l95 268l96 -268h-191zM635 -210h440l75 -60v-128h-440l-75 60v128zM645 -220v-108h420v108h-420zM675 -298v48h360v-48h-360z" />
    <glyph glyph-name="uni1EB6" unicode="&#x1eb7;" 
d="M485 1351l-75 60l77 102q141 -127 363 -127t363 127l75 -60l77 -102q-83 -73 -199 -113t-241 -40t-241 40t-199 113zM488 1498l-64 -86q81 -68 193 -106t233 -38t233 38t193 106l-64 86q-144 -122 -362 -122t-362 122zM1235 1418q-161 -120 -385 -120t-385 120l29 38
q147 -110 356 -110t356 110zM1340 1060l479 -1220h-536l-150 120l-25 70h-313l-68 -190h-536l-150 120l479 1220h670zM1072 160l68 -190h514l-471 1200h-656l-471 -1200h514l68 190h434zM1161 0l-68 190h-476l-68 -190h-449l447 1140h616l447 -1140h-449zM716 470h277
l-139 388zM759 500l95 268l96 -268h-191zM635 -210h440l75 -60v-128h-440l-75 60v128zM645 -220v-108h420v108h-420zM675 -298v48h360v-48h-360z" />
    <glyph glyph-name="uni1EB8" unicode="&#x1eb8;" horiz-adv-x="1690" 
d="M1700 1060v-375h-355l75 -60v-290h130l150 -120v-375h-1340l-150 120v1220h1340zM1540 325h-804v80h524v330h-524v80h804v355h-1320v-1200h1320v355zM706 435v-140h804v-295h-1260v1140h1260v-295h-804v-140h524v-270h-524zM685 -210h440l75 -60v-128h-440l-75 60v128z
M695 -220v-108h420v108h-420zM725 -298v48h360v-48h-360z" />
    <glyph glyph-name="uni1EB8" unicode="&#x1eb9;" horiz-adv-x="1690" 
d="M1700 1060v-375h-355l75 -60v-290h130l150 -120v-375h-1340l-150 120v1220h1340zM1540 325h-804v80h524v330h-524v80h804v355h-1320v-1200h1320v355zM706 435v-140h804v-295h-1260v1140h1260v-295h-804v-140h524v-270h-524zM685 -210h440l75 -60v-128h-440l-75 60v128z
M695 -220v-108h420v108h-420zM725 -298v48h360v-48h-360z" />
    <glyph glyph-name="uni1EB8" unicode="&#x1eb9;" horiz-adv-x="1690" 
d="M1700 1060v-375h-355l75 -60v-290h130l150 -120v-375h-1340l-150 120v1220h1340zM1540 325h-804v80h524v330h-524v80h804v355h-1320v-1200h1320v355zM706 435v-140h804v-295h-1260v1140h1260v-295h-804v-140h524v-270h-524zM685 -210h440l75 -60v-128h-440l-75 60v128z
M695 -220v-108h420v108h-420zM725 -298v48h360v-48h-360z" />
    <glyph glyph-name="uni1EBA" unicode="&#x1eba;" horiz-adv-x="1690" 
d="M880 1611q0 58 -42 119l-23 34l107 69l75 -60l22 -33q64 -97 64 -189q0 -47 -25 -122t-25 -90q0 -17 8 -37l15 -37l-119 -47l-75 60l-15 37q-17 41 -17 84q0 50 25 116t25 96zM919 1819l-90 -58l17 -25q44 -66 44 -125q0 -32 -25 -98t-25 -114q0 -42 16 -80l12 -28
l100 40l-11 27q-9 22 -9 41q0 17 25 91.5t25 120.5q0 92 -62 183zM920 1611q0 67 -49 141l-2 3l40 26l2 -3q57 -85 57 -167q0 -43 -29 -128q-21 -59 -21 -84q0 -24 11 -52l-45 -18q-14 37 -14 70q0 38 25 105t25 107zM1700 1060v-375h-355l75 -60v-290h130l150 -120v-375
h-1340l-150 120v1220h1340zM1540 325h-804v80h524v330h-524v80h804v355h-1320v-1200h1320v355zM706 435v-140h804v-295h-1260v1140h1260v-295h-804v-140h524v-270h-524z" />
    <glyph glyph-name="uni1EBA" unicode="&#x1ebb;" horiz-adv-x="1690" 
d="M880 1611q0 58 -42 119l-23 34l107 69l75 -60l22 -33q64 -97 64 -189q0 -47 -25 -122t-25 -90q0 -17 8 -37l15 -37l-119 -47l-75 60l-15 37q-17 41 -17 84q0 50 25 116t25 96zM919 1819l-90 -58l17 -25q44 -66 44 -125q0 -32 -25 -98t-25 -114q0 -42 16 -80l12 -28
l100 40l-11 27q-9 22 -9 41q0 17 25 91.5t25 120.5q0 92 -62 183zM920 1611q0 67 -49 141l-2 3l40 26l2 -3q57 -85 57 -167q0 -43 -29 -128q-21 -59 -21 -84q0 -24 11 -52l-45 -18q-14 37 -14 70q0 38 25 105t25 107zM1700 1060v-375h-355l75 -60v-290h130l150 -120v-375
h-1340l-150 120v1220h1340zM1540 325h-804v80h524v330h-524v80h804v355h-1320v-1200h1320v355zM706 435v-140h804v-295h-1260v1140h1260v-295h-804v-140h524v-270h-524z" />
    <glyph glyph-name="uni1EBA" unicode="&#x1ebb;" horiz-adv-x="1690" 
d="M880 1611q0 58 -42 119l-23 34l107 69l75 -60l22 -33q64 -97 64 -189q0 -47 -25 -122t-25 -90q0 -17 8 -37l15 -37l-119 -47l-75 60l-15 37q-17 41 -17 84q0 50 25 116t25 96zM919 1819l-90 -58l17 -25q44 -66 44 -125q0 -32 -25 -98t-25 -114q0 -42 16 -80l12 -28
l100 40l-11 27q-9 22 -9 41q0 17 25 91.5t25 120.5q0 92 -62 183zM920 1611q0 67 -49 141l-2 3l40 26l2 -3q57 -85 57 -167q0 -43 -29 -128q-21 -59 -21 -84q0 -24 11 -52l-45 -18q-14 37 -14 70q0 38 25 105t25 107zM1700 1060v-375h-355l75 -60v-290h130l150 -120v-375
h-1340l-150 120v1220h1340zM1540 325h-804v80h524v330h-524v80h804v355h-1320v-1200h1320v355zM706 435v-140h804v-295h-1260v1140h1260v-295h-804v-140h524v-270h-524z" />
    <glyph glyph-name="uni1EBC" unicode="&#x1ebc;" horiz-adv-x="1690" 
d="M653 1240l-75 60l-69 106q100 80 220 80q69 0 195 -39q106 -33 157 -33q73 0 151 58l75 -60l69 -106q-100 -80 -220 -80q-69 0 -195 39q-106 33 -157 33q-73 0 -151 -58zM522 1404l59 -90q73 54 148 54q54 0 160 -33q126 -39 192 -39q110 0 207 72l-59 90
q-73 -54 -148 -54q-54 0 -160 33q-126 39 -192 39q-110 0 -207 -72zM729 1398q-73 0 -140 -42l-26 40q79 50 166 50q64 0 183 -37q113 -35 169 -35q73 0 140 42l26 -40q-79 -50 -166 -50q-64 0 -183 37q-113 35 -169 35zM1700 1060v-375h-355l75 -60v-290h130l150 -120v-375
h-1340l-150 120v1220h1340zM1540 325h-804v80h524v330h-524v80h804v355h-1320v-1200h1320v355zM706 435v-140h804v-295h-1260v1140h1260v-295h-804v-140h524v-270h-524z" />
    <glyph glyph-name="uni1EBC" unicode="&#x1ebd;" horiz-adv-x="1690" 
d="M653 1240l-75 60l-69 106q100 80 220 80q69 0 195 -39q106 -33 157 -33q73 0 151 58l75 -60l69 -106q-100 -80 -220 -80q-69 0 -195 39q-106 33 -157 33q-73 0 -151 -58zM522 1404l59 -90q73 54 148 54q54 0 160 -33q126 -39 192 -39q110 0 207 72l-59 90
q-73 -54 -148 -54q-54 0 -160 33q-126 39 -192 39q-110 0 -207 -72zM729 1398q-73 0 -140 -42l-26 40q79 50 166 50q64 0 183 -37q113 -35 169 -35q73 0 140 42l26 -40q-79 -50 -166 -50q-64 0 -183 37q-113 35 -169 35zM1700 1060v-375h-355l75 -60v-290h130l150 -120v-375
h-1340l-150 120v1220h1340zM1540 325h-804v80h524v330h-524v80h804v355h-1320v-1200h1320v355zM706 435v-140h804v-295h-1260v1140h1260v-295h-804v-140h524v-270h-524z" />
    <glyph glyph-name="uni1EBC" unicode="&#x1ebd;" horiz-adv-x="1690" 
d="M653 1240l-75 60l-69 106q100 80 220 80q69 0 195 -39q106 -33 157 -33q73 0 151 58l75 -60l69 -106q-100 -80 -220 -80q-69 0 -195 39q-106 33 -157 33q-73 0 -151 -58zM522 1404l59 -90q73 54 148 54q54 0 160 -33q126 -39 192 -39q110 0 207 72l-59 90
q-73 -54 -148 -54q-54 0 -160 33q-126 39 -192 39q-110 0 -207 -72zM729 1398q-73 0 -140 -42l-26 40q79 50 166 50q64 0 183 -37q113 -35 169 -35q73 0 140 42l26 -40q-79 -50 -166 -50q-64 0 -183 37q-113 35 -169 35zM1700 1060v-375h-355l75 -60v-290h130l150 -120v-375
h-1340l-150 120v1220h1340zM1540 325h-804v80h524v330h-524v80h804v355h-1320v-1200h1320v355zM706 435v-140h804v-295h-1260v1140h1260v-295h-804v-140h524v-270h-524z" />
    <glyph glyph-name="uni1EBE" unicode="&#x1ebe;" horiz-adv-x="1690" 
d="M1658 1200h-128l-75 60v530h128l75 -60v-530zM1465 1780v-510h108v510h-108zM1495 1300v450h48v-450h-48zM545 1188l-75 60l-34 123l469 134l469 -134l75 -60l-34 -123l-435 123zM448 1364l29 -104l428 121l428 -121l29 104l-457 131zM905 1413l-407 -116l-13 46l420 120
l420 -120l-13 -46zM1700 1060v-375h-355l75 -60v-290h130l150 -120v-375h-1340l-150 120v1220h1340zM1540 325h-804v80h524v330h-524v80h804v355h-1320v-1200h1320v355zM706 435v-140h804v-295h-1260v1140h1260v-295h-804v-140h524v-270h-524z" />
    <glyph glyph-name="uni1EBE" unicode="&#x1ebf;" horiz-adv-x="1690" 
d="M1658 1200h-128l-75 60v530h128l75 -60v-530zM1465 1780v-510h108v510h-108zM1495 1300v450h48v-450h-48zM545 1188l-75 60l-34 123l469 134l469 -134l75 -60l-34 -123l-435 123zM448 1364l29 -104l428 121l428 -121l29 104l-457 131zM905 1413l-407 -116l-13 46l420 120
l420 -120l-13 -46zM1700 1060v-375h-355l75 -60v-290h130l150 -120v-375h-1340l-150 120v1220h1340zM1540 325h-804v80h524v330h-524v80h804v355h-1320v-1200h1320v355zM706 435v-140h804v-295h-1260v1140h1260v-295h-804v-140h524v-270h-524z" />
    <glyph glyph-name="uni1EBE" unicode="&#x1ebf;" horiz-adv-x="1690" 
d="M1658 1200h-128l-75 60v530h128l75 -60v-530zM1465 1780v-510h108v510h-108zM1495 1300v450h48v-450h-48zM545 1188l-75 60l-34 123l469 134l469 -134l75 -60l-34 -123l-435 123zM448 1364l29 -104l428 121l428 -121l29 104l-457 131zM905 1413l-407 -116l-13 46l420 120
l420 -120l-13 -46zM1700 1060v-375h-355l75 -60v-290h130l150 -120v-375h-1340l-150 120v1220h1340zM1540 325h-804v80h524v330h-524v80h804v355h-1320v-1200h1320v355zM706 435v-140h804v-295h-1260v1140h1260v-295h-804v-140h524v-270h-524z" />
    <glyph glyph-name="uni1EC0" unicode="&#x1ec0;" horiz-adv-x="1690" 
d="M1588 1434l-803 119l-75 60l21 127l803 -119l75 -60zM739 1729l-17 -108l783 -116l17 108zM756 1647l8 48l724 -108l-8 -48zM545 1188l-75 60l-34 123l469 134l469 -134l75 -60l-34 -123l-435 123zM448 1364l29 -104l428 121l428 -121l29 104l-457 131zM905 1413
l-407 -116l-13 46l420 120l420 -120l-13 -46zM1700 1060v-375h-355l75 -60v-290h130l150 -120v-375h-1340l-150 120v1220h1340zM1540 325h-804v80h524v330h-524v80h804v355h-1320v-1200h1320v355zM706 435v-140h804v-295h-1260v1140h1260v-295h-804v-140h524v-270h-524z" />
    <glyph glyph-name="uni1EC0" unicode="&#x1ec1;" horiz-adv-x="1690" 
d="M1588 1434l-803 119l-75 60l21 127l803 -119l75 -60zM739 1729l-17 -108l783 -116l17 108zM756 1647l8 48l724 -108l-8 -48zM545 1188l-75 60l-34 123l469 134l469 -134l75 -60l-34 -123l-435 123zM448 1364l29 -104l428 121l428 -121l29 104l-457 131zM905 1413
l-407 -116l-13 46l420 120l420 -120l-13 -46zM1700 1060v-375h-355l75 -60v-290h130l150 -120v-375h-1340l-150 120v1220h1340zM1540 325h-804v80h524v330h-524v80h804v355h-1320v-1200h1320v355zM706 435v-140h804v-295h-1260v1140h1260v-295h-804v-140h524v-270h-524z" />
    <glyph glyph-name="uni1EC0" unicode="&#x1ec1;" horiz-adv-x="1690" 
d="M1588 1434l-803 119l-75 60l21 127l803 -119l75 -60zM739 1729l-17 -108l783 -116l17 108zM756 1647l8 48l724 -108l-8 -48zM545 1188l-75 60l-34 123l469 134l469 -134l75 -60l-34 -123l-435 123zM448 1364l29 -104l428 121l428 -121l29 104l-457 131zM905 1413
l-407 -116l-13 46l420 120l420 -120l-13 -46zM1700 1060v-375h-355l75 -60v-290h130l150 -120v-375h-1340l-150 120v1220h1340zM1540 325h-804v80h524v330h-524v80h804v355h-1320v-1200h1320v355zM706 435v-140h804v-295h-1260v1140h1260v-295h-804v-140h524v-270h-524z" />
    <glyph glyph-name="uni1EC2" unicode="&#x1ec2;" horiz-adv-x="1690" 
d="M545 1188l-75 60l-34 123l469 134l469 -134l39 -32q-8 34 -8 60q0 50 25 116t25 96q0 58 -42 119l-23 34l107 69l75 -60l22 -33q64 -97 64 -189q0 -47 -25 -122t-25 -90q0 -17 8 -37l15 -37l-119 -47l-73 58l-24 -88l-435 123zM1415 1399q0 -35 12 -71l22 -17l-5 -20
l99 40l-11 27q-9 22 -9 41q0 17 25 91.5t25 120.5q0 92 -62 183l-17 25l-90 -58l17 -25q44 -66 44 -125q0 -32 -25 -98t-25 -114zM1504 1347l-45 -18q-14 37 -14 70q0 38 25 105t25 107q0 67 -49 141l-2 3l40 26l2 -3q57 -85 57 -167q0 -43 -29 -128q-21 -59 -21 -84
q0 -24 11 -52zM448 1364l29 -104l428 121l428 -121l29 104l-457 131zM905 1413l-407 -116l-13 46l420 120l420 -120l-13 -46zM1700 1060v-375h-355l75 -60v-290h130l150 -120v-375h-1340l-150 120v1220h1340zM1540 325h-804v80h524v330h-524v80h804v355h-1320v-1200h1320
v355zM706 435v-140h804v-295h-1260v1140h1260v-295h-804v-140h524v-270h-524z" />
    <glyph glyph-name="uni1EC2" unicode="&#x1ec3;" horiz-adv-x="1690" 
d="M545 1188l-75 60l-34 123l469 134l469 -134l39 -32q-8 34 -8 60q0 50 25 116t25 96q0 58 -42 119l-23 34l107 69l75 -60l22 -33q64 -97 64 -189q0 -47 -25 -122t-25 -90q0 -17 8 -37l15 -37l-119 -47l-73 58l-24 -88l-435 123zM1415 1399q0 -35 12 -71l22 -17l-5 -20
l99 40l-11 27q-9 22 -9 41q0 17 25 91.5t25 120.5q0 92 -62 183l-17 25l-90 -58l17 -25q44 -66 44 -125q0 -32 -25 -98t-25 -114zM1504 1347l-45 -18q-14 37 -14 70q0 38 25 105t25 107q0 67 -49 141l-2 3l40 26l2 -3q57 -85 57 -167q0 -43 -29 -128q-21 -59 -21 -84
q0 -24 11 -52zM448 1364l29 -104l428 121l428 -121l29 104l-457 131zM905 1413l-407 -116l-13 46l420 120l420 -120l-13 -46zM1700 1060v-375h-355l75 -60v-290h130l150 -120v-375h-1340l-150 120v1220h1340zM1540 325h-804v80h524v330h-524v80h804v355h-1320v-1200h1320
v355zM706 435v-140h804v-295h-1260v1140h1260v-295h-804v-140h524v-270h-524z" />
    <glyph glyph-name="uni1EC2" unicode="&#x1ec3;" horiz-adv-x="1690" 
d="M545 1188l-75 60l-34 123l469 134l469 -134l39 -32q-8 34 -8 60q0 50 25 116t25 96q0 58 -42 119l-23 34l107 69l75 -60l22 -33q64 -97 64 -189q0 -47 -25 -122t-25 -90q0 -17 8 -37l15 -37l-119 -47l-73 58l-24 -88l-435 123zM1415 1399q0 -35 12 -71l22 -17l-5 -20
l99 40l-11 27q-9 22 -9 41q0 17 25 91.5t25 120.5q0 92 -62 183l-17 25l-90 -58l17 -25q44 -66 44 -125q0 -32 -25 -98t-25 -114zM1504 1347l-45 -18q-14 37 -14 70q0 38 25 105t25 107q0 67 -49 141l-2 3l40 26l2 -3q57 -85 57 -167q0 -43 -29 -128q-21 -59 -21 -84
q0 -24 11 -52zM448 1364l29 -104l428 121l428 -121l29 104l-457 131zM905 1413l-407 -116l-13 46l420 120l420 -120l-13 -46zM1700 1060v-375h-355l75 -60v-290h130l150 -120v-375h-1340l-150 120v1220h1340zM1540 325h-804v80h524v330h-524v80h804v355h-1320v-1200h1320
v355zM706 435v-140h804v-295h-1260v1140h1260v-295h-804v-140h524v-270h-524z" />
    <glyph glyph-name="uni1EC4" unicode="&#x1ec4;" horiz-adv-x="1690" 
d="M653 1472l-75 60l-69 106q100 80 220 80q69 0 195 -39q106 -33 157 -33q73 0 151 58l75 -60l69 -106q-100 -80 -220 -80q-69 0 -195 39q-106 33 -157 33q-73 0 -151 -58zM522 1636l59 -90q73 54 148 54q54 0 160 -33q126 -39 192 -39q110 0 207 72l-59 90
q-73 -54 -148 -54q-54 0 -160 33q-126 39 -192 39q-110 0 -207 -72zM729 1630q-73 0 -140 -42l-26 40q79 50 166 50q64 0 183 -37q113 -35 169 -35q73 0 140 42l26 -40q-79 -50 -166 -50q-64 0 -183 37q-113 35 -169 35zM545 1188l-75 60l-34 123l469 134l469 -134l75 -60
l-34 -123l-435 123zM448 1364l29 -104l428 121l428 -121l29 104l-457 131zM905 1413l-407 -116l-13 46l420 120l420 -120l-13 -46zM1700 1060v-375h-355l75 -60v-290h130l150 -120v-375h-1340l-150 120v1220h1340zM1540 325h-804v80h524v330h-524v80h804v355h-1320v-1200
h1320v355zM706 435v-140h804v-295h-1260v1140h1260v-295h-804v-140h524v-270h-524z" />
    <glyph glyph-name="uni1EC4" unicode="&#x1ec5;" horiz-adv-x="1690" 
d="M653 1472l-75 60l-69 106q100 80 220 80q69 0 195 -39q106 -33 157 -33q73 0 151 58l75 -60l69 -106q-100 -80 -220 -80q-69 0 -195 39q-106 33 -157 33q-73 0 -151 -58zM522 1636l59 -90q73 54 148 54q54 0 160 -33q126 -39 192 -39q110 0 207 72l-59 90
q-73 -54 -148 -54q-54 0 -160 33q-126 39 -192 39q-110 0 -207 -72zM729 1630q-73 0 -140 -42l-26 40q79 50 166 50q64 0 183 -37q113 -35 169 -35q73 0 140 42l26 -40q-79 -50 -166 -50q-64 0 -183 37q-113 35 -169 35zM545 1188l-75 60l-34 123l469 134l469 -134l75 -60
l-34 -123l-435 123zM448 1364l29 -104l428 121l428 -121l29 104l-457 131zM905 1413l-407 -116l-13 46l420 120l420 -120l-13 -46zM1700 1060v-375h-355l75 -60v-290h130l150 -120v-375h-1340l-150 120v1220h1340zM1540 325h-804v80h524v330h-524v80h804v355h-1320v-1200
h1320v355zM706 435v-140h804v-295h-1260v1140h1260v-295h-804v-140h524v-270h-524z" />
    <glyph glyph-name="uni1EC4" unicode="&#x1ec5;" horiz-adv-x="1690" 
d="M653 1472l-75 60l-69 106q100 80 220 80q69 0 195 -39q106 -33 157 -33q73 0 151 58l75 -60l69 -106q-100 -80 -220 -80q-69 0 -195 39q-106 33 -157 33q-73 0 -151 -58zM522 1636l59 -90q73 54 148 54q54 0 160 -33q126 -39 192 -39q110 0 207 72l-59 90
q-73 -54 -148 -54q-54 0 -160 33q-126 39 -192 39q-110 0 -207 -72zM729 1630q-73 0 -140 -42l-26 40q79 50 166 50q64 0 183 -37q113 -35 169 -35q73 0 140 42l26 -40q-79 -50 -166 -50q-64 0 -183 37q-113 35 -169 35zM545 1188l-75 60l-34 123l469 134l469 -134l75 -60
l-34 -123l-435 123zM448 1364l29 -104l428 121l428 -121l29 104l-457 131zM905 1413l-407 -116l-13 46l420 120l420 -120l-13 -46zM1700 1060v-375h-355l75 -60v-290h130l150 -120v-375h-1340l-150 120v1220h1340zM1540 325h-804v80h524v330h-524v80h804v355h-1320v-1200
h1320v355zM706 435v-140h804v-295h-1260v1140h1260v-295h-804v-140h524v-270h-524z" />
    <glyph glyph-name="uni1EC6" unicode="&#x1ec6;" horiz-adv-x="1690" 
d="M545 1188l-75 60l-34 123l469 134l469 -134l75 -60l-34 -123l-435 123zM448 1364l29 -104l428 121l428 -121l29 104l-457 131zM905 1413l-407 -116l-13 46l420 120l420 -120l-13 -46zM1700 1060v-375h-355l75 -60v-290h130l150 -120v-375h-1340l-150 120v1220h1340z
M1540 325h-804v80h524v330h-524v80h804v355h-1320v-1200h1320v355zM706 435v-140h804v-295h-1260v1140h1260v-295h-804v-140h524v-270h-524zM685 -210h440l75 -60v-128h-440l-75 60v128zM695 -220v-108h420v108h-420zM725 -298v48h360v-48h-360z" />
    <glyph glyph-name="uni1EC6" unicode="&#x1ec7;" horiz-adv-x="1690" 
d="M545 1188l-75 60l-34 123l469 134l469 -134l75 -60l-34 -123l-435 123zM448 1364l29 -104l428 121l428 -121l29 104l-457 131zM905 1413l-407 -116l-13 46l420 120l420 -120l-13 -46zM1700 1060v-375h-355l75 -60v-290h130l150 -120v-375h-1340l-150 120v1220h1340z
M1540 325h-804v80h524v330h-524v80h804v355h-1320v-1200h1320v355zM706 435v-140h804v-295h-1260v1140h1260v-295h-804v-140h524v-270h-524zM685 -210h440l75 -60v-128h-440l-75 60v128zM695 -220v-108h420v108h-420zM725 -298v48h360v-48h-360z" />
    <glyph glyph-name="uni1EC6" unicode="&#x1ec7;" horiz-adv-x="1690" 
d="M545 1188l-75 60l-34 123l469 134l469 -134l75 -60l-34 -123l-435 123zM448 1364l29 -104l428 121l428 -121l29 104l-457 131zM905 1413l-407 -116l-13 46l420 120l420 -120l-13 -46zM1700 1060v-375h-355l75 -60v-290h130l150 -120v-375h-1340l-150 120v1220h1340z
M1540 325h-804v80h524v330h-524v80h804v355h-1320v-1200h1320v355zM706 435v-140h804v-295h-1260v1140h1260v-295h-804v-140h524v-270h-524zM685 -210h440l75 -60v-128h-440l-75 60v128zM695 -220v-108h420v108h-420zM725 -298v48h360v-48h-360z" />
    <glyph glyph-name="uni1EC8" unicode="&#x1ec8;" horiz-adv-x="956" 
d="M453 1611q0 58 -42 119l-23 34l107 69l75 -60l22 -33q64 -97 64 -189q0 -47 -25 -122t-25 -90q0 -17 8 -37l15 -37l-119 -47l-75 60l-15 37q-17 41 -17 84q0 50 25 116t25 96zM492 1819l-90 -58l17 -25q44 -66 44 -125q0 -32 -25 -98t-25 -114q0 -42 16 -80l12 -28
l100 40l-11 27q-9 22 -9 41q0 17 25 91.5t25 120.5q0 92 -62 183zM493 1611q0 67 -49 141l-2 3l40 26l2 -3q57 -86 57 -167q0 -43 -29 -128q-21 -59 -21 -84q0 -24 11 -52l-45 -18q-14 37 -14 70q0 38 25 105t25 107zM746 1180l150 -120v-1220h-536l-150 120v1220h536z
M220 1170v-1200h516v1200h-516zM250 0v1140h456v-1140h-456z" />
    <glyph glyph-name="uni1EC8" unicode="&#x1ec9;" horiz-adv-x="956" 
d="M453 1611q0 58 -42 119l-23 34l107 69l75 -60l22 -33q64 -97 64 -189q0 -47 -25 -122t-25 -90q0 -17 8 -37l15 -37l-119 -47l-75 60l-15 37q-17 41 -17 84q0 50 25 116t25 96zM492 1819l-90 -58l17 -25q44 -66 44 -125q0 -32 -25 -98t-25 -114q0 -42 16 -80l12 -28
l100 40l-11 27q-9 22 -9 41q0 17 25 91.5t25 120.5q0 92 -62 183zM493 1611q0 67 -49 141l-2 3l40 26l2 -3q57 -86 57 -167q0 -43 -29 -128q-21 -59 -21 -84q0 -24 11 -52l-45 -18q-14 37 -14 70q0 38 25 105t25 107zM746 1180l150 -120v-1220h-536l-150 120v1220h536z
M220 1170v-1200h516v1200h-516zM250 0v1140h456v-1140h-456z" />
    <glyph glyph-name="uni1EC8" unicode="&#x1ec9;" horiz-adv-x="956" 
d="M453 1611q0 58 -42 119l-23 34l107 69l75 -60l22 -33q64 -97 64 -189q0 -47 -25 -122t-25 -90q0 -17 8 -37l15 -37l-119 -47l-75 60l-15 37q-17 41 -17 84q0 50 25 116t25 96zM492 1819l-90 -58l17 -25q44 -66 44 -125q0 -32 -25 -98t-25 -114q0 -42 16 -80l12 -28
l100 40l-11 27q-9 22 -9 41q0 17 25 91.5t25 120.5q0 92 -62 183zM493 1611q0 67 -49 141l-2 3l40 26l2 -3q57 -86 57 -167q0 -43 -29 -128q-21 -59 -21 -84q0 -24 11 -52l-45 -18q-14 37 -14 70q0 38 25 105t25 107zM746 1180l150 -120v-1220h-536l-150 120v1220h536z
M220 1170v-1200h516v1200h-516zM250 0v1140h456v-1140h-456z" />
    <glyph glyph-name="uni1ECA" unicode="&#x1eca;" horiz-adv-x="956" 
d="M746 1180l150 -120v-1220h-536l-150 120v1220h536zM220 1170v-1200h516v1200h-516zM250 0v1140h456v-1140h-456zM258 -210h440l75 -60v-128h-440l-75 60v128zM268 -220v-108h420v108h-420zM298 -298v48h360v-48h-360z" />
    <glyph glyph-name="uni1ECA" unicode="&#x1ecb;" horiz-adv-x="956" 
d="M746 1180l150 -120v-1220h-536l-150 120v1220h536zM220 1170v-1200h516v1200h-516zM250 0v1140h456v-1140h-456zM258 -210h440l75 -60v-128h-440l-75 60v128zM268 -220v-108h420v108h-420zM298 -298v48h360v-48h-360z" />
    <glyph glyph-name="uni1ECA" unicode="&#x1ecb;" horiz-adv-x="956" 
d="M746 1180l150 -120v-1220h-536l-150 120v1220h536zM220 1170v-1200h516v1200h-516zM250 0v1140h456v-1140h-456zM258 -210h440l75 -60v-128h-440l-75 60v128zM268 -220v-108h420v108h-420zM298 -298v48h360v-48h-360z" />
    <glyph glyph-name="uni1ECC" unicode="&#x1ecc;" horiz-adv-x="1780" 
d="M1659 995q91 -73 91 -191v-710q0 -105 -74 -174q-83 -80 -217 -80h-840q-118 0 -200 66l-150 120q-89 72 -89 188v710q0 111 82.5 183.5t206.5 72.5h840q118 0 200 -65zM190 214q0 -105 79 -174.5t200 -69.5h840q122 0 201.5 69t79.5 175v710q0 106 -79.5 176t-201.5 70
h-840q-121 0 -200 -70t-79 -176v-710zM1309 0h-840q-108 0 -178.5 60.5t-70.5 153.5v710q0 94 70.5 155t178.5 61h840q109 0 180 -61t71 -155v-710q0 -93 -71 -153.5t-180 -60.5zM666 738v-338q0 -37 26 -60.5t67 -23.5h260q41 0 68 23.5t27 60.5v338q0 37 -27 61.5
t-68 24.5h-260q-41 0 -67 -24.5t-26 -61.5zM759 346q-28 0 -45.5 15t-17.5 39v338q0 25 17.5 40.5t45.5 15.5h260q29 0 47 -15.5t18 -40.5v-338q0 -24 -18 -39t-47 -15h-260zM1074 400v264h-165q-25 0 -38 -12q-15 -13 -15 -34v-262h163q25 0 40 12t15 32zM670 -210h440
l75 -60v-128h-440l-75 60v128zM680 -220v-108h420v108h-420zM710 -298v48h360v-48h-360z" />
    <glyph glyph-name="uni1ECC" unicode="&#x1ecd;" horiz-adv-x="1780" 
d="M1659 995q91 -73 91 -191v-710q0 -105 -74 -174q-83 -80 -217 -80h-840q-118 0 -200 66l-150 120q-89 72 -89 188v710q0 111 82.5 183.5t206.5 72.5h840q118 0 200 -65zM190 214q0 -105 79 -174.5t200 -69.5h840q122 0 201.5 69t79.5 175v710q0 106 -79.5 176t-201.5 70
h-840q-121 0 -200 -70t-79 -176v-710zM1309 0h-840q-108 0 -178.5 60.5t-70.5 153.5v710q0 94 70.5 155t178.5 61h840q109 0 180 -61t71 -155v-710q0 -93 -71 -153.5t-180 -60.5zM666 738v-338q0 -37 26 -60.5t67 -23.5h260q41 0 68 23.5t27 60.5v338q0 37 -27 61.5
t-68 24.5h-260q-41 0 -67 -24.5t-26 -61.5zM759 346q-28 0 -45.5 15t-17.5 39v338q0 25 17.5 40.5t45.5 15.5h260q29 0 47 -15.5t18 -40.5v-338q0 -24 -18 -39t-47 -15h-260zM1074 400v264h-165q-25 0 -38 -12q-15 -13 -15 -34v-262h163q25 0 40 12t15 32zM670 -210h440
l75 -60v-128h-440l-75 60v128zM680 -220v-108h420v108h-420zM710 -298v48h360v-48h-360z" />
    <glyph glyph-name="uni1ECC" unicode="&#x1ecd;" horiz-adv-x="1780" 
d="M1659 995q91 -73 91 -191v-710q0 -105 -74 -174q-83 -80 -217 -80h-840q-118 0 -200 66l-150 120q-89 72 -89 188v710q0 111 82.5 183.5t206.5 72.5h840q118 0 200 -65zM190 214q0 -105 79 -174.5t200 -69.5h840q122 0 201.5 69t79.5 175v710q0 106 -79.5 176t-201.5 70
h-840q-121 0 -200 -70t-79 -176v-710zM1309 0h-840q-108 0 -178.5 60.5t-70.5 153.5v710q0 94 70.5 155t178.5 61h840q109 0 180 -61t71 -155v-710q0 -93 -71 -153.5t-180 -60.5zM666 738v-338q0 -37 26 -60.5t67 -23.5h260q41 0 68 23.5t27 60.5v338q0 37 -27 61.5
t-68 24.5h-260q-41 0 -67 -24.5t-26 -61.5zM759 346q-28 0 -45.5 15t-17.5 39v338q0 25 17.5 40.5t45.5 15.5h260q29 0 47 -15.5t18 -40.5v-338q0 -24 -18 -39t-47 -15h-260zM1074 400v264h-165q-25 0 -38 -12q-15 -13 -15 -34v-262h163q25 0 40 12t15 32zM670 -210h440
l75 -60v-128h-440l-75 60v128zM680 -220v-108h420v108h-420zM710 -298v48h360v-48h-360z" />
    <glyph glyph-name="uni1ECE" unicode="&#x1ece;" horiz-adv-x="1780" 
d="M865 1611q0 58 -42 119l-23 34l107 69l75 -60l22 -33q64 -97 64 -189q0 -47 -25 -122t-25 -90q0 -17 8 -37l15 -37l-119 -47l-75 60l-15 37q-17 41 -17 84q0 50 25 116t25 96zM904 1819l-90 -58l17 -25q44 -66 44 -125q0 -32 -25 -98t-25 -114q0 -42 16 -80l12 -28
l100 40l-11 27q-9 22 -9 41q0 17 25 91.5t25 120.5q0 92 -62 183zM905 1611q0 67 -49 141l-2 3l40 26l2 -3q57 -85 57 -167q0 -43 -29 -128q-21 -59 -21 -84q0 -24 11 -52l-45 -18q-14 37 -14 70q0 38 25 105t25 107zM1659 995q91 -73 91 -191v-710q0 -105 -74 -174
q-83 -80 -217 -80h-840q-118 0 -200 66l-150 120q-89 72 -89 188v710q0 111 82.5 183.5t206.5 72.5h840q118 0 200 -65zM190 214q0 -105 79 -174.5t200 -69.5h840q122 0 201.5 69t79.5 175v710q0 106 -79.5 176t-201.5 70h-840q-121 0 -200 -70t-79 -176v-710zM1309 0h-840
q-108 0 -178.5 60.5t-70.5 153.5v710q0 94 70.5 155t178.5 61h840q109 0 180 -61t71 -155v-710q0 -93 -71 -153.5t-180 -60.5zM666 738v-338q0 -37 26 -60.5t67 -23.5h260q41 0 68 23.5t27 60.5v338q0 37 -27 61.5t-68 24.5h-260q-41 0 -67 -24.5t-26 -61.5zM759 346
q-28 0 -45.5 15t-17.5 39v338q0 25 17.5 40.5t45.5 15.5h260q29 0 47 -15.5t18 -40.5v-338q0 -24 -18 -39t-47 -15h-260zM1074 400v264h-165q-25 0 -38 -12q-15 -13 -15 -34v-262h163q25 0 40 12t15 32z" />
    <glyph glyph-name="uni1ECE" unicode="&#x1ecf;" horiz-adv-x="1780" 
d="M865 1611q0 58 -42 119l-23 34l107 69l75 -60l22 -33q64 -97 64 -189q0 -47 -25 -122t-25 -90q0 -17 8 -37l15 -37l-119 -47l-75 60l-15 37q-17 41 -17 84q0 50 25 116t25 96zM904 1819l-90 -58l17 -25q44 -66 44 -125q0 -32 -25 -98t-25 -114q0 -42 16 -80l12 -28
l100 40l-11 27q-9 22 -9 41q0 17 25 91.5t25 120.5q0 92 -62 183zM905 1611q0 67 -49 141l-2 3l40 26l2 -3q57 -85 57 -167q0 -43 -29 -128q-21 -59 -21 -84q0 -24 11 -52l-45 -18q-14 37 -14 70q0 38 25 105t25 107zM1659 995q91 -73 91 -191v-710q0 -105 -74 -174
q-83 -80 -217 -80h-840q-118 0 -200 66l-150 120q-89 72 -89 188v710q0 111 82.5 183.5t206.5 72.5h840q118 0 200 -65zM190 214q0 -105 79 -174.5t200 -69.5h840q122 0 201.5 69t79.5 175v710q0 106 -79.5 176t-201.5 70h-840q-121 0 -200 -70t-79 -176v-710zM1309 0h-840
q-108 0 -178.5 60.5t-70.5 153.5v710q0 94 70.5 155t178.5 61h840q109 0 180 -61t71 -155v-710q0 -93 -71 -153.5t-180 -60.5zM666 738v-338q0 -37 26 -60.5t67 -23.5h260q41 0 68 23.5t27 60.5v338q0 37 -27 61.5t-68 24.5h-260q-41 0 -67 -24.5t-26 -61.5zM759 346
q-28 0 -45.5 15t-17.5 39v338q0 25 17.5 40.5t45.5 15.5h260q29 0 47 -15.5t18 -40.5v-338q0 -24 -18 -39t-47 -15h-260zM1074 400v264h-165q-25 0 -38 -12q-15 -13 -15 -34v-262h163q25 0 40 12t15 32z" />
    <glyph glyph-name="uni1ECE" unicode="&#x1ecf;" horiz-adv-x="1780" 
d="M865 1611q0 58 -42 119l-23 34l107 69l75 -60l22 -33q64 -97 64 -189q0 -47 -25 -122t-25 -90q0 -17 8 -37l15 -37l-119 -47l-75 60l-15 37q-17 41 -17 84q0 50 25 116t25 96zM904 1819l-90 -58l17 -25q44 -66 44 -125q0 -32 -25 -98t-25 -114q0 -42 16 -80l12 -28
l100 40l-11 27q-9 22 -9 41q0 17 25 91.5t25 120.5q0 92 -62 183zM905 1611q0 67 -49 141l-2 3l40 26l2 -3q57 -85 57 -167q0 -43 -29 -128q-21 -59 -21 -84q0 -24 11 -52l-45 -18q-14 37 -14 70q0 38 25 105t25 107zM1659 995q91 -73 91 -191v-710q0 -105 -74 -174
q-83 -80 -217 -80h-840q-118 0 -200 66l-150 120q-89 72 -89 188v710q0 111 82.5 183.5t206.5 72.5h840q118 0 200 -65zM190 214q0 -105 79 -174.5t200 -69.5h840q122 0 201.5 69t79.5 175v710q0 106 -79.5 176t-201.5 70h-840q-121 0 -200 -70t-79 -176v-710zM1309 0h-840
q-108 0 -178.5 60.5t-70.5 153.5v710q0 94 70.5 155t178.5 61h840q109 0 180 -61t71 -155v-710q0 -93 -71 -153.5t-180 -60.5zM666 738v-338q0 -37 26 -60.5t67 -23.5h260q41 0 68 23.5t27 60.5v338q0 37 -27 61.5t-68 24.5h-260q-41 0 -67 -24.5t-26 -61.5zM759 346
q-28 0 -45.5 15t-17.5 39v338q0 25 17.5 40.5t45.5 15.5h260q29 0 47 -15.5t18 -40.5v-338q0 -24 -18 -39t-47 -15h-260zM1074 400v264h-165q-25 0 -38 -12q-15 -13 -15 -34v-262h163q25 0 40 12t15 32z" />
    <glyph glyph-name="uni1ED0" unicode="&#x1ed0;" horiz-adv-x="1780" 
d="M1643 1200h-128l-75 60v530h128l75 -60v-530zM1450 1780v-510h108v510h-108zM1480 1300v450h48v-450h-48zM530 1188l-75 60l-34 123l469 134l469 -134l75 -60l-34 -123l-435 123zM433 1364l29 -104l428 121l428 -121l29 104l-457 131zM890 1413l-407 -116l-13 46l420 120
l420 -120l-13 -46zM1659 995q91 -73 91 -191v-710q0 -105 -74 -174q-83 -80 -217 -80h-840q-118 0 -200 66l-150 120q-89 72 -89 188v710q0 111 82.5 183.5t206.5 72.5h840q118 0 200 -65zM190 214q0 -105 79 -174.5t200 -69.5h840q122 0 201.5 69t79.5 175v710
q0 106 -79.5 176t-201.5 70h-840q-121 0 -200 -70t-79 -176v-710zM1309 0h-840q-108 0 -178.5 60.5t-70.5 153.5v710q0 94 70.5 155t178.5 61h840q109 0 180 -61t71 -155v-710q0 -93 -71 -153.5t-180 -60.5zM666 738v-338q0 -37 26 -60.5t67 -23.5h260q41 0 68 23.5t27 60.5
v338q0 37 -27 61.5t-68 24.5h-260q-41 0 -67 -24.5t-26 -61.5zM759 346q-28 0 -45.5 15t-17.5 39v338q0 25 17.5 40.5t45.5 15.5h260q29 0 47 -15.5t18 -40.5v-338q0 -24 -18 -39t-47 -15h-260zM1074 400v264h-165q-25 0 -38 -12q-15 -13 -15 -34v-262h163q25 0 40 12t15 32
z" />
    <glyph glyph-name="uni1ED0" unicode="&#x1ed1;" horiz-adv-x="1780" 
d="M1643 1200h-128l-75 60v530h128l75 -60v-530zM1450 1780v-510h108v510h-108zM1480 1300v450h48v-450h-48zM530 1188l-75 60l-34 123l469 134l469 -134l75 -60l-34 -123l-435 123zM433 1364l29 -104l428 121l428 -121l29 104l-457 131zM890 1413l-407 -116l-13 46l420 120
l420 -120l-13 -46zM1659 995q91 -73 91 -191v-710q0 -105 -74 -174q-83 -80 -217 -80h-840q-118 0 -200 66l-150 120q-89 72 -89 188v710q0 111 82.5 183.5t206.5 72.5h840q118 0 200 -65zM190 214q0 -105 79 -174.5t200 -69.5h840q122 0 201.5 69t79.5 175v710
q0 106 -79.5 176t-201.5 70h-840q-121 0 -200 -70t-79 -176v-710zM1309 0h-840q-108 0 -178.5 60.5t-70.5 153.5v710q0 94 70.5 155t178.5 61h840q109 0 180 -61t71 -155v-710q0 -93 -71 -153.5t-180 -60.5zM666 738v-338q0 -37 26 -60.5t67 -23.5h260q41 0 68 23.5t27 60.5
v338q0 37 -27 61.5t-68 24.5h-260q-41 0 -67 -24.5t-26 -61.5zM759 346q-28 0 -45.5 15t-17.5 39v338q0 25 17.5 40.5t45.5 15.5h260q29 0 47 -15.5t18 -40.5v-338q0 -24 -18 -39t-47 -15h-260zM1074 400v264h-165q-25 0 -38 -12q-15 -13 -15 -34v-262h163q25 0 40 12t15 32
z" />
    <glyph glyph-name="uni1ED0" unicode="&#x1ed1;" horiz-adv-x="1780" 
d="M1643 1200h-128l-75 60v530h128l75 -60v-530zM1450 1780v-510h108v510h-108zM1480 1300v450h48v-450h-48zM530 1188l-75 60l-34 123l469 134l469 -134l75 -60l-34 -123l-435 123zM433 1364l29 -104l428 121l428 -121l29 104l-457 131zM890 1413l-407 -116l-13 46l420 120
l420 -120l-13 -46zM1659 995q91 -73 91 -191v-710q0 -105 -74 -174q-83 -80 -217 -80h-840q-118 0 -200 66l-150 120q-89 72 -89 188v710q0 111 82.5 183.5t206.5 72.5h840q118 0 200 -65zM190 214q0 -105 79 -174.5t200 -69.5h840q122 0 201.5 69t79.5 175v710
q0 106 -79.5 176t-201.5 70h-840q-121 0 -200 -70t-79 -176v-710zM1309 0h-840q-108 0 -178.5 60.5t-70.5 153.5v710q0 94 70.5 155t178.5 61h840q109 0 180 -61t71 -155v-710q0 -93 -71 -153.5t-180 -60.5zM666 738v-338q0 -37 26 -60.5t67 -23.5h260q41 0 68 23.5t27 60.5
v338q0 37 -27 61.5t-68 24.5h-260q-41 0 -67 -24.5t-26 -61.5zM759 346q-28 0 -45.5 15t-17.5 39v338q0 25 17.5 40.5t45.5 15.5h260q29 0 47 -15.5t18 -40.5v-338q0 -24 -18 -39t-47 -15h-260zM1074 400v264h-165q-25 0 -38 -12q-15 -13 -15 -34v-262h163q25 0 40 12t15 32
z" />
    <glyph glyph-name="uni1ED2" unicode="&#x1ed2;" horiz-adv-x="1780" 
d="M1573 1434l-803 119l-75 60l21 127l803 -119l75 -60zM724 1729l-17 -108l783 -116l17 108zM741 1647l8 48l724 -108l-8 -48zM530 1188l-75 60l-34 123l469 134l469 -134l75 -60l-34 -123l-435 123zM433 1364l29 -104l428 121l428 -121l29 104l-457 131zM890 1413
l-407 -116l-13 46l420 120l420 -120l-13 -46zM1659 995q91 -73 91 -191v-710q0 -105 -74 -174q-83 -80 -217 -80h-840q-118 0 -200 66l-150 120q-89 72 -89 188v710q0 111 82.5 183.5t206.5 72.5h840q118 0 200 -65zM190 214q0 -105 79 -174.5t200 -69.5h840q122 0 201.5 69
t79.5 175v710q0 106 -79.5 176t-201.5 70h-840q-121 0 -200 -70t-79 -176v-710zM1309 0h-840q-108 0 -178.5 60.5t-70.5 153.5v710q0 94 70.5 155t178.5 61h840q109 0 180 -61t71 -155v-710q0 -93 -71 -153.5t-180 -60.5zM666 738v-338q0 -37 26 -60.5t67 -23.5h260
q41 0 68 23.5t27 60.5v338q0 37 -27 61.5t-68 24.5h-260q-41 0 -67 -24.5t-26 -61.5zM759 346q-28 0 -45.5 15t-17.5 39v338q0 25 17.5 40.5t45.5 15.5h260q29 0 47 -15.5t18 -40.5v-338q0 -24 -18 -39t-47 -15h-260zM1074 400v264h-165q-25 0 -38 -12q-15 -13 -15 -34v-262
h163q25 0 40 12t15 32z" />
    <glyph glyph-name="uni1ED2" unicode="&#x1ed3;" horiz-adv-x="1780" 
d="M1573 1434l-803 119l-75 60l21 127l803 -119l75 -60zM724 1729l-17 -108l783 -116l17 108zM741 1647l8 48l724 -108l-8 -48zM530 1188l-75 60l-34 123l469 134l469 -134l75 -60l-34 -123l-435 123zM433 1364l29 -104l428 121l428 -121l29 104l-457 131zM890 1413
l-407 -116l-13 46l420 120l420 -120l-13 -46zM1659 995q91 -73 91 -191v-710q0 -105 -74 -174q-83 -80 -217 -80h-840q-118 0 -200 66l-150 120q-89 72 -89 188v710q0 111 82.5 183.5t206.5 72.5h840q118 0 200 -65zM190 214q0 -105 79 -174.5t200 -69.5h840q122 0 201.5 69
t79.5 175v710q0 106 -79.5 176t-201.5 70h-840q-121 0 -200 -70t-79 -176v-710zM1309 0h-840q-108 0 -178.5 60.5t-70.5 153.5v710q0 94 70.5 155t178.5 61h840q109 0 180 -61t71 -155v-710q0 -93 -71 -153.5t-180 -60.5zM666 738v-338q0 -37 26 -60.5t67 -23.5h260
q41 0 68 23.5t27 60.5v338q0 37 -27 61.5t-68 24.5h-260q-41 0 -67 -24.5t-26 -61.5zM759 346q-28 0 -45.5 15t-17.5 39v338q0 25 17.5 40.5t45.5 15.5h260q29 0 47 -15.5t18 -40.5v-338q0 -24 -18 -39t-47 -15h-260zM1074 400v264h-165q-25 0 -38 -12q-15 -13 -15 -34v-262
h163q25 0 40 12t15 32z" />
    <glyph glyph-name="uni1ED2" unicode="&#x1ed3;" horiz-adv-x="1780" 
d="M1573 1434l-803 119l-75 60l21 127l803 -119l75 -60zM724 1729l-17 -108l783 -116l17 108zM741 1647l8 48l724 -108l-8 -48zM530 1188l-75 60l-34 123l469 134l469 -134l75 -60l-34 -123l-435 123zM433 1364l29 -104l428 121l428 -121l29 104l-457 131zM890 1413
l-407 -116l-13 46l420 120l420 -120l-13 -46zM1659 995q91 -73 91 -191v-710q0 -105 -74 -174q-83 -80 -217 -80h-840q-118 0 -200 66l-150 120q-89 72 -89 188v710q0 111 82.5 183.5t206.5 72.5h840q118 0 200 -65zM190 214q0 -105 79 -174.5t200 -69.5h840q122 0 201.5 69
t79.5 175v710q0 106 -79.5 176t-201.5 70h-840q-121 0 -200 -70t-79 -176v-710zM1309 0h-840q-108 0 -178.5 60.5t-70.5 153.5v710q0 94 70.5 155t178.5 61h840q109 0 180 -61t71 -155v-710q0 -93 -71 -153.5t-180 -60.5zM666 738v-338q0 -37 26 -60.5t67 -23.5h260
q41 0 68 23.5t27 60.5v338q0 37 -27 61.5t-68 24.5h-260q-41 0 -67 -24.5t-26 -61.5zM759 346q-28 0 -45.5 15t-17.5 39v338q0 25 17.5 40.5t45.5 15.5h260q29 0 47 -15.5t18 -40.5v-338q0 -24 -18 -39t-47 -15h-260zM1074 400v264h-165q-25 0 -38 -12q-15 -13 -15 -34v-262
h163q25 0 40 12t15 32z" />
    <glyph glyph-name="uni1ED4" unicode="&#x1ed4;" horiz-adv-x="1780" 
d="M530 1188l-75 60l-34 123l469 134l469 -134l39 -32q-8 34 -8 60q0 50 25 116t25 96q0 58 -42 119l-23 34l107 69l75 -60l22 -33q64 -97 64 -189q0 -47 -25 -122t-25 -90q0 -17 8 -37l15 -37l-119 -47l-73 58l-24 -88l-435 123zM1400 1399q0 -35 12 -71l22 -17l-5 -20
l99 40l-11 27q-9 22 -9 41q0 17 25 91.5t25 120.5q0 92 -62 183l-17 25l-90 -58l17 -25q44 -66 44 -125q0 -32 -25 -98t-25 -114zM1489 1347l-45 -18q-14 37 -14 70q0 38 25 105t25 107q0 67 -49 141l-2 3l40 26l2 -3q57 -85 57 -167q0 -43 -29 -128q-21 -59 -21 -84
q0 -24 11 -52zM433 1364l29 -104l428 121l428 -121l29 104l-457 131zM890 1413l-407 -116l-13 46l420 120l420 -120l-13 -46zM1659 995q91 -73 91 -191v-710q0 -105 -74 -174q-83 -80 -217 -80h-840q-118 0 -200 66l-150 120q-89 72 -89 188v710q0 111 82.5 183.5
t206.5 72.5h840q118 0 200 -65zM190 214q0 -105 79 -174.5t200 -69.5h840q122 0 201.5 69t79.5 175v710q0 106 -79.5 176t-201.5 70h-840q-121 0 -200 -70t-79 -176v-710zM1309 0h-840q-108 0 -178.5 60.5t-70.5 153.5v710q0 94 70.5 155t178.5 61h840q109 0 180 -61
t71 -155v-710q0 -93 -71 -153.5t-180 -60.5zM666 738v-338q0 -37 26 -60.5t67 -23.5h260q41 0 68 23.5t27 60.5v338q0 37 -27 61.5t-68 24.5h-260q-41 0 -67 -24.5t-26 -61.5zM759 346q-28 0 -45.5 15t-17.5 39v338q0 25 17.5 40.5t45.5 15.5h260q29 0 47 -15.5t18 -40.5
v-338q0 -24 -18 -39t-47 -15h-260zM1074 400v264h-165q-25 0 -38 -12q-15 -13 -15 -34v-262h163q25 0 40 12t15 32z" />
    <glyph glyph-name="uni1ED4" unicode="&#x1ed5;" horiz-adv-x="1780" 
d="M530 1188l-75 60l-34 123l469 134l469 -134l39 -32q-8 34 -8 60q0 50 25 116t25 96q0 58 -42 119l-23 34l107 69l75 -60l22 -33q64 -97 64 -189q0 -47 -25 -122t-25 -90q0 -17 8 -37l15 -37l-119 -47l-73 58l-24 -88l-435 123zM1400 1399q0 -35 12 -71l22 -17l-5 -20
l99 40l-11 27q-9 22 -9 41q0 17 25 91.5t25 120.5q0 92 -62 183l-17 25l-90 -58l17 -25q44 -66 44 -125q0 -32 -25 -98t-25 -114zM1489 1347l-45 -18q-14 37 -14 70q0 38 25 105t25 107q0 67 -49 141l-2 3l40 26l2 -3q57 -85 57 -167q0 -43 -29 -128q-21 -59 -21 -84
q0 -24 11 -52zM433 1364l29 -104l428 121l428 -121l29 104l-457 131zM890 1413l-407 -116l-13 46l420 120l420 -120l-13 -46zM1659 995q91 -73 91 -191v-710q0 -105 -74 -174q-83 -80 -217 -80h-840q-118 0 -200 66l-150 120q-89 72 -89 188v710q0 111 82.5 183.5
t206.5 72.5h840q118 0 200 -65zM190 214q0 -105 79 -174.5t200 -69.5h840q122 0 201.5 69t79.5 175v710q0 106 -79.5 176t-201.5 70h-840q-121 0 -200 -70t-79 -176v-710zM1309 0h-840q-108 0 -178.5 60.5t-70.5 153.5v710q0 94 70.5 155t178.5 61h840q109 0 180 -61
t71 -155v-710q0 -93 -71 -153.5t-180 -60.5zM666 738v-338q0 -37 26 -60.5t67 -23.5h260q41 0 68 23.5t27 60.5v338q0 37 -27 61.5t-68 24.5h-260q-41 0 -67 -24.5t-26 -61.5zM759 346q-28 0 -45.5 15t-17.5 39v338q0 25 17.5 40.5t45.5 15.5h260q29 0 47 -15.5t18 -40.5
v-338q0 -24 -18 -39t-47 -15h-260zM1074 400v264h-165q-25 0 -38 -12q-15 -13 -15 -34v-262h163q25 0 40 12t15 32z" />
    </font>
</defs>
</svg>
